<svg data-name="그룹 20564" xmlns="http://www.w3.org/2000/svg" width="60" height="60" viewBox="0 0 60 60">
    <defs>
        <clipPath id="z4jz9ie0za">
            <path data-name="사각형 13468" style="fill:#50a2ff" d="M0 0h48.549v47H0z"/>
        </clipPath>
    </defs>
    <path data-name="사각형 13484" style="fill:none" d="M0 0h60v60H0z"/>
    <g data-name="그룹 20528">
        <g data-name="그룹 20527" style="clip-path:url(#z4jz9ie0za)" transform="translate(9.726 3.5)">
            <path data-name="패스 39667" d="M20.959 54.064a20.959 20.959 0 1 1 7.42-40.564l1 .377-.394.988A9.059 9.059 0 0 0 39.9 26.92l1.022-.293.276 1.027a20.961 20.961 0 0 1-20.239 26.41m0-39.825a18.864 18.864 0 1 0 18.454 14.942 11.152 11.152 0 0 1-12.73-14.055 18.8 18.8 0 0 0-5.724-.887" transform="translate(0 -7.064)" style="fill:#50a2ff"/>
            <path data-name="패스 39668" d="M73.879 22.3a11.151 11.151 0 1 1 3.078-.433 11.163 11.163 0 0 1-3.078.433m0-20.209a9.058 9.058 0 1 0 9.059 9.058 9.015 9.015 0 0 0-9.059-9.058" transform="translate(-36.481)" style="fill:#50a2ff"/>
            <path data-name="패스 39669" d="M39.3 41.127h-8.67a1.046 1.046 0 1 1 0-2.092h8.67a1.046 1.046 0 1 1 0 2.092" transform="translate(-17.205 -22.702)" style="fill:#50a2ff"/>
            <path data-name="패스 39670" d="M39.3 83.447h-8.67a1.046 1.046 0 1 1 0-2.092h8.67a1.046 1.046 0 1 1 0 2.092" transform="translate(-17.205 -47.314)" style="fill:#50a2ff"/>
            <path data-name="패스 39671" d="M42.687 55.234H30.63a1.046 1.046 0 1 1 0-2.092h12.057a1.046 1.046 0 1 1 0 2.092" transform="translate(-17.205 -30.906)" style="fill:#50a2ff"/>
            <path data-name="패스 39672" d="M46.244 69.341H30.63a1.046 1.046 0 1 1 0-2.092h15.614a1.046 1.046 0 0 1 0 2.092" transform="translate(-17.205 -39.11)" style="fill:#50a2ff"/>
            <path data-name="패스 39673" d="m80.534 25.649-4.319-4.319a1.046 1.046 0 0 1 1.48-1.479l2.839 2.84 4.912-4.912a1.046 1.046 0 0 1 1.479 1.48z" transform="translate(-44.146 -10.161)" style="fill:#50a2ff"/>
        </g>
    </g>
</svg>
