<svg data-name="그룹 20476" xmlns="http://www.w3.org/2000/svg" width="15.751" height="22" viewBox="0 0 15.751 22">
    <defs>
        <clipPath id="kzns10txpa">
            <path data-name="사각형 13425" style="fill:#a8a8a8" d="M0 0h15.751v22H0z"/>
        </clipPath>
    </defs>
    <g data-name="그룹 20475" style="clip-path:url(#kzns10txpa)">
        <path data-name="패스 39654" d="M14.8 15.245h-2.221v-2.068l2.505-3.014a.9.9 0 0 0-.741-1.469h-1.764V6.625l2.505-3.014a.9.9 0 0 0-.741-1.469H11.79a5.027 5.027 0 0 0-8.234 0H1a.9.9 0 0 0-.737 1.47l2.505 3.013v2.069H1a.9.9 0 0 0-.741 1.469l2.505 3.014v2.069H.948A.9.9 0 0 0 .194 16.7l2.574 3.245v.464A1.628 1.628 0 0 0 4.4 22h6.515a1.739 1.739 0 0 0 .5-.072 1.606 1.606 0 0 0 1.168-1.472l2.974-3.756a.9.9 0 0 0-.754-1.453m-4.631-3.86a2.446 2.446 0 0 1-2.5 2.39 2.446 2.446 0 0 1-2.5-2.39 2.307 2.307 0 0 1 .433-1.344 2.564 2.564 0 0 1 4.133 0 2.307 2.307 0 0 1 .432 1.344m-5-6.551a2.447 2.447 0 0 1 2.5-2.39 2.446 2.446 0 0 1 2.5 2.39 2.446 2.446 0 0 1-2.5 2.39 2.447 2.447 0 0 1-2.5-2.39m2.5 15.582a2.447 2.447 0 0 1-2.5-2.39 2.31 2.31 0 0 1 .467-1.391 2.565 2.565 0 0 1 4.064 0 2.31 2.31 0 0 1 .467 1.391 2.446 2.446 0 0 1-2.5 2.39" style="fill:#a8a8a8"/>
    </g>
</svg>
