<svg xmlns="http://www.w3.org/2000/svg" width="20" height="20" viewBox="0 0 20 20">
    <g data-name="그룹 20549">
        <path data-name="사각형 13472" style="fill:none" d="M0 0h20v20H0z"/>
        <g data-name="그룹 20409">
            <path d="M4.781 1.063H.531A.535.535 0 0 1 0 .531.535.535 0 0 1 .531 0h4.25a.535.535 0 0 1 .531.531.535.535 0 0 1-.531.532z" transform="rotate(90 1.062 13.365)" style="fill:#4b4b4b"/>
            <path data-name="Vector" d="M3.365 1.063H.531A.535.535 0 0 1 0 .531.535.535 0 0 1 .531 0h2.834A.535.535 0 0 1 3.9.531a.535.535 0 0 1-.535.532z" transform="rotate(90 6.021 8.406)" style="fill:#4b4b4b"/>
            <path data-name="Vector" d="M3.01 6.021a3.01 3.01 0 1 1 3.01-3.01 3.017 3.017 0 0 1-3.01 3.01zm0-4.958A1.948 1.948 0 1 0 4.958 3.01 1.947 1.947 0 0 0 3.01 1.063z" transform="rotate(90 5.666 11.24)" style="fill:#4b4b4b"/>
            <path data-name="Vector" d="M3.365 1.063H.531A.535.535 0 0 1 0 .531.535.535 0 0 1 .531 0h2.834A.535.535 0 0 1 3.9.531a.535.535 0 0 1-.535.532z" transform="rotate(90 -3.542 10.177)" style="fill:#4b4b4b"/>
            <path data-name="Vector" d="M4.781 1.063H.531A.535.535 0 0 1 0 .531.535.535 0 0 1 .531 0h4.25a.535.535 0 0 1 .531.531.535.535 0 0 1-.531.532z" transform="rotate(90 2.125 4.51)" style="fill:#4b4b4b"/>
            <path data-name="Vector" d="M3.01 6.021a3.01 3.01 0 1 1 3.01-3.01 3.017 3.017 0 0 1-3.01 3.01zm0-4.958A1.948 1.948 0 1 0 4.958 3.01 1.947 1.947 0 0 0 3.01 1.063z" transform="rotate(90 .354 8.76)" style="fill:#4b4b4b"/>
        </g>
    </g>
</svg>
