<svg data-name="그룹 20569" xmlns="http://www.w3.org/2000/svg" width="60" height="60" viewBox="0 0 60 60">
    <defs>
        <clipPath id="ffqpdduj7a">
            <path data-name="사각형 13204" style="fill:#ffa52d" d="M0 0h49.709v37.526H0z"/>
        </clipPath>
    </defs>
    <path data-name="사각형 13489" style="fill:none" d="M0 0h60v60H0z"/>
    <g data-name="그룹 20521">
        <g data-name="그룹 20436" style="clip-path:url(#ffqpdduj7a)" transform="translate(5.146 11.237)">
            <path data-name="패스 22014" d="M7.2 33.012a.9.9 0 0 1-.9-.9V17.845H.9a.9.9 0 0 1-.595-1.583L18.632.222a.907.907 0 0 1 1.189 0L30.56 9.878a.9.9 0 0 1-.535 1.582h-.059a.9.9 0 0 1-.6-.223L19.227 2.1 3.3 16.038h24.592a.9.9 0 0 1 0 1.807H8.107v13.361h7.487V24.7a3.633 3.633 0 1 1 7.266 0 .9.9 0 1 1-1.805 0 1.827 1.827 0 1 0-3.654 0v6.5h3.654v-.418a.9.9 0 1 1 1.805 0v.418h7.488v-9.205a.9.9 0 1 1 1.806 0v10.113a.9.9 0 0 1-.9.9z" style="fill:#ffa52d"/>
            <path data-name="패스 22015" d="M100.623 43.961a.9.9 0 1 1 0-1.806h1.945v-7.306l-.156-.032A5.706 5.706 0 0 1 100 33.631l-.011-.009-.037-.023-.053-.014a3.955 3.955 0 0 1-.616.053 3.24 3.24 0 0 1-1.338-.29 3.513 3.513 0 0 1-1.868-2.066 3.821 3.821 0 0 1-.109-.368V30.9l-.016-.041-.034-.043a3.631 3.631 0 0 1-1.768-2.027 3.809 3.809 0 0 1 1.43-4.392l.1-.065-.012-.119a3.689 3.689 0 0 1 1.78-3.6l.115-.066-.018-.131a3.709 3.709 0 0 1 2.141-3.916 3.221 3.221 0 0 1 1.241-.25 3.015 3.015 0 0 1 .31.015.9.9 0 0 1-.091 1.8h-.082c-.045 0-.091-.007-.137-.007a1.419 1.419 0 0 0-.549.112 1.9 1.9 0 0 0-.945 2.4c.02.059.043.115.069.169a.9.9 0 0 1-.022.8.893.893 0 0 1-.646.47 1.477 1.477 0 0 0-.319.092 1.9 1.9 0 0 0-.952 2.383l.022.052a.9.9 0 0 1-.6 1.2 1.759 1.759 0 0 0-.18.06 1.9 1.9 0 0 0-.946 2.4A1.7 1.7 0 0 0 97 29.293a.9.9 0 0 1 .674.823 2.039 2.039 0 0 0 .113.563 1.726 1.726 0 0 0 .906 1.022 1.445 1.445 0 0 0 1.14.022.9.9 0 0 1 .978.2 3.556 3.556 0 0 0 5.323 0 .893.893 0 0 1 .639-.268.9.9 0 0 1 .341.068 1.442 1.442 0 0 0 1.139-.023 1.727 1.727 0 0 0 .907-1.023 2.054 2.054 0 0 0 .113-.562.9.9 0 0 1 .674-.823 1.7 1.7 0 0 0 1.143-1.106 1.9 1.9 0 0 0-.946-2.4 1.481 1.481 0 0 0-.181-.06.9.9 0 0 1-.568-.463.909.909 0 0 1-.038-.733l.023-.054a1.9 1.9 0 0 0-.951-2.383 1.519 1.519 0 0 0-.319-.093.9.9 0 0 1-.668-1.266 1.719 1.719 0 0 0 .069-.17 1.989 1.989 0 0 0-.453-2.073.9.9 0 0 1 .61-1.553h.045a.865.865 0 0 1 .6.253 3.755 3.755 0 0 1 1.088 3.221l-.018.131.115.066a3.688 3.688 0 0 1 1.779 3.6l-.012.119.1.065a3.812 3.812 0 0 1 1.43 4.392 3.551 3.551 0 0 1-1.721 2l-.013.007-.036.024-.034.043c-.048.173-.085.3-.129.42a3.512 3.512 0 0 1-1.868 2.068 3.226 3.226 0 0 1-1.9.241H107.037l-.053.014a5.9 5.9 0 0 1-2.458 1.218l-.155.032v7.306h1.946a.9.9 0 1 1 0 1.806z" transform="translate(-63.294 -10.95)" style="fill:#ffa52d"/>
            <path data-name="패스 22016" d="M131.687 47.423a.914.914 0 0 1-.3-.052.9.9 0 0 1-.55-1.153.972.972 0 0 0-.453-1.2.9.9 0 0 1 .693-1.668 2.773 2.773 0 0 1 1.464 3.469.906.906 0 0 1-.852.6" transform="translate(-87.472 -29.163)" style="fill:#ffa52d"/>
            <path data-name="패스 22017" d="M114.445 33.711a.9.9 0 0 1-.851-.6 2.772 2.772 0 0 1 1.463-3.469.9.9 0 1 1 .694 1.668.97.97 0 0 0-.454 1.2.906.906 0 0 1-.549 1.153.9.9 0 0 1-.3.052" transform="translate(-76.428 -19.925)" style="fill:#ffa52d"/>
            <path data-name="패스 22018" d="M65.442 84.022a.9.9 0 0 1-.9-.9v-.337a.9.9 0 0 1 1.806 0v.337a.9.9 0 0 1-.9.9" transform="translate(-43.485 -55.168)" style="fill:#ffa52d"/>
            <path data-name="패스 22019" d="M6.356 111.3a.9.9 0 0 1 0-1.806h19.632a.9.9 0 0 1 0 1.806z" transform="translate(-3.674 -73.775)" style="fill:#ffa52d"/>
            <path data-name="패스 22020" d="M77.309 111.3a.9.9 0 1 1 0-1.806h1.362a.9.9 0 1 1 0 1.806z" transform="translate(-51.48 -73.775)" style="fill:#ffa52d"/>
            <path data-name="패스 22021" d="M95.681 111.3a.9.9 0 1 1 0-1.806h15.213a.9.9 0 0 1 0 1.806z" transform="translate(-63.859 -73.775)" style="fill:#ffa52d"/>
        </g>
    </g>
</svg>
