<svg xmlns="http://www.w3.org/2000/svg" width="20" height="20" viewBox="0 0 20 20">
    <g data-name="그룹 20548">
        <path data-name="사각형 13471" style="fill:none" d="M0 0h20v20H0z"/>
        <g data-name="그룹 20408">
            <g data-name="vuesax/bold/textalign-left">
                <path d="M12.843 1.231H.514A.576.576 0 0 1 0 .616.576.576 0 0 1 .514 0h12.33a.576.576 0 0 1 .514.616.576.576 0 0 1-.515.615z" transform="translate(3.321 4.049)" style="fill:#4b4b4b"/>
                <path data-name="Vector" d="M8.273 1.231H.607A.616.616 0 0 1 .607 0h7.666a.616.616 0 0 1 0 1.231z" transform="translate(3.321 7.606)" style="fill:#4b4b4b"/>
                <path data-name="Vector" d="M12.843 1.231H.514A.576.576 0 0 1 0 .616.576.576 0 0 1 .514 0h12.33a.576.576 0 0 1 .514.616.576.576 0 0 1-.515.615z" transform="translate(3.321 11.163)" style="fill:#4b4b4b"/>
                <path data-name="Vector" d="M8.273 1.231H.607A.616.616 0 0 1 .607 0h7.666a.616.616 0 0 1 0 1.231z" transform="translate(3.321 14.721)" style="fill:#4b4b4b"/>
            </g>
        </g>
    </g>
</svg>
