<svg xmlns="http://www.w3.org/2000/svg" width="60" height="60" viewBox="0 0 60 60">
    <defs>
        <clipPath id="6b4f037tla">
            <path data-name="사각형 13202" style="fill:none" d="M0 0h54.709v38.949H0z"/>
        </clipPath>
    </defs>
    <g data-name="그룹 20566">
        <path data-name="사각형 13486" style="fill:none" d="M0 0h60v60H0z"/>
        <g data-name="그룹 20518">
            <g data-name="그룹 20432" style="clip-path:url(#6b4f037tla)" transform="translate(2.646 10.847)">
                <path data-name="패스 22000" d="M53.794 37.118H45.4V20.164a2.245 2.245 0 0 0-2.243-2.242h-4.884V2.906A2.909 2.909 0 0 0 35.368 0H22.435a2.909 2.909 0 0 0-2.905 2.906v34.212h-1.65V18.787a2.14 2.14 0 0 0-1.99-2.237v-4.027a.917.917 0 0 0-.916-.915h-1.7V4.055a.916.916 0 0 0-1.831 0v7.552h-1.7a.917.917 0 0 0-.916.915v4.028a2.141 2.141 0 0 0-1.99 2.237v18.331H.916a.916.916 0 0 0 0 1.831h52.878a.916.916 0 0 0 0-1.831M16.048 20.252H8.677v-1.465c0-.268.141-.4.183-.408h7c.043 0 .184.139.184.408zm0 3.607H8.677v-1.776h7.371zm0 13.259H8.677V25.69h7.371zm-1.99-20.569h-3.391v-3.11h3.391zm22.384 1.373h-2.9a2.245 2.245 0 0 0-2.242 2.242v16.954h-9.94V2.906a1.075 1.075 0 0 1 1.074-1.074h12.934a1.075 1.075 0 0 1 1.074 1.074zm7.13 19.2H33.133V20.164a.411.411 0 0 1 .411-.411h9.617a.411.411 0 0 1 .411.411z" style="fill:#58c0ca"/>
                <path data-name="패스 22001" d="M155.142 93.128h-5.87a.916.916 0 0 0 0 1.831h5.87a.916.916 0 0 0 0-1.831" transform="translate(-113.937 -71.522)" style="fill:#58c0ca"/>
                <path data-name="패스 22002" d="M155.142 106.651h-5.87a.916.916 0 0 0 0 1.831h5.87a.916.916 0 0 0 0-1.831" transform="translate(-113.937 -81.908)" style="fill:#58c0ca"/>
                <path data-name="패스 22003" d="M102.823 20.121h-3.15a.917.917 0 0 0-.916.916v5.324a.917.917 0 0 0 .916.915h3.15a.917.917 0 0 0 .916-.915v-5.324a.917.917 0 0 0-.916-.916m-.916 5.324h-1.319v-3.493h1.319z" transform="translate(-75.845 -15.453)" style="fill:#58c0ca"/>
                <path data-name="패스 22004" d="M102.823 59.644h-3.15a.917.917 0 0 0-.916.915v5.324a.917.917 0 0 0 .916.916h3.15a.917.917 0 0 0 .916-.916v-5.324a.917.917 0 0 0-.916-.915m-.916 5.324h-1.319v-3.493h1.319z" transform="translate(-75.845 -45.806)" style="fill:#58c0ca"/>
                <path data-name="패스 22005" d="M131.313 20.121h-3.151a.917.917 0 0 0-.916.916v5.324a.917.917 0 0 0 .916.915h3.151a.917.917 0 0 0 .915-.915v-5.324a.917.917 0 0 0-.915-.916m-.916 5.324h-1.319v-3.493h1.322z" transform="translate(-97.725 -15.453)" style="fill:#58c0ca"/>
            </g>
        </g>
    </g>
</svg>
