<svg xmlns="http://www.w3.org/2000/svg" width="60" height="60" viewBox="0 0 60 60">
    <defs>
        <clipPath id="ksgneyxyka">
            <path data-name="사각형 13200" style="fill:#948ae3" d="M0 0h47.042v39.96H0z"/>
        </clipPath>
    </defs>
    <g data-name="그룹 20567">
        <path data-name="사각형 13487" style="fill:none" d="M0 0h60v60H0z"/>
        <g data-name="그룹 20519">
            <g data-name="그룹 20430" style="clip-path:url(#ksgneyxyka)" transform="translate(6.479 9.698)">
                <path data-name="패스 21993" d="M103.1 5.419a.862.862 0 0 0-.557-.143q-.163.01-.326.024a13.151 13.151 0 0 0-3.408.731c-1.384.5-.212 1.966.578 1.7a12.887 12.887 0 0 1 2.892-.626q.172-.017.343-.03a.917.917 0 0 0 .878-.875v-.01a.947.947 0 0 0-.4-.771" transform="translate(-69.967 -3.759)" style="fill:#948ae3"/>
                <path data-name="패스 21994" d="M75.675 14.041a.863.863 0 0 0-.575-.007q-.156.048-.311.1a13.156 13.156 0 0 0-3.136 1.52c-1.225.817.261 1.96.965 1.51a12.894 12.894 0 0 1 2.66-1.3q.162-.057.326-.111a.917.917 0 0 0 .642-1.051v-.011a.947.947 0 0 0-.568-.655" transform="translate(-50.734 -9.97)" style="fill:#948ae3"/>
                <path data-name="패스 21995" d="M45.731 20.516a16.45 16.45 0 0 0 1.311-6.29c-.011-.183-.023-.536-.052-.888a12.447 12.447 0 0 0-3.623-7.9 12.754 12.754 0 0 0-5.655-3.373q-.2-.057-.4-.11a.908.908 0 0 0-1.133.735.959.959 0 0 0-.007.115.895.895 0 0 0 .713.891l.221.059a11.368 11.368 0 0 1 1.977.748 10.889 10.889 0 0 1 6.117 8.985c.019.229.03.467.039.64l.007.142a14.658 14.658 0 0 1-1.179 5.572c-.066.161-.136.327-.216.51a3.438 3.438 0 0 1-1.28-.607 51.428 51.428 0 0 1-2.027-1.837 77.458 77.458 0 0 0-.7-.651c-.249-.232-.5-.471-.747-.7l-.024-.023c-.4-.377-.847-.8-1.316-1.224a2.606 2.606 0 0 0-1.753-.769 2.185 2.185 0 0 0-1.116.306 2.618 2.618 0 0 0-1.2 2.389 2.314 2.314 0 0 0 .126.827l.075.215c.092.267.188.542.312.833a52.42 52.42 0 0 1-1.3-.122c-.6-.063-1.2-.145-1.79-.223h-.034a69.777 69.777 0 0 0-1.87-.231 9.408 9.408 0 0 0-.99-.047c-.3 0-.6.01-.895.022a2.373 2.373 0 0 0-2.262 1.883 2.721 2.721 0 0 0 .074 1.493 4.581 4.581 0 0 0-1.119.205 2.533 2.533 0 0 0-.344 4.672 2.58 2.58 0 0 0-.24 1.649 2.461 2.461 0 0 0 2.046 2.024 26.5 26.5 0 0 0 1.055.161 2.418 2.418 0 0 0-.036.475 2.357 2.357 0 0 0 1.8 2.267 4.348 4.348 0 0 0 1.1.154h.173c.636 0 1.245-.01 1.831-.03-1.3.876-2.622 1.764-3.939 2.62-1.015.66-2.145 1.257-3.24 1.836l-.31.164a.707.707 0 0 1-.342.094 1.067 1.067 0 0 1-.468-.131 78.147 78.147 0 0 1-6.487-3.647 40.945 40.945 0 0 1-9.504-7.935 23.448 23.448 0 0 1-4.475-7.471 13.16 13.16 0 0 1-.837-4.82 11.155 11.155 0 0 1 .902-4.144 10.523 10.523 0 0 1 .628-1.207 11.473 11.473 0 0 1 .756-1.1c.128.474.255.96.378 1.437.208.8.425 1.625.664 2.446.029.1.054.2.084.3a62.839 62.839 0 0 0 3.406 8.718 7.918 7.918 0 0 0 .706 1.212 2.4 2.4 0 0 0 1.956 1.057 2.446 2.446 0 0 0 .937-.191 2.57 2.57 0 0 0 .5-.276 4.481 4.481 0 0 0 1.209 1.429 2.407 2.407 0 0 0 1.464.494 2.472 2.472 0 0 0 2.016-1.05 2.371 2.371 0 0 0 1.506.535 2.691 2.691 0 0 0 1.353-.382 2.452 2.452 0 0 0 1.183-2.626 4.946 4.946 0 0 0-.279-.975 2.642 2.642 0 0 0 1.247-.5 2.487 2.487 0 0 0 .748-3.183 13.43 13.43 0 0 0-.852-1.564c-.381-.6-.774-1.2-1.154-1.779l-.026-.04c-.5-.757-1.006-1.538-1.492-2.312a4.129 4.129 0 0 0 3.181-1.342c1.032-1.37.471-3.44-2.385-4.061a17.55 17.55 0 0 1-5.658-2.091A10.782 10.782 0 0 1 13.129 1.2 5.14 5.14 0 0 0 9.678 0 6.693 6.693 0 0 0 3 6.21a12.573 12.573 0 0 0-3 7.907 14.958 14.958 0 0 0 .938 5.472 25.3 25.3 0 0 0 4.8 8.041 42.67 42.67 0 0 0 9.923 8.279q3.227 2.028 6.636 3.731a2.826 2.826 0 0 0 1.272.322 2.5 2.5 0 0 0 1.181-.3c1.248-.66 2.507-1.313 3.688-2.082 2.3-1.494 4.558-3.042 6.831-4.571 10.469-2.193 10.915-6.955 10.915-8.958a4.156 4.156 0 0 0-.839-2.663c.13-.288.257-.576.376-.868M5.421 4.022A4.8 4.8 0 0 1 8.64 1.784a5.571 5.571 0 0 1 1.293-.16 4.6 4.6 0 0 1 1.228.164 1.448 1.448 0 0 1 .871.61 7.667 7.667 0 0 0 4.024 3.109l.223.079c1.337.476 2.678.94 4.011 1.427a4.134 4.134 0 0 1 .9.482c.317.217.314.408.052.681a1.6 1.6 0 0 1-1.153.5c-.15 0-.3.005-.449.005h-.644c-.218 0-.436 0-.653.012a3.365 3.365 0 0 0-.837.164.812.812 0 0 0-.225.1.382.382 0 0 0-.111.115.452.452 0 0 0 .006.415 10.728 10.728 0 0 0 .8 1.7c.918 1.474 1.892 2.913 2.827 4.376a11.581 11.581 0 0 1 .737 1.355.715.715 0 0 1-.177.978.811.811 0 0 1-.474.172.759.759 0 0 1-.541-.253 16.21 16.21 0 0 1-1.283-1.492c-.886-1.136-1.749-2.29-2.628-3.432a5.565 5.565 0 0 0-.5-.548 3.522 3.522 0 0 0-.347-.271l-.1.063a3.5 3.5 0 0 0 .159.533c.762 1.6 1.524 3.2 2.305 4.8.488.993 1.017 1.966 1.51 2.956a2.875 2.875 0 0 1 .224.735.647.647 0 0 1-.319.735.928.928 0 0 1-.458.143.623.623 0 0 1-.442-.191 4.779 4.779 0 0 1-.713-.852c-.968-1.511-1.9-3.042-2.877-4.548-.43-.664-.922-1.287-1.393-1.924a2.775 2.775 0 0 0-.311-.309l-.1.051a5.32 5.32 0 0 0 .2.747q.784 1.859 1.6 3.705c.317.725.67 1.436.968 2.169a2.95 2.95 0 0 1 .211 1 .658.658 0 0 1-.661.671.628.628 0 0 1-.382-.13 2.682 2.682 0 0 1-.668-.77c-.531-.9-1.022-1.833-1.533-2.75q-1.023-1.838-2.056-3.671a3.383 3.383 0 0 0-.282-.373l-.1.033a2.726 2.726 0 0 0 .04.629c.328 1.095.682 2.182 1.018 3.275.159.518.33 1.035.438 1.564a.535.535 0 0 1-.337.68.66.66 0 0 1-.252.055.6.6 0 0 1-.495-.3 6.108 6.108 0 0 1-.545-.937 65.167 65.167 0 0 1-2.792-6.849 50.04 50.04 0 0 1-.519-1.62c-.407-1.361-.737-2.745-1.109-4.117q-.269-.995-.562-1.983a1.53 1.53 0 0 1 .163-1.264m39.055 21.548a8.1 8.1 0 0 1-2.822 3.355 12.817 12.817 0 0 1-5.237 2.19 35.5 35.5 0 0 1-6.838.572h-.17a2.615 2.615 0 0 1-.648-.1.57.57 0 0 1-.465-.574.559.559 0 0 1 .459-.579c.587-.122 1.181-.207 1.774-.3 1.045-.162 2.092-.309 3.135-.484a3.418 3.418 0 0 0 .667-.26l-.016-.113a3.84 3.84 0 0 0-.51-.093c-2.087-.105-4.176-.194-6.262-.311a15.765 15.765 0 0 1-1.757-.223.661.661 0 0 1-.58-.56.641.641 0 0 1 .468-.8 8.049 8.049 0 0 1 1.521-.229c1.154-.051 2.31-.037 3.464-.082.838-.032 1.675-.111 2.512-.181a3.681 3.681 0 0 0 .541-.126l.009-.106a4.44 4.44 0 0 0-.657-.2 420.82 420.82 0 0 0-4.989-.684c-1.012-.132-2.029-.225-3.041-.354a1.955 1.955 0 0 1-.59-.2.676.676 0 0 1-.367-.716.64.64 0 0 1 .469-.62 2.7 2.7 0 0 1 .77-.132h.016c1.556.014 3.112.067 4.667.07h.118c1.334 0 2.669-.042 4-.07a2.752 2.752 0 0 0 .437-.078l.021-.119a3.24 3.24 0 0 0-.559-.237 412.245 412.245 0 0 0-3.971-.854c-.756-.16-1.517-.3-2.269-.472a2.313 2.313 0 0 1-.694-.324.71.71 0 0 1-.263-.818.585.585 0 0 1 .581-.471 20.5 20.5 0 0 1 .823-.021 7.6 7.6 0 0 1 .8.038c1.233.13 2.46.327 3.693.459.967.1 1.939.189 2.91.207h.084a1.348 1.348 0 0 0 .729-.144.421.421 0 0 0 .186-.294 1.7 1.7 0 0 0-.145-.8c-.161-.446-.419-.855-.611-1.291-.141-.321-.249-.657-.366-.989a.573.573 0 0 1-.024-.2c.005-.329.011-.694.317-.873a.414.414 0 0 1 .211-.06.976.976 0 0 1 .575.327c.7.623 1.362 1.279 2.048 1.915.922.856 1.826 1.734 2.787 2.544a5.321 5.321 0 0 0 2.078 1 1.664 1.664 0 0 1 1.138 1.072 3 3 0 0 1-.16 2.391" style="fill:#948ae3"/>
            </g>
        </g>
    </g>
</svg>
