<svg data-name="그룹 20486" xmlns="http://www.w3.org/2000/svg" width="22" height="22.036" viewBox="0 0 22 22.036">
    <defs>
        <clipPath id="5c5lcqo7ga">
            <path data-name="사각형 13431" style="fill:#a8a8a8" d="M0 0h22v22.036H0z"/>
        </clipPath>
    </defs>
    <g data-name="그룹 20485" style="clip-path:url(#5c5lcqo7ga)">
        <path data-name="패스 39663" d="M15.094 19.294H6.92c-.219.8.276 1.8-.6 2.422a3.4 3.4 0 0 1-2.217.265c-1-.02-1.2-.455-1.387-2.7-1.125-.188-1.363-.967-1.343-2 .039-2.069.012-4.138.012-6.241-.147-.024-.27-.049-.4-.063a.979.979 0 0 1-.967-1q-.037-1.708 0-3.418c.015-.687.334-.93 1.363-1.123 0-.482.04-.977-.008-1.463a2.233 2.233 0 0 1 1.261-2.23A11.087 11.087 0 0 1 6.706.374 23.9 23.9 0 0 1 16.7.7a13.872 13.872 0 0 1 2.865 1.2 1.94 1.94 0 0 1 1.066 1.986c-.039.508-.007 1.022-.007 1.573.148.022.271.039.394.06a1.032 1.032 0 0 1 .974 1.124c.015.987.006 1.975 0 2.963 0 1.028-.257 1.309-1.344 1.412-.009.19-.026.39-.027.59v6.1c0 1.134-.221 1.4-1.333 1.606-.137.788.223 1.708-.528 2.351-.635.543-1.416.3-2.14.333a1.234 1.234 0 0 1-1.372-.883 10.488 10.488 0 0 1-.157-1.815M10.3 5.5c-1.647 0-3.239-.023-4.831.01a1.369 1.369 0 0 0-1.35 1.464c-.011 1.29-.008 2.58 0 3.87A1.422 1.422 0 0 0 5.677 12.4c.721.009 1.442 0 2.163 0h2.46zm1.419 6.9c1.645 0 3.218.02 4.792-.008a1.365 1.365 0 0 0 1.377-1.438q.022-2.02 0-4.041a1.34 1.34 0 0 0-1.3-1.4c-1.609-.038-3.219-.012-4.869-.012zm-.664-9.65c-1.177 0-2.355.016-3.531-.007-.494-.01-.676.173-.673.666 0 .472.085.747.652.742q3.5-.032 7.006 0c.516 0 .642-.223.646-.692 0-.5-.14-.729-.682-.716-1.139.029-2.278.009-3.418.009M4.8 14.448a1.382 1.382 0 0 0-1.37 1.373 1.426 1.426 0 0 0 1.37 1.384 1.4 1.4 0 0 0 1.4-1.416 1.37 1.37 0 0 0-1.4-1.341m11.01 1.394a1.4 1.4 0 0 0 1.39 1.364 1.423 1.423 0 0 0 1.376-1.437 1.383 1.383 0 0 0-1.421-1.321 1.37 1.37 0 0 0-1.341 1.4" style="fill:#a8a8a8"/>
    </g>
</svg>
