<svg xmlns="http://www.w3.org/2000/svg" width="60" height="60" viewBox="0 0 60 60">
    <defs>
        <clipPath id="jyxoagv8xa">
            <path data-name="사각형 13349" style="fill:#a1a0a5" d="M0 0h52.043v42.048H0z"/>
        </clipPath>
    </defs>
    <g data-name="그룹 20557">
        <path data-name="사각형 13476" style="fill:none" d="M0 0h60v60H0z"/>
        <g data-name="그룹 16680">
            <g data-name="그룹 16679" transform="translate(3.979 8.977)" style="clip-path:url(#jyxoagv8xa)">
                <path data-name="패스 16065" d="m3.441 36.821 4.675-3.946 11.57 5.816a12.148 12.148 0 0 0 10.031-.311l20.676-10.46a3.12 3.12 0 0 0 1.178-4.44 3.344 3.344 0 0 0-4.281-1.465l-18.1 8.8a10.072 10.072 0 0 1-8.273.142l-2.8-1.164a2.518 2.518 0 0 1-1.55-2.293 2.108 2.108 0 0 1 2.987-1.951l2.713 1.126a6.8 6.8 0 0 0 5.664-.132 2.174 2.174 0 0 0-.073-3.791L23.3 20a9.209 9.209 0 0 0-8.093-.806l-7.092 2.742-6.109-.462A1.846 1.846 0 0 0 0 23.354v11.684a2.159 2.159 0 0 0 3.441 1.784" transform="translate(0 2.424)" style="fill:#a1a0a5"/>
                <path data-name="패스 16066" d="M28.587 21.068c-1.907-.814-9.791-4.5-11.9-10.568-1.1-3.161-.9-6.03.558-8.077A5.547 5.547 0 0 1 21.7 0a5.32 5.32 0 0 1 4.154 1.759l-1.341 1.887a2.166 2.166 0 1 0 3.544 2.491 83.993 83.993 0 0 1 2.559-3.522A5.708 5.708 0 0 1 35.468 0a5.552 5.552 0 0 1 4.457 2.422c1.456 2.048 1.656 4.917.558 8.078-2.1 6.067-9.991 9.754-11.9 10.568" transform="translate(2.083)" style="fill:#a1a0a5"/>
            </g>
        </g>
    </g>
</svg>
