<svg xmlns="http://www.w3.org/2000/svg" width="49.153" height="42.778" viewBox="0 0 49.153 42.778">
    <defs>
        <clipPath id="26uhv0xcva">
            <path data-name="사각형 13411" style="fill:none" d="M0 0h49.153v42.778H0z"/>
        </clipPath>
    </defs>
    <g data-name="그룹 20468">
        <g data-name="그룹 20467" style="clip-path:url(#26uhv0xcva)">
            <path data-name="패스 21942" d="M7.777 39.284H5.069A2.468 2.468 0 0 1 2.6 36.815v-7.6h7.646v7.6a2.468 2.468 0 0 1-2.469 2.469" transform="translate(.311 3.494)" style="fill:#a1a0a5"/>
            <path data-name="패스 21943" d="M39.526 39.158h-2.461a2.593 2.593 0 0 1-2.593-2.593v-6.3h7.647v6.3a2.593 2.593 0 0 1-2.593 2.593" transform="translate(4.123 3.619)" style="fill:#a1a0a5"/>
            <path data-name="패스 21944" d="M9.28 13.548h30.594a9.28 9.28 0 0 1 9.279 9.28V32.4a2.408 2.408 0 0 1-2.407 2.407H2.408A2.408 2.408 0 0 1 0 32.4v-9.572a9.28 9.28 0 0 1 9.28-9.28" transform="translate(0 1.62)" style="fill:#a1a0a5"/>
            <path data-name="패스 21945" d="M42.922 22.142H5.027V11.688A11.7 11.7 0 0 1 16.715 0h14.52a11.7 11.7 0 0 1 11.687 11.688zM9.505 17.664h28.939v-5.976a7.217 7.217 0 0 0-7.209-7.209h-14.52a7.217 7.217 0 0 0-7.209 7.209z" transform="translate(.601)" style="fill:#a1a0a5"/>
            <path data-name="패스 21946" d="M11.376 24.581a3.311 3.311 0 1 1-3.312-3.312 3.311 3.311 0 0 1 3.312 3.312" transform="translate(.569 2.543)" style="fill:#1f1f2a"/>
            <path data-name="패스 21947" d="M39.856 24.581a3.311 3.311 0 1 1-3.312-3.312 3.311 3.311 0 0 1 3.312 3.312" transform="translate(3.975 2.543)" style="fill:#1f1f2a"/>
            <path data-name="패스 21948" d="M29.143 27.891H16.757a3.154 3.154 0 0 1-3.157-3.153v-.316a3.154 3.154 0 0 1 3.155-3.153h12.388a3.153 3.153 0 0 1 3.157 3.153v.316a3.153 3.153 0 0 1-3.153 3.154" transform="translate(1.627 2.543)" style="fill:#1f1f2a"/>
        </g>
    </g>
</svg>
