<svg xmlns="http://www.w3.org/2000/svg" width="21" height="20.493" viewBox="0 0 21 20.493">
    <defs>
        <clipPath id="rg8le2d3oa">
            <path data-name="사각형 13427" style="fill:#a8a8a8" d="M0 0h21v20.493H0z"/>
        </clipPath>
    </defs>
    <g data-name="그룹 20480">
        <g data-name="그룹 20479" style="clip-path:url(#rg8le2d3oa)">
            <path data-name="패스 39659" d="M0 20.493v-1.56h2.244V1.6A1.532 1.532 0 0 1 3.694 0h6.764A1.522 1.522 0 0 1 12 1.509V8.737c.049 0 .092.006.136.006h2.084a1.514 1.514 0 0 1 1.516 1.357 1.577 1.577 0 0 1 .013.239v4.65a.779.779 0 0 0 .665.8.751.751 0 0 0 .821-.647.929.929 0 0 0 .011-.162V8.054c-.166-.025-.326-.038-.481-.073A2.324 2.324 0 0 1 15 5.685V4.541a.386.386 0 0 1 .34-.423.345.345 0 0 1 .061 0h.344v-1.57a.768.768 0 0 1 .751-.784.759.759 0 0 1 .735.629.938.938 0 0 1 .015.184v1.532h1.492v-1.56a.75.75 0 0 1 1.492-.135 1.1 1.1 0 0 1 .01.184v1.52h.314a.382.382 0 0 1 .446.328.414.414 0 0 1 0 .122v1.067a2.306 2.306 0 0 1-2.164 2.4l-.086.007v6.8a2.486 2.486 0 0 1-.982 2.1 2.187 2.187 0 0 1-3.126-.6 2.409 2.409 0 0 1-.355-.881 2.957 2.957 0 0 1-.042-.5q-.005-2.253 0-4.506v-.137h-2.239v8.6h8.987v1.566zM3.751 5.48h6.737V2.36H3.751zm3 7.967-.031.133q-.348 1.382-.7 2.764c-.019.073-.031.142.034.2s.16.043.241-.058L9.66 12.3a.254.254 0 0 0 .063-.289.237.237 0 0 0-.252-.132H7.5c.011-.051.016-.082.024-.115l.32-1.261c.131-.52.261-1.04.393-1.555a.146.146 0 0 0-.061-.178.135.135 0 0 0-.188.031c-.019.021-.036.044-.055.066q-1.673 2.08-3.346 4.156a.244.244 0 0 0-.033.333.222.222 0 0 0 .214.084h1.975" style="fill:#a8a8a8"/>
        </g>
    </g>
</svg>
