<svg xmlns="http://www.w3.org/2000/svg" width="60" height="60" viewBox="0 0 60 60">
    <g data-name="그룹 20562">
        <path data-name="사각형 13483" style="fill:none" d="M0 0h60v60H0z"/>
        <g data-name="그룹 20563">
            <path data-name="패스 39674" d="M-2588.283 650.812a9.721 9.721 0 0 1-9.711-9.71 9.722 9.722 0 0 1 9.711-9.711 9.721 9.721 0 0 1 9.71 9.711 9.721 9.721 0 0 1-9.71 9.71zm0-16.421a6.719 6.719 0 0 0-6.711 6.711 6.718 6.718 0 0 0 6.711 6.71 6.717 6.717 0 0 0 6.71-6.71 6.718 6.718 0 0 0-6.71-6.711z" style="fill:#a1a0a5" transform="translate(2618.284 -623.41)"/>
            <g data-name="그룹 20562">
                <path data-name="패스 39675" d="M-2571.657 641.1h-33.253a4.515 4.515 0 0 0-4.515 4.515v6.293a2.709 2.709 0 0 0 2.709 2.709h8.413v-3.247a1.809 1.809 0 0 1 1.81-1.809 1.809 1.809 0 0 1 1.809 1.809v3.248h12.8v-3.248a1.809 1.809 0 0 1 1.809-1.809 1.809 1.809 0 0 1 1.809 1.809v3.248h8.413a2.709 2.709 0 0 0 2.709-2.709v-6.293a4.515 4.515 0 0 0-4.513-4.516z" style="fill:#a1a0a5" transform="translate(2618.284 -623.41)"/>
                <path data-name="패스 39676" d="M-2580.073 663.55a1.81 1.81 0 0 1-1.809-1.81v-3.827h-12.8v3.827a1.81 1.81 0 0 1-1.809 1.81 1.81 1.81 0 0 1-1.81-1.81v-3.827h-6.817a2.709 2.709 0 0 0-2.71 2.709v7.584a7.225 7.225 0 0 0 7.225 7.224h24.643a7.224 7.224 0 0 0 7.225-7.224v-7.584a2.709 2.709 0 0 0-2.709-2.709h-6.818v3.827a1.81 1.81 0 0 1-1.811 1.81z" style="fill:#a1a0a5" transform="translate(2618.284 -623.41)"/>
            </g>
        </g>
    </g>
</svg>
