<svg xmlns="http://www.w3.org/2000/svg" width="1215.573" height="769.418" viewBox="0 0 1215.573 769.418">
    <g data-name="그룹 17835" transform="translate(.522 .586)">
        <g data-name="그룹 16274">
            <path data-name="패스 18442" d="m4453.108-126.716-18.392 1.221s-33.1 18.338-34.329 22.005-35.55 8.557-35.55 8.557l-16.756 4.484-32.694-16.843-70.836-35.859-8.451-141.266 77.241-22 62.565 52.182-13.527 12.61s-1.226 3.26 1.634 4.076 12.26 6.112 12.26 6.112 21.66 11.818 33.919 11.818 25.747 2.444 29.424 4.89 6.131 14.67 6.131 14.67-13.485 15.892-6.131 26.894 18.397 33.002 13.492 46.449z" transform="translate(-3595.447 576.515)" style="stroke-linejoin:round;stroke-linecap:round;fill:#b1b1b1;stroke:#6d6d6d"/>
            <g data-name="그룹 16273">
                <path data-name="패스 18443" d="M3940.594-332.239c-18.29 17.52-1.331 17.822-4.715 26.583s-36.962 6.726-53.882 11.1c-16.958 4.377-41 15.48-41.333 18.5s-22.586 14.122-22.359 18.5c0 0-2.4-22.313-17.759-2.341s-17.378-2.455-17.378-2.455c-6.54-31.19-31.637-20.881-39.546-18.843-7.909 2-4.524 11.215-14.906 10.082a66.239 66.239 0 0 0-18.291.453c-14.146 2.983-22.967 2.3-28.405.534l14.868-51.014a16.762 16.762 0 0 1-.684-8.533c.874-4.23-4.981-27.565-10.837-34.286-5.894-6.759-8.821-10.12-12.434-18.2s-4.526-20.164-3.844-23.977a9.755 9.755 0 0 0-1.372-6.764c-7.225-12.989 5.21-22.429 5.21-22.429s7.909-6.5 9.929-14.8c2.052-8.271-6.312-19.069-10.837-21.524s-9.928-8.533-11.75-10.535c-1.787-2.038-16.5-13.253-21.9-18.389-5.437-5.173.229-6.305.229-6.305a73.877 73.877 0 0 0 13.309-4.871c5.933-3.021 19.85-4.04 19.85-4.04s23.195-.831 24.907 3.889c1.673 4.681-1.559 11.781 13.879 6.381 15.4-5.4 26.276 4.042 26.922 7.591.684 3.512 2.053 4.343 7.985 8.572 5.933 4.191.685 6.229.685 6.229s-6.464 18.993 7.794 14.613c14.22-4.377 9.468-16.463 36.58-12.762 0 0 1.673.982 12.548-7.1 10.837-8.043 13.879 12.121 22.359 13.48s8.556-5.74 8.556-5.74c2.966-.868 4.3-5.588-.19-6.04-4.525-.454-6.806-4.27-9.5-14.122-2.7-9.892 4.981-8.081 14.907-14.122 9.929-6.079 37.721 10.761 45.4 14.576s4.754 5.135 10.837.227c6.123-4.947 12.929.943 20.116 2.455 4.377.906 7.188.492 9.013-.566 9.429 26.583 17.757 58.641 13.344 80.2-7.187 35.116 7.26 49.654 12.853 53.806a10.847 10.847 0 0 0 1.174.792 5.83 5.83 0 0 0 .534.339l.343.227s6.114 13.145-12.209 30.629z" transform="translate(-3636.008 562.335)" style="stroke-linejoin:round;stroke-linecap:round;fill:#b1b1b1;stroke:#6d6d6d"/>
                <path data-name="패스 18444" d="M3871.593-160.228a.134.134 0 0 1-.039.076l-.076.076a19.48 19.48 0 0 0-5.018 6.646q-.97 1.247-2.055 2.719l-2.32 3.02-2.47 3.248-2.966 3.852c-2.129 2.794-4.336 5.739-6.619 8.684l-2.357 3.022a22.771 22.771 0 0 0-4.785 2.152s-45.212 43.726-53.767 49.805c-8.594 6.04-45.174 14.348-51.3 8.61-6.085-5.7 1.027-3.021 5.1-10.422s-12.017-33.077-15.587-41.385c-11.521-26.583 32.512-41.724 32.512-41.724 8.137-3.021 1.369-8.761 1.369-8.761s-13.537-24.2-29.127-13.1-22.055 5.361-22.055 5.361l-2.357-5.7s-3.726-2.681-4.411 1.359-7.794 11.1-17.606 12.763c-9.848 1.7-12.891 6.079-15.249.339-2.358-5.7 8.138-7.061 8.138-7.061 23.38-12.8 8.48-37.006 5.4-43.726-3.042-6.759 9.164-9.44 9.164-9.44s13.878-18.162 11.521-23.221c-2.357-5.018 2.7-9.743 2.7-9.743-2.014-6.726-9.81-3.02-17.947-1.359-8.138 1.7-1.027 4.377-7.454 14.8-6.426 10.462-13.574 4.039-13.574 4.039l11.483-39.5c5.438 1.774 14.26 2.456 28.405-.534a66.243 66.243 0 0 1 18.291-.453c10.381 1.133 7-8.081 14.906-10.082 7.908-2.038 33.005-12.347 39.545 18.843 0 0 2.016 22.429 17.379 2.456s17.758 2.341 17.758 2.341c.189 4.419 6.426 6.08-1.027 19.522-7.453 13.479 2.357 22.542 2.357 22.542s20 8.081 24.413 16.5 40.485 1.894 29.725 53.436z" transform="translate(-3633.821 577.008)" style="stroke-linejoin:round;stroke-linecap:round;fill:#b1b1b1;stroke:#6d6d6d"/>
                <path data-name="패스 18445" d="M4370.965-95.621c-7.909 10.309-9.24 76.766-4.981 81.222 2.358 2.455 0 8.27-1.672 8.27-1.71 0-13.578-3.361-9.5 3.059 4.069 6.382 22.018 45.085 8.137 40.705s-32.207 3.02-46.086-2.719c-13.878-5.7-15.248 3.059-15.248 3.059s-5.438 7.061-10.5 3.7c-5.1-3.361-17.643-1.359-23.38-1.7-5.78-.341-2.357 2.038-6.086 7.741-3.764 5.739.99 10.761.99 10.761-14.222 5.4-34.755-2.115-36.237-6.726s-3.726-12.12-11.522-6.381c-7.793 5.7-23.5 4.984-25.1-.341-1.672-5.739-14.9-1.174-16.769-9.929-.608-2.757-1.56-4-2.624-4.377 6.769-9.024 16.694-18.087 30.915-22.278 33.462-9.856-.875-49.315 30.724-60.982 31.637-11.668 21.712 30.51 45.174 1.774 23.5-28.7 41.563-26.017 56.925-42.177 8.175-8.571 23.766-6.759 37.379-3.437a8.418 8.418 0 0 1-.539.756z" transform="translate(-3599.89 590.525)" style="stroke-linejoin:round;stroke-linecap:round;fill:#b1b1b1;stroke:#6d6d6d"/>
                <path data-name="패스 18446" d="M4037.628-27.393c-18.975 32.323-46.086 43.954-40.687 59.207 5.438 15.255-27.987 20.655-29.812 42.178-1.673 19.975 49.471 10.233 28.825 106.86-10.95-.037-18.746-.076-18.746-.076s-13.233 3.7-12.891-14.462-14.335-18.729-14.335-18.729-91.716.905-84.72-5.627c7-6.5 6.769-15.028 1.6-12.309-5.21 2.681-5.666-2.944-5.666-2.944-4.754-13.216 15.587-33.416 21.484-40.366 5.856-6.948-.913-10.308-.913-10.308a64.538 64.538 0 0 1-11.294-9.213c-4.525-4.947 2.242-8.95 2.242-8.95s4.07-6.306-11.744-7.628c-15.82-1.359-43.344-36.816-43.344-36.816s-13.8-7.628.229-12.989c13.994-5.4 2.473-51.164 2.473-51.164a108.031 108.031 0 0 0-5.439-10.762c-2.242-3.586-1.787-18.389-1.787-18.389 2.242-17.935 26.049-39.421 42.018-49.578 18.861-12.007 8.9-11.1 8.9-11.1s.456-.982-8.48-.416c30.99-14.2 101.908-24.015 134.077-25.148 2.738 3.21 53.236 62.077 46.2 80.429-7.225 18.842-36.084 1.246-27.988 19.711 8.048 18.501 48.77 6.305 29.798 38.589z" transform="translate(-3624.142 585.998)" style="stroke-linejoin:round;stroke-linecap:round;fill:#b1b1b1;stroke:#6d6d6d"/>
                <path data-name="패스 18447" d="M4289.7-389.624c-30.838 4.343-42.131 20.806-61.64 17.068-19.355-3.737-31.066-2.832-35.06-2.264-2.7-8.195-13.841-15.783-54.642-41.956-26.2-16.8-42.7-35.57-52.892-51.244 1.634-.944 3.46-2.341 4.106-4.153 1.369-3.587-6.541-24.661 55.593-17.256.19 0 4.639-.226 18.975-18.842 0 0 47.417-24.243 62.775 52.032 0 0 .456 28.472 16.732 34.211 4.792 1.661 12.054.453 20.99-1.7 8.936-2.115 12.205 17.52 20.343 28.281.008.009 1.756 2.047 4.72 5.823z" transform="translate(-3605.629 562.625)" style="stroke-linejoin:round;stroke-linecap:round;fill:#b1b1b1;stroke:#6d6d6d"/>
                <path data-name="패스 18448" d="M4274.58-270.606c-9.469 3.361-3.385 15.256-3.385 15.256 4.981 12.083-1.368 39.459-10.835 43.046-9.507 3.586-1.826 16.614-1.826 16.614s-6.352 27.489 2.7 39.2c-2.776 4.27-4.868 8.76-5.4 13.065-1.938 16.349-35.9 6.04-37.872 5.437a107.906 107.906 0 0 0 18.9-20.24c11.179-15.142 3.726-17.822 3.726-17.822-18.974-14.161-23.807-2.946-35.363 8.155-11.521 11.138-11.713-12.536-11.713-12.536 25.287-70.007 4.484-78.956-14.488-78.087-10.114.49-12.776-2.341-13.194-5.891-.379-3.133.988-6.833.571-9.326-.913-5.4 12.624-9.893 7.225-35-5.438-25.148 13.536-43.084 14.45-61.019.266-5.475.722-9.213-.5-12.8 3.995-.567 15.7-1.473 35.061 2.265 19.506 3.737 30.8-12.725 61.639-17.068l26.329 44.933 35.147 51.345-2.729 26.619-11.623 4.06-25.981-6.245-13.077 4.89z" transform="translate(-3600.202 570.368)" style="stroke-linejoin:round;stroke-linecap:round;fill:#b1b1b1;stroke:#6d6d6d"/>
                <path data-name="패스 18449" d="m4143.266 51.882-1.75.3c-8.821 40.366-69.473 124.154-72.169 126.189-2.7 2-11.521 5.018-13.878 4.04-1.673-.718-44-1.1-69.359-1.281 20.647-96.628-30.5-86.886-28.824-106.86 1.825-21.523 35.249-26.924 29.811-42.177-5.4-15.255 21.712-26.884 40.688-59.207 18.974-32.284-21.751-20.088-29.813-38.59-8.1-18.469 20.762-.869 27.988-19.711 7.034-18.352-43.463-77.219-46.2-80.429a79.026 79.026 0 0 1 13.689.339c12.623 2.078 30.458-.831 42.322-4.795l1.026.756s25.78 15.48 27.117 25.563c1.369 10.081-15.587 7.4-4.07 23.563s29.167 64.871 55.593 77.369c14.108 6.683 17.949 16.236 18.48 23.637a26.792 26.792 0 0 1-1.56 11.366s4.71 34.213 10.909 59.928z" transform="translate(-3614.296 585.716)" style="stroke-linejoin:round;stroke-linecap:round;fill:#b1b1b1;stroke:#6d6d6d"/>
                <path data-name="패스 18450" d="M4374.817-91.469c-13.612-3.322-29.2-5.134-37.379 3.437-15.362 16.161-33.423 13.479-56.924 42.178-23.462 28.735-13.537-13.442-45.174-1.774-31.6 11.667 2.739 51.126-30.724 60.982-14.22 4.191-24.146 13.254-30.915 22.278-2.281-.906-4.98 2.19-4.98 2.19-9.011 8.384-30.345 12.952-36.543 14.161-6.2-25.715-10.913-59.925-10.913-59.925a26.8 26.8 0 0 0 1.559-11.366l.951-.528s26.2-19.3 20.305-63.7c-5.856-44.406 38.406-99.159 40.687-78.5 2.242 20.617 2.282 20.541 16.122 18.5 6.768-.982 13.575-4.568 20.077-9.7 1.977.6 35.933 10.912 37.872-5.437.533-4.306 2.623-8.8 5.4-13.065a13.944 13.944 0 0 0 3.193 2.983c13.538 8.95 18.177 13.1 21.75 18.653 5.857 9.176 18.79 1.851 23.69-.151 4.942-2.039 11.863 2.076 11.863 2.076 15.172-1.245 13.729 12.2 12.891 15.143s2.282 9.929 9.128 17.257c6.881 7.326 12.623 1.51 12.623 1.51 12.781-6.125 22.363 12.339 15.441 22.798z" transform="translate(-3603.21 585.618)" style="stroke-linejoin:round;stroke-linecap:round;fill:#b1b1b1;stroke:#6d6d6d"/>
                <path data-name="패스 18451" d="M4245.981-165.673a107.99 107.99 0 0 1-18.9 20.24c-6.5 5.135-13.31 8.722-20.077 9.7-13.841 2.039-13.878 2.115-16.121-18.5-2.282-20.655-46.547 34.1-40.687 78.5 5.894 44.405-20.306 63.7-20.306 63.7l-.95.528c-.534-7.4-4.377-16.954-18.48-23.637-26.427-12.5-44.072-61.208-55.594-77.369s5.439-13.482 4.069-23.562c-1.332-10.082-27.117-25.563-27.117-25.563l-1.027-.756c7.073-2.341 12.054-5.06 12.548-7.326 1.369-6.04 10.876-12.12 10.876-12.12s25.743-10.081 37.949-29.6c12.171-19.522-.684-11.441-6.123-30.96a30.862 30.862 0 0 1-.913-4.757 44.757 44.757 0 0 1-.283-5.765 90.278 90.278 0 0 1 2.641-19c.494-2.265 1.068-4.492 1.673-6.726l1.025-3.512.875-3.02.646-2.115c2.2 1.889 20.952 17.295 34.564 16.426 14.3-.906 18.443-17.143 48.673-.982.418 3.55 3.081 6.382 13.194 5.891 18.974-.869 39.775 8.081 14.488 78.087 0 0 .19 23.674 11.713 12.536 11.56-11.1 16.389-22.313 35.364-8.155.006-.003 7.458 2.676-3.72 17.817z" transform="translate(-3609.324 577.808)" style="stroke-linejoin:round;stroke-linecap:round;fill:#b1b1b1;stroke:#6d6d6d"/>
                <path data-name="패스 18452" d="M4100.636-256.255c-2.016 8.647-3.233 17.37-2.358 24.768a30.922 30.922 0 0 0 .913 4.757c5.439 19.522 18.292 11.441 6.123 30.96-12.207 19.528-37.949 29.61-37.949 29.61s-9.507 6.08-10.876 12.12c-.495 2.265-5.475 4.985-12.549 7.326-11.863 3.965-29.7 6.872-42.321 4.795a79.134 79.134 0 0 0-13.689-.339c-32.171 1.133-103.088 10.95-134.078 25.148h-.036c-1.1.076-2.357.189-3.765.3a56.227 56.227 0 0 0-13.652 2.758c-.038 0-.076 0-.076.037l2.357-3.021c2.281-2.945 4.484-5.89 6.619-8.684l2.965-3.852 2.471-3.248 2.32-3.02 1.94-2.492.114-.226c2.813-3.7 4.677-6.192 5.017-6.646l.076-.076a.131.131 0 0 0 .04-.076c4.714-4.229 13.194-9.137 28.214-10.684 28.215-2.944 37.948-12.121 37.948-12.121 69.093-86.13 40.462-85.979 40.462-85.979s-22.853-25.409-4.22-38.7 14.412-24.732 14.412-24.732c-4.26-26.394-37.793-45.085-37.793-45.085l-.343-.227c-.113-.076-.3-.189-.533-.34a10.762 10.762 0 0 1-1.175-.792c-5.59-4.155-20.04-18.692-12.852-53.807 4.411-21.565-3.917-53.62-13.345-80.2 4.377-2.492 2.851-8.647 2.851-8.647 1.175-6.42 55.408-11.328 69.511-12.5-1.067 10.8-1.331 24.09 3.346 26.658 8.138 4.456 9.929-7.628 16.694 0 6.806 7.628-5.857 6.269-1.332 12.537 4.524 6.305 19.85 12.573 24.83 19.295a8.065 8.065 0 0 0 3.575 2.568 10.26 10.26 0 0 0 1.634.6 29.905 29.905 0 0 0 3.844.944 18.092 18.092 0 0 0 2.167.341c2.966.49 6.274.829 9.7 1.246 1.708.226 3.46.49 5.171.755.874.151 1.749.3 2.624.491l2.623.566c.837.226 1.708.453 2.547.679l-.456 1.246s-5.4 18.843-15.78 33.644c-10.418 14.8-8.137 8.533-9.962 26.017-1.788 17.483-9.929 14.8-3.157 28.244 6.768 13.48 13.118 5.4 39.774 13.025s.418 14.8 9.928 24.661c9.469 9.893 33.426 19.3 30.268 32.775-1.174 4.947-3.843 12.612-6.54 21.259l-.647 2.115c-.3.982-.608 2-.874 3.02l-1.026 3.512c-.63 2.223-1.2 4.45-1.694 6.717z" transform="translate(-3622.469 562.135)" style="stroke-linejoin:round;stroke-linecap:round;fill:#b1b1b1;stroke:#6d6d6d"/>
                <path data-name="패스 18453" d="M4198.154-364.8c-.913 17.935-19.888 35.871-14.45 61.019 5.4 25.11-8.137 29.6-7.225 35 .417 2.493-.951 6.192-.571 9.326-30.23-16.161-34.377.076-48.673.982-13.612.868-32.36-14.537-34.564-16.426 2.7-8.647 5.362-16.312 6.54-21.259 3.157-13.48-20.8-22.882-30.268-32.775-9.5-9.855 16.73-17.028-9.928-24.661s-33.006.453-39.774-13.025c-6.769-13.442 1.368-10.761 3.157-28.244 1.825-17.484-.456-11.215 9.962-26.017 10.381-14.8 15.78-33.645 15.78-33.645l.456-1.246c.608.152 1.215.341 1.787.534a.134.134 0 0 1 .076.037 77.94 77.94 0 0 0 11.141 8.2s3.043-1.359 5.1-6.726c2.016-5.4 3.233-12.309 20.306-15.6a17.3 17.3 0 0 0 3.118-1.472c10.19 15.67 26.69 34.437 52.893 51.244 40.8 26.168 51.943 33.757 54.642 41.956 1.217 3.584.761 7.323.495 12.798z" transform="translate(-3610.285 565.406)" style="stroke-linejoin:round;stroke-linecap:round;fill:#b1b1b1;stroke:#6d6d6d"/>
                <path data-name="패스 18454" d="M3928.644-178.071s-9.734 9.176-37.948 12.12c-15.02 1.548-23.5 6.457-28.214 10.686 10.76-51.542-25.325-45.01-29.736-53.431s-24.412-16.5-24.412-16.5-9.811-9.063-2.357-22.542c7.453-13.442 1.216-15.1 1.027-19.522-.228-4.377 22.016-15.48 22.357-18.5s24.375-14.121 41.334-18.5c16.922-4.377 50.5-2.341 53.883-11.1s-13.576-9.063 4.715-26.583c18.327-17.484 12.207-30.623 12.207-30.623s33.539 18.691 37.793 45.085c0 0 4.22 11.44-14.412 24.732s4.22 38.7 4.22 38.7 28.635-.151-40.457 85.978z" transform="translate(-3624.708 572.044)" style="stroke-linejoin:round;stroke-linecap:round;fill:#b1b1b1;stroke:#6d6d6d"/>
                <path data-name="패스 18455" d="M4053.309-451.927a27.168 27.168 0 0 0-1.787-.534 28.26 28.26 0 0 0-2.547-.679q-1.311-.34-2.623-.566c-.876-.19-1.75-.34-2.625-.492-1.749-.3-3.46-.528-5.171-.755-3.422-.416-6.726-.756-9.7-1.246l-2.167-.341a29.891 29.891 0 0 1-3.844-.944c-.571-.19-1.1-.378-1.634-.605a8.065 8.065 0 0 1-3.575-2.568c-4.98-6.726-20.305-12.989-24.83-19.295-4.526-6.269 8.137-4.911 1.331-12.537-6.77-7.628-8.556 4.456-16.694 0-4.677-2.568-4.412-15.859-3.346-26.658 2.129-.189 3.346-.264 3.346-.264 33.2-4.041 44.033 30.283 44.87 38.854.874 8.572 8.669 5.7 8.669 5.7s14.032-3.852 13.194 7.438c-.379 4.834 3.31 9.893 7.687 14.085.452.501.947.951 1.446 1.407z" transform="translate(-3613.2 562.097)" style="stroke-linejoin:round;stroke-linecap:round;fill:#b1b1b1;stroke:#6d6d6d"/>
            </g>
            <path data-name="패스 18456" d="M4352.942-184.995a.789.789 0 0 1 .066.221.055.055 0 0 0-.016-.034c0-.017-.017-.033-.034-.084 0-.036-.016-.07-.016-.103z" transform="translate(-3587.551 584.722)" style="stroke-linejoin:round;stroke-linecap:round;fill:#b1b1b1;stroke:#6d6d6d"/>
            <path data-name="패스 18457" d="M4334.055-270.681c10.89.484 28.406 12.735 36.472 19.471 5.213-6.085.5-13.739.5-13.739-1.9-5.213 5.585-1.165 6.207-4.354s9.8-5.409 9.8-5.409c.338-1.4 14.167-4.191 17.412-8.741a4.26 4.26 0 0 1 1.827-1.361 31.35 31.35 0 0 0-1.068-3.779c-.088-.25-.177-.519-.265-.77-.017-.073-.052-.126-.072-.2-.036-.07-.053-.161-.089-.233-.035-.107-.088-.2-.123-.305l-.479-1.128a4.116 4.116 0 0 0-.2-.412c-.143-.305-.283-.61-.444-.914-.052-.107-.107-.234-.176-.359-.018-.035-.035-.053-.052-.089-.176-.341-.355-.68-.551-1.021-.265-.465-.534-.95-.833-1.416a40.116 40.116 0 0 0-2.571-3.672c-11.117-14.133 8.421-5.1 8.847-12.342s-9.272-9.35-2.944-20.849c3.227-5.872-.478-13.185-4.857-18.935a41.788 41.788 0 0 1-2.447 4.336s.249 1.665-4.415-.091-13.985-2.31-13.985-2.31c-1.915-.412-2.34.534-3.865.2h-.018c-17.571 6.322-10.869 13.416-13.173 18.4-2.534 5.428-6.406 1.2-13.281.967-5.071-.179-23.936 10.407-33.387 15.907a2.689 2.689 0 0 0 .213 1.97c1.578 3.028 0 7.183 1.737 9.243 1.738 2.079 4.113 7.989 5.691 8.939 1.58.967 5.124 5.408 2.323 10.3 0 0-3.439 4.228.036 6.144l-4.558 3.726z" transform="translate(-3590.066 573.486)" style="stroke-linejoin:round;stroke-linecap:round;fill:#b1b1b1;stroke:#6d6d6d"/>
            <path data-name="패스 18458" d="M4363.46-329.658c-2.536 5.428-6.406 1.2-13.281.967-5.071-.179-23.936 10.407-33.387 15.907.568-2.1 3.281-3.8 2.11-5.213-1.524-1.845-2.837-8.061-2.837-8.061.194-7.7-.321-6.466-7.483-11.678s-5.692-10.229-6.951-14.474c-1.281-4.263 4.522-5.749 8.848-4.7 4.309 1.074 5.16-.213 5.16-.213s2.108-5.427 14.114-9.135c1.595-.5 5.8-1.5 6.949 2.328s10.638 6.5 10.638 6.5c5.426 2.114 3.689 3.35 3.689 3.35-.96 6.431 2.943 6.054 2.943 6.054s3.581-1.648 5.053-3.978c1.47-2.349 2.747-6.932 11.063-.214 3.565 2.866 5.373 3.87 6.543 4.157-17.568 6.328-10.867 13.423-13.171 18.403z" transform="translate(-3591.031 572.437)" style="stroke-linejoin:round;stroke-linecap:round;fill:#b1b1b1;stroke:#6d6d6d"/>
            <path data-name="패스 18459" d="M4642.033-300.862c-2.11 2.292-1.366 3.618-2.164 7.666-.779 4.03-2.058 2.328-4.113 4.89a6.638 6.638 0 0 0-1.4 4.911c.018.179.035.359.035.5-11.064 2.973-32.2 8.043-38.83 5.391a3.665 3.665 0 0 1-1.579-1.093 2.461 2.461 0 0 1-.408-2.1c2.216-10.855-18.954-14.365-28.121-13.415-4.645.484-19.929-.824-33.865-2.258-12.464-1.253-23.883-2.615-25.623-2.812a27.267 27.267 0 0 0 .39-6.735c-.32-6.789 1.737-15.208 3.777-21.746 1.81 1.416 2.571 1.738 7.376-.681 5.993-3.045 14.681-3.672 16.667-3.834 1.967-.161 6.312-4.549 12.643-2.722 6.312 1.845 13.9.876 13.9.876s10.656-2.31 13.192.161c2.518 2.473 8.6 4.066 12.233 3.835s10.692 2.185 10.692 2.185c7.111 4.353 10.072 1.217 10.072 1.217 10.158-7.237 13.208-5.7 18.1-7.291 4.912-1.594 7.021-1.539 8.068.591s2-.267-.106 7.021 9.007 19.311 9.946 20.439c.961 1.115 1.228 2.708-.882 5.004z" transform="translate(-3577.208 574.561)" style="stroke-linejoin:round;stroke-linecap:round;fill:#b1b1b1;stroke:#6d6d6d"/>
            <path data-name="패스 18460" d="M4564.117-245.958c-3.423 2.687-29.7 5.1-36.348 18.522-3 6.054-7.11 15.781-10.586 25.041-.406 1.093-.815 2.185-1.2 3.26l-.834 2.328a289.837 289.837 0 0 0-1.524 4.442c-.019-.018-.036-.018-.053-.036-1.862-1.038-6.579-3.152-15.036-3.6-11.347-.573-5.94-.269-10.782-4.728-4.841-4.479-10.532-22.571-6.95-25.544s.213-7.882 2.269-11.07c2.04-3.189-1.6-2.7-1.282-8.454.231-4.1-1.647-4.459-2.73-4.317 1.754-4.317 4.415-7.473 8.262-5.105 8.848 5.428 21.489 7.666 17.074-2.544-4.433-10.228-.641-19.166-1.282-28.427-.5-7.291 3.333-8.635 4.663-15.28 1.738.2 13.157 1.56 25.622 2.812-.426 4.623-2.8 34.322 4.484 36.094 7.891 1.922 4.1 5.751 6.95 7.344 2.837 1.6 13.262 4.155 16.418 4.155a6.449 6.449 0 0 1 2.306.427c2.03.829 3.113 2.674.559 4.68z" transform="translate(-3579.027 576.85)" style="stroke-linejoin:round;stroke-linecap:round;fill:#b1b1b1;stroke:#6d6d6d"/>
            <path data-name="패스 18461" d="M4455.574-331.4c-4.415-8.939-21.063-19.149-19.788-24.039.284-1.093 2.021-3.385 4.539-6.305a6.964 6.964 0 0 1-4.432-2.311s-3.795-5.32-7.588-5.749-2.217-7.129-2.217-7.129 5.48-10.121 5.373-12.773c-.106-2.669 3.582-9.046 1.258-11.285-2.3-2.222-4.308-1.916-5.159.427-.834 2.349-4.947 1.165-4.628 2.562a22.343 22.343 0 0 0 2.11 5.427c.514.52 1.685 2.651-.107 3.817-1.791 1.182-1.791 6.071-1.791 6.071a8.656 8.656 0 0 1-2.749 1.922c-2.3 1.271-1.685 4.567-.513 5.427 1.152.842 2.2 2.6-2.8 3.959s-10.054 10.264-9.539 12.843c.513 2.562-11.118 1.559-11.118 1.559s-2.516 1.165-.3 3.242c1.116 1.04.284 3.636-.8 5.966 4.376 5.749 8.085 13.058 4.856 18.935-6.328 11.5 3.37 13.613 2.944 20.849s-19.964-1.79-8.847 12.342a43.226 43.226 0 0 1 1.95 2.705c4.646-1.845 11.951-4.5 14.592-4.084 3.813.609 3.813.735 15.3-9.763a.126.126 0 0 1-.017-.053v-.017c.214-.161.426-.341.655-.5q1.013-.8 2.075-1.684s8.422-3.834 9.894-10.855 6.1 2.759 9.062 2.349a12.184 12.184 0 0 0 4.467-1.9 9.793 9.793 0 0 0 4.2-5.321 9.021 9.021 0 0 0-.882-6.634zm54.787 80.464c-3.35-7.721-2-14.706-1.435-21.638l-.462-.394s0-2.562-13.28-7.344c-8.263-2.973-15.674.359-20.09 3.3a5.33 5.33 0 0 1 1.454 5.482c-2.217 7.828-2.375 9.1.78 9.888 3.157.806 6.49 1.451 2.376 4.962s-6.791 9.727-3.476 11.966 8.049 1.595 8.049 1.595a2.66 2.66 0 0 1 .727-.161h.018c1.754-4.317 4.416-7.473 8.263-5.106 8.85 5.423 21.491 7.662 17.076-2.548z" transform="translate(-3584.988 570.021)" style="stroke-linejoin:round;stroke-linecap:round;fill:#b1b1b1;stroke:#6d6d6d"/>
            <path data-name="패스 18462" d="M4451.706-280.818c-.584.144-1.206.269-1.861.412-11.649 2.471-18.192-.214-23.4-3.887-4.573-3.225-19.77-5.643-25.584-3.117a31.535 31.535 0 0 0-1.069-3.779c-.07-.251-.177-.5-.265-.77-.017-.071-.052-.126-.072-.2s-.052-.161-.088-.232c-.035-.107-.089-.2-.124-.305l-.479-1.128a4.468 4.468 0 0 0-.2-.412 10.2 10.2 0 0 0-.443-.914c-.053-.107-.107-.233-.177-.359-.018-.035-.035-.053-.053-.089a29.92 29.92 0 0 0-.549-1.021c-.265-.465-.534-.95-.834-1.416-.2-.32-.408-.641-.62-.967 4.645-1.845 11.951-4.5 14.592-4.084 3.812.608 3.812.734 15.3-9.763a1.486 1.486 0 0 0 .036.2l.054.161c0 .035.016.07.016.107a1.782 1.782 0 0 0 .072.232c0 .036.019.072.019.107.035.09.053.2.088.305 0 .035.017.071.017.107a1.7 1.7 0 0 0 .071.269c.019.035.019.07.037.107v.07c.034.107.07.234.106.376.017.018.017.054.035.091.39 1.361.923 3.189 1.56 5.124.177.5.338 1 .534 1.522.124.341.248.7.372 1.04.071.2.159.393.231.591.141.376.283.734.445 1.092a33.832 33.832 0 0 0 1.453 3.134c.125.252.266.484.39.7.143.234.266.448.409.663.106.179.229.359.355.534a8.134 8.134 0 0 0 1.1 1.29 3.339 3.339 0 0 0 .266.234c.143.107.284.214.408.3a2.037 2.037 0 0 0 2.642-.178 15.409 15.409 0 0 0 3.031-1.6.338.338 0 0 1 .125-.09c.16-.107.32-.234.479-.358.142-.107.283-.214.408-.32a8.843 8.843 0 0 0 1.067-.984c.161-.161.3-.32.462-.5a1.346 1.346 0 0 0 .213-.269l.214-.269a8.245 8.245 0 0 0 .78-1.2c1.387-.269 8.19-1.128 8.19 7.291-.007 3.913.098 8.337.241 12.152z" transform="translate(-3584.647 576.081)" style="stroke-linejoin:round;stroke-linecap:round;fill:#b1b1b1;stroke:#6d6d6d"/>
            <path data-name="패스 18463" d="m4470.321-319.82-.177.07c-11.383 9.154-11.029 25.544-9.751 34.751a1.874 1.874 0 0 0-.94.484c-1.792 1.953-1.045 3.064-10.745 5.231-.142-3.816-.25-8.24-.25-12.145 0-8.419-6.807-7.56-8.189-7.291a6.9 6.9 0 0 0 .64-1.486 8.2 8.2 0 0 0 .39-2.508c0-6.807 14.52-5.749 17.058-9.368 2.429-3.475-8.565-11.267-9.433-11.894a9.79 9.79 0 0 0 4.2-5.321l.391-.017s5.69-8.312 9.468-5.75c2.603 1.773 3.617 10.552 7.338 15.244z" transform="translate(-3581.649 574.546)" style="stroke-linejoin:round;stroke-linecap:round;fill:#b1b1b1;stroke:#6d6d6d"/>
            <path data-name="패스 18464" d="M4509.564-304.812a27.268 27.268 0 0 1-.391 6.735c-1.329 6.646-5.159 7.99-4.662 15.28a41.426 41.426 0 0 1-.159 6.789l-.462-.4s0-2.562-13.28-7.344c-8.262-2.973-15.674.359-20.088 3.3-2.926-2.989-8.862-4.119-11.364-3.457-1.282-9.207-1.632-25.6 9.75-34.751l.178-.07a6.953 6.953 0 0 0 7.2 2.847c12.642-2.349-2.111-22.14 2.96-28.3a29.407 29.407 0 0 1 10.514-7.473 13.45 13.45 0 0 1 1.009 2.222c3.8 10.21 17.625 19.311 20.941 21.621.673.465 1.188.895 1.631 1.254-2.041 6.538-4.096 14.959-3.777 21.747z" transform="translate(-3580.414 573.458)" style="stroke-linejoin:round;stroke-linecap:round;fill:#b1b1b1;stroke:#6d6d6d"/>
            <path data-name="패스 18465" d="M4478.018-313.892a6.955 6.955 0 0 1-7.2-2.848c-3.723-4.7-4.734-13.471-7.339-15.244-3.777-2.562-9.468 5.75-9.468 5.75l-.39.017a9.018 9.018 0 0 0-.887-6.628c-4.415-8.939-21.064-19.149-19.788-24.039.284-1.093 2.021-3.385 4.54-6.305h.019a5.53 5.53 0 0 0 3.226-.824c4.326-2.562 6.95-.427 6.95-.427 8.333 3.081 12.766-4.156 13.706-6.074.921-1.9 3.262-5.212 8.847-9.135 5.567-3.94 7.465.305 7.784 9.673s3.475 6.074 2.216 10.694.817 5.765.817 5.765 6.453-3.493 10.443 3.851a29.417 29.417 0 0 0-10.514 7.473c-5.072 6.161 9.674 25.956-2.962 28.301z" transform="translate(-3582.148 571.467)" style="stroke-linejoin:round;stroke-linecap:round;fill:#b1b1b1;stroke:#6d6d6d"/>
            <path data-name="패스 18466" d="M4589.642-168.628s-2.323-.035-1.916 2.955c.427 2.973-.727 3.3-3.157 2.867a5.549 5.549 0 0 0-4.219 1.075s.214.628-3.368 2.328-15.694-1.486-18.741-1.056-2.429 4.675-5.16 5.1c-2.748.427-3.582-1.916-6.525-.641-2.96 1.29-5.478 2.455-5.9.427s-7.057-15.422-7.907-17.77c-.834-2.349-3.476-1.379-3.157-6.485.32-5.124-3.369-10.442-5.267-13.953a5.791 5.791 0 0 0-5.691-2.973 33.7 33.7 0 0 1-6.312-1.058q-.429-.307-.886-.572c.479-1.434.993-2.92 1.524-4.442l.834-2.328c.39-1.075.8-2.168 1.205-3.26l.8-.143s26.542-1.594 38.861-3.511 9.487 4.784 16.761 6.054c2.748.484 10.5 1.988 19.062 3.653-.586.4-.961.61-.961.61s-3.9 3.189-1.472 5.643c2.429 2.436 2.749 3.081 3.3 4.424.548 1.361-4.663 7.809-.656 10.889 3.983 3.083-1.052 12.167-1.052 12.167z" transform="translate(-3576.838 582.87)" style="stroke-linejoin:round;stroke-linecap:round;fill:#b1b1b1;stroke:#6d6d6d"/>
            <path data-name="패스 18467" d="M4649.311-245.323c1.667 2.328-1.826 8.795-7.5 11.733-5.69 2.955-8.386 10.443-8.386 10.443s.746 2.222-5.995 5.731-4.325-2.65-10.745.214c-6.435 2.883-13.475 1.4-16.95 1.38s-1.224 6.664-1.224 6.664c.442 5.481-5.814 10.174-8.262 11.786-8.563-1.665-16.312-3.17-19.062-3.653-7.268-1.271-4.433-7.971-16.76-6.055s-38.86 3.511-38.86 3.511l-.8.143c3.476-9.26 7.589-18.987 10.585-25.041 6.65-13.417 32.926-15.835 36.35-18.522 2.552-2.006 1.47-3.852-.551-4.676a2.75 2.75 0 0 0-.708-.427s-2.217-9.905 8.528-13.739c10.745-3.817-.32-6.7 3.795-10.21 4.042-3.475 11.347-7.757 22.2-4.784 6.632 2.651 27.766-2.418 38.829-5.391a2.329 2.329 0 0 1 0 .5c-.1.949 1.473 3.35 3.418 2.651s3.476.269 3.422 1.433c-.053 1.182 3.137 6.234 7.713 9.656 4.591 3.439 2.144 13.025-.62 17.322-2.763 4.315-.086 7.021 1.583 9.331z" transform="translate(-3576.613 577.881)" style="stroke-linejoin:round;stroke-linecap:round;fill:#b1b1b1;stroke:#6d6d6d"/>
            <path data-name="패스 18468" d="M4567.988-264.98c-10.745 3.834-8.528 13.739-8.528 13.739a2.751 2.751 0 0 1 .709.427 6.465 6.465 0 0 0-2.3-.427c-3.157 0-13.581-2.562-16.419-4.156-2.854-1.594.941-5.428-6.95-7.344-7.286-1.773-4.911-31.473-4.483-36.094 13.936 1.434 29.22 2.742 33.865 2.258 9.167-.95 30.336 2.562 28.12 13.416a2.45 2.45 0 0 0 .408 2.1 3.648 3.648 0 0 0 1.578 1.093c-10.852-2.973-18.157 1.308-22.2 4.784-4.121 3.504 6.947 6.384-3.8 10.204z" transform="translate(-3575.631 577.028)" style="stroke-linejoin:round;stroke-linecap:round;fill:#b1b1b1;stroke:#6d6d6d"/>
            <path data-name="패스 18469" d="M4459.46-312.624c-2.537 3.618-17.058 2.562-17.058 9.368a8.181 8.181 0 0 1-.39 2.508 6.9 6.9 0 0 1-.64 1.486 8.051 8.051 0 0 1-.779 1.2l-.213.269a1.385 1.385 0 0 1-.214.269c-.16.179-.3.341-.462.5a8.91 8.91 0 0 1-1.067.984 8.406 8.406 0 0 1-.408.32c-.159.125-.32.25-.479.358a.318.318 0 0 0-.124.09 15.446 15.446 0 0 1-3.032 1.6 2.035 2.035 0 0 1-2.642.178c-.124-.089-.265-.2-.408-.3a3.016 3.016 0 0 1-.265-.234 8.08 8.08 0 0 1-1.1-1.29c-.123-.178-.248-.358-.354-.534-.142-.214-.266-.427-.408-.663-.124-.214-.266-.447-.39-.7a34.1 34.1 0 0 1-1.454-3.134c-.159-.358-.3-.715-.444-1.092-.071-.2-.159-.394-.23-.591-.124-.341-.248-.7-.372-1.04-.194-.52-.355-1.021-.533-1.522a124.638 124.638 0 0 1-1.562-5.124c-.053-.2-.089-.376-.142-.534-.018-.036-.018-.073-.036-.107a1.527 1.527 0 0 1-.071-.269c0-.036-.018-.072-.018-.107-.036-.107-.054-.214-.088-.305 0-.035-.019-.07-.019-.107a1.808 1.808 0 0 1-.071-.231c0-.036-.017-.073-.017-.107l-.054-.161a1.52 1.52 0 0 1-.036-.2c.214-.2.427-.393.641-.572.673-.534 1.365-1.093 2.074-1.685 0 0 8.422-3.834 9.893-10.855s6.1 2.759 9.063 2.349a12.182 12.182 0 0 0 4.467-1.9c.882.617 11.865 8.409 9.442 11.885z" transform="translate(-3582.757 575.09)" style="stroke-linejoin:round;stroke-linecap:round;fill:#b1b1b1;stroke:#6d6d6d"/>
            <path data-name="패스 18470" d="M4424.529-313.382c-.212.179-.426.376-.64.573a.119.119 0 0 1-.017-.053v-.017c.217-.162.428-.342.657-.503z" transform="translate(-3582.757 576.045)" style="stroke-linejoin:round;stroke-linecap:round;fill:#b1b1b1;stroke:#6d6d6d"/>
            <path data-name="패스 18471" d="M4448.374-324.707a.073.073 0 0 1-.053-.018" transform="translate(-3581.104 575.278)" style="stroke-linejoin:round;stroke-linecap:round;fill:#b1b1b1;stroke:#6d6d6d"/>
            <path data-name="패스 18472" d="M4423.876-312.91a.127.127 0 0 1-.018-.053" transform="translate(-3582.757 576.073)" style="stroke-linejoin:round;stroke-linecap:round;fill:#b1b1b1;stroke:#6d6d6d"/>
            <path data-name="패스 18473" d="M4425.607-314.356c-.39.359-.763.7-1.118 1.039" transform="translate(-3582.715 575.979)" style="stroke-linejoin:round;stroke-linecap:round;fill:#b1b1b1;stroke:#6d6d6d"/>
        </g>
        <path data-name="패스 19258" d="M9.752 11.074 61.547 91.51" transform="translate(598.907 160.63)" style="stroke-width:3px;stroke:#eb823f;fill:none;stroke-linecap:round"/>
        <path data-name="패스 19257" d="m4376.675-433.55 12.1-6.405 50.532 16.37a29.737 29.737 0 0 0 3.56 7.117c2.135 2.848 6.405 0 6.405 0l13.522 37.011 11.388 4.27L4496.957-388s17.793-24.2 22.063-24.2 56.227-5.692 60.5-11.387 6.406-25.062 6.406-25.062-17.081-14.8-17.793-23.336 0-32.739 0-32.739l2.847-4.981-2.847-9.965v-27.757" transform="translate(-3585.813 555.256)" style="stroke-miterlimit:10;stroke:#98663f;stroke-width:3px;fill:none;stroke-linecap:round"/>
        <text transform="translate(165.047 191.876)" style="letter-spacing:-.03em;font-family:MalgunGothic,Malgun Gothic;font-size:14px;fill:#686868"><tspan x="-20.58" y="0">송산면</tspan></text>
        <text transform="translate(165.047 377.637)" style="letter-spacing:-.03em;font-family:MalgunGothic,Malgun Gothic;font-size:14px;fill:#686868"><tspan x="-20.58" y="0">서신면</tspan></text>
        <text transform="translate(267.309 315.716)" style="letter-spacing:-.03em;font-family:MalgunGothic,Malgun Gothic;font-size:14px;fill:#686868"><tspan x="-20.58" y="0">마도면</tspan></text>
        <text transform="translate(416.156 280.486)" style="letter-spacing:-.03em;font-family:MalgunGothic,Malgun Gothic;font-size:14px;fill:#686868"><tspan x="-20.58" y="0">남양읍</tspan></text>
        <text transform="translate(266.467 553.789)" style="letter-spacing:-.03em;font-family:MalgunGothic,Malgun Gothic;font-size:14px;fill:#686868"><tspan x="-20.58" y="0">우정읍</tspan></text>
        <text transform="translate(431.103 627.451)" style="letter-spacing:-.03em;font-family:MalgunGothic,Malgun Gothic;font-size:14px;fill:#686868"><tspan x="-20.58" y="0">장안면</tspan></text>
        <text transform="translate(640.351 483.328)" style="letter-spacing:-.03em;font-family:MalgunGothic,Malgun Gothic;font-size:14px;fill:#686868"><tspan x="-20.58" y="0">향남읍</tspan></text>
        <text transform="translate(528.254 388.312)" style="letter-spacing:-.03em;font-family:MalgunGothic,Malgun Gothic;font-size:14px;fill:#686868"><tspan x="-20.58" y="0">팔탄면</tspan></text>
        <text transform="translate(638.218 593.289)" style="letter-spacing:-.03em;font-family:MalgunGothic,Malgun Gothic;font-size:14px;fill:#686868"><tspan x="-20.58" y="0">양감면</tspan></text>
        <text transform="translate(770.597 398.989)" style="letter-spacing:-.03em;font-family:MalgunGothic,Malgun Gothic;font-size:14px;fill:#686868"><tspan x="-20.58" y="0">정남면</tspan></text>
        <text transform="translate(616.864 277.282)" style="letter-spacing:-.03em;font-family:MalgunGothic,Malgun Gothic;font-size:14px;fill:#686868"><tspan x="-20.58" y="0">봉담읍</tspan></text>
        <text transform="translate(534.66 101.13)" style="letter-spacing:-.03em;font-family:MalgunGothic,Malgun Gothic;font-size:14px;fill:#686868"><tspan x="-20.58" y="0">매송면</tspan></text>
        <text transform="translate(523.984 192.939)" style="letter-spacing:-.03em;font-family:MalgunGothic,Malgun Gothic;font-size:14px;fill:#686868"><tspan x="-20.58" y="0">비봉면</tspan></text>
        <text transform="translate(393.738 24.264)" style="fill:#b5b5b5;letter-spacing:-.03em;font-family:MalgunGothic,Malgun Gothic;font-size:14px"><tspan x="-20.58" y="0">새솔동</tspan></text>
        <text transform="translate(735.367 229.24)" style="letter-spacing:-.03em;font-family:MalgunGothic,Malgun Gothic;font-size:14px;fill:#686868"><tspan x="-20.58" y="0">기배동</tspan></text>
        <text transform="translate(766.327 277.282)" style="letter-spacing:-.03em;font-family:MalgunGothic,Malgun Gothic;font-size:14px;fill:#686868"><tspan x="-20.58" y="0">화산동</tspan></text>
        <text transform="translate(988.522 453.638)" style="font-size:11px;fill:#b5b5b5;letter-spacing:-.03em;font-family:MalgunGothic,Malgun Gothic"><tspan x="-18.97" y="0">동탄</tspan><tspan y="0" style="font-family:SegoeUI,Segoe UI">8</tspan><tspan y="0">동</tspan></text>
        <text transform="translate(1071.792 208.093)" style="font-size:11px;fill:#b5b5b5;letter-spacing:-.03em;font-family:MalgunGothic,Malgun Gothic"><tspan x="-18.97" y="0">동탄</tspan><tspan y="0" style="font-family:SegoeUI,Segoe UI">5</tspan><tspan y="0">동</tspan></text>
        <text transform="translate(1103.821 349.015)" style="font-size:11px;fill:#b5b5b5;letter-spacing:-.03em;font-family:MalgunGothic,Malgun Gothic"><tspan x="-18.97" y="0">동탄</tspan><tspan y="0" style="font-family:SegoeUI,Segoe UI">7</tspan><tspan y="0">동</tspan></text>
        <text transform="translate(924.466 349.015)" style="font-size:11px;letter-spacing:-.03em;font-family:MalgunGothic,Malgun Gothic;fill:#686868"><tspan x="-18.97" y="0">동탄</tspan><tspan y="0" style="font-family:SegoeUI,Segoe UI">6</tspan><tspan y="0">동</tspan></text>
        <text transform="translate(1126.24 261.47)" style="font-size:11px;fill:#b5b5b5;letter-spacing:-.03em;font-family:MalgunGothic,Malgun Gothic"><tspan x="-18.97" y="0">동탄</tspan><tspan y="0" style="font-family:SegoeUI,Segoe UI">4</tspan><tspan y="0">동</tspan></text>
        <text transform="translate(822.181 130.159)" style="font-size:11px;fill:#b5b5b5;letter-spacing:-.03em;font-family:MalgunGothic,Malgun Gothic"><tspan x="-16.17" y="0">진안동</tspan></text>
        <text data-name="마도면" transform="translate(860.613 158.983)" style="font-size:11px;fill:#b5b5b5;letter-spacing:-.03em;font-family:MalgunGothic,Malgun Gothic"><tspan x="-16.17" y="0">마도면</tspan></text>
        <text transform="translate(801.896 328.73)" style="font-size:11px;fill:#b5b5b5;letter-spacing:-.03em;font-family:MalgunGothic,Malgun Gothic"><tspan x="-16.17" y="0">병점동</tspan></text>
        <circle data-name="타원 12575" cx="3.203" cy="3.203" r="3.203" transform="translate(389.82 67.982)" style="fill:#8e8e91"/>
        <circle data-name="타원 12574" cx="3.203" cy="3.203" r="3.203" transform="translate(1004.75 245.202)" style="fill:#8e8e91"/>
        <circle data-name="타원 12573" cx="3.203" cy="3.203" r="3.203" transform="translate(918.278 238.795)" style="fill:#8e8e91"/>
        <circle data-name="타원 12572" cx="3.203" cy="3.203" r="3.203" transform="translate(860.627 207.837)" style="fill:#8e8e91"/>
        <circle data-name="타원 12571" cx="3.203" cy="3.203" r="3.203" transform="translate(822.193 211.038)" style="fill:#8e8e91"/>
        <circle data-name="타원 12570" cx="3.203" cy="3.203" r="3.203" transform="translate(1004.75 280.433)" style="fill:#8e8e91"/>
        <circle data-name="타원 12569" cx="3.203" cy="3.203" r="3.203" transform="translate(1030.374 318.866)" style="fill:#8e8e91"/>
        <circle data-name="타원 12568" cx="3.203" cy="3.203" r="3.203" transform="translate(988.739 402.135)" style="fill:#8e8e91"/>
        <circle data-name="타원 12567" cx="3.203" cy="3.203" r="3.203" transform="translate(894.791 310.325)" style="fill:#8e8e91"/>
        <circle data-name="타원 12566" cx="3.203" cy="3.203" r="3.203" transform="translate(869.167 269.756)" style="fill:#8e8e91"/>
        <circle data-name="타원 12565" cx="3.203" cy="3.203" r="3.203" transform="translate(836.073 269.756)" style="fill:#8e8e91"/>
        <path data-name="선 195" transform="translate(393.023 39.156)" style="stroke-width:2px;stroke:#8a8a8a;fill:none;stroke-linecap:round" d="M0 33.095V0"/>
        <path data-name="패스 19256" d="m16020 11194.8 13.879-44.3h28.291" transform="translate(-15012.048 -10946.401)" style="stroke:#8e8e91;fill:none"/>
        <path data-name="패스 19255" d="m16044 11261 29.535 23.487h18.5" transform="translate(-15010.426 -10938.932)" style="stroke:#8e8e91;fill:none"/>
        <path data-name="패스 19254" d="m16020 11226.6 66.545-25.266h29.893" transform="translate(-15012.048 -10942.966)" style="stroke:#8e8e91;fill:none"/>
        <path data-name="패스 19253" d="M16005 11339v32.739" transform="translate(-15013.06 -10933.661)" style="stroke:#8e8e91;fill:none"/>
        <path data-name="패스 19252" d="m15864.162 11215-34.494 31.672v8.185" transform="translate(-15024.911 -10942.043)" style="stroke:#8e8e91;fill:none"/>
        <path data-name="패스 19251" d="M15917 11252.333v18.862" transform="translate(-15019.008 -10939.518)" style="stroke:#8e8e91;fill:none"/>
        <path data-name="패스 19250" d="M15939 11188.23V11153" transform="translate(-15017.521 -10946.231)" style="stroke:#8e8e91;fill:none"/>
        <path data-name="패스 19249" d="M15885 11159.807v-44.307" transform="translate(-15021.17 -10948.768)" style="stroke:#8e8e91;fill:none"/>
        <path data-name="패스 19248" d="M15849 11164.8v-75.8" transform="translate(-15023.604 -10950.56)" style="stroke:#8e8e91;fill:none"/>
        <g data-name="그룹 17834">
            <g data-name="사각형 8730" transform="translate(572.061 197.528)" style="stroke:#f4a454;fill:#090816">
                <rect width="66.191" height="42.704" rx="2" style="stroke:none"/>
                <rect x=".5" y=".5" width="65.191" height="41.704" rx="1.5" style="fill:none"/>
            </g>
            <text data-name="인천발 KTX직결" transform="translate(604.115 213.798)" style="fill:#eb823f;font-size:11px;letter-spacing:-.03em;font-family:MalgunGothic,Malgun Gothic"><tspan x="-17.512" y="0">인천발</tspan><tspan y="0" style="font-family:SegoeUI,Segoe UI"> </tspan><tspan style="font-family:SegoeUI,Segoe UI"><tspan x="-19.656" y="15">KTX</tspan><tspan y="15" style="font-family:MalgunGothic,Malgun Gothic">직결</tspan></tspan></text>
        </g>
        <path data-name="패스 19247" d="m13708.016-17626.656 12.794 26.32v119.572" transform="translate(-13406.575 17648.027)" style="stroke:#7751d2;stroke-width:3px;fill:none"/>
        <path data-name="패스 19246" d="M13988.016-17160.576s14.4 25.707 22.938 28.375 56.047 17.08 62.987 26.689 80.068 186.295 80.068 186.295" transform="translate(-13385.745 17673.824)" style="stroke:#7751d2;stroke-width:3px;fill:none"/>
        <path data-name="패스 19245" d="M13713-17491.51s9.607 45.742 19.573 59.975 94.48 140.02 103.734 142.865 132.557 84.891 143.945 101.26 22.063 43.412 22.063 43.412" transform="translate(-13398.996 17659.479)" style="stroke-dasharray:3 4;stroke:#ef626b;stroke-width:3px;fill:none"/>
        <g data-name="그룹 17833">
            <g data-name="사각형 8729" transform="translate(310.601 360.134)" style="stroke:#ef626b;fill:#090816">
                <rect width="100.353" height="25.622" rx="2" style="stroke:none"/>
                <rect x=".5" y=".5" width="99.353" height="24.622" rx="1.5" style="fill:none"/>
            </g>
            <text data-name="신안산선 연장" transform="translate(357.582 376.404)" style="fill:#ef626b;font-size:11px;letter-spacing:-.03em;font-family:MalgunGothic,Malgun Gothic"><tspan x="-33.517" y="0">신안산선</tspan><tspan y="0" style="font-family:SegoeUI,Segoe UI"> </tspan><tspan y="0">연장</tspan></text>
        </g>
        <g data-name="그룹 17832">
            <g data-name="사각형 8729" transform="translate(717.626 293.943)" style="stroke:#ef626b;fill:#090816">
                <rect width="55.515" height="42.704" rx="2" style="stroke:none"/>
                <rect x=".5" y=".5" width="54.515" height="41.704" rx="1.5" style="fill:none"/>
            </g>
            <text data-name="GTX-C 연장" transform="translate(744.679 310.213)" style="fill:#ef626b;font-family:SegoeUI,Segoe UI;font-size:11px;letter-spacing:-.03em"><tspan x="-14.712" y="0">GTX-C</tspan><tspan style="font-family:MalgunGothic,Malgun Gothic"><tspan x="-10.835" y="15">연장</tspan></tspan></text>
        </g>
        <g data-name="그룹 17831">
            <g data-name="사각형 8729" transform="translate(985.576 218.146)" style="stroke:#ef626b;fill:#090816">
                <rect width="79.002" height="25.622" rx="2" style="stroke:none"/>
                <rect x=".5" y=".5" width="78.002" height="24.622" rx="1.5" style="fill:none"/>
            </g>
            <text data-name="1호선연장" transform="translate(1022.41 233.416)" style="font-size:10px;fill:#ef626b;font-family:SegoeUI,Segoe UI;letter-spacing:-.03em"><tspan x="-22.095" y="0">1</tspan><tspan y="0" style="font-family:MalgunGothic,Malgun Gothic">호선연장</tspan></text>
        </g>
        <g data-name="그룹 17830">
            <g data-name="사각형 8729" transform="translate(1005.973 154.088)" style="stroke:#4a96c9;fill:#090816">
                <rect width="83.272" height="25.622" rx="2" style="stroke:none"/>
                <rect x=".5" y=".5" width="82.272" height="24.622" rx="1.5" style="fill:none"/>
            </g>
            <text transform="translate(1045.026 170.358)" style="fill:#4a96c9;font-size:11px;letter-spacing:-.03em;font-family:MalgunGothic,Malgun Gothic"><tspan x="-26.84" y="0">분당선연장</tspan></text>
        </g>
        <g data-name="그룹 17828">
            <g data-name="사각형 8729" transform="translate(973.523 23.844)" style="fill:#090816;stroke:#98663f">
                <rect width="59.785" height="25.622" rx="2" style="stroke:none"/>
                <rect x=".5" y=".5" width="58.785" height="24.622" rx="1.5" style="fill:none"/>
            </g>
            <text transform="translate(1002.503 40.114)" style="fill:#a46f46;font-size:11px;letter-spacing:-.03em;font-family:MalgunGothic,Malgun Gothic"><tspan x="-16.17" y="0">분당선</tspan></text>
        </g>
        <g data-name="그룹 17827">
            <g data-name="사각형 8729" transform="translate(590.604 292.875)" style="stroke:#3a92ce;fill:#090816">
                <rect width="70.461" height="42.704" rx="2" style="stroke:none"/>
                <rect x=".5" y=".5" width="69.461" height="41.704" rx="1.5" style="fill:none"/>
            </g>
            <text data-name="신분당선 연장" transform="translate(624.658 309.145)" style="fill:#4a96c9;font-size:11px;letter-spacing:-.03em;font-family:MalgunGothic,Malgun Gothic"><tspan x="-21.505" y="0">신분당선</tspan><tspan x="-10.835" y="15">연장</tspan></text>
        </g>
        <g data-name="그룹 17826">
            <g data-name="사각형 8729" transform="translate(725.97 530.948)" style="stroke:#3a92ce;fill:#090816">
                <rect width="98.218" height="42.704" rx="2" style="stroke:none"/>
                <rect x=".5" y=".5" width="97.218" height="41.704" rx="1.5" style="fill:none"/>
            </g>
            <text data-name="서해진 ~ 경부 고속선 연결" transform="translate(771.95 547.218)" style="fill:#4a96c9;font-size:11px;letter-spacing:-.03em;font-family:MalgunGothic,Malgun Gothic"><tspan x="-33.121" y="0">서해진</tspan><tspan y="0" xml:space="preserve" style="font-family:SegoeUI,Segoe UI"> ~ </tspan><tspan y="0">경부</tspan><tspan x="-28.182" y="15">고속선</tspan><tspan y="15" style="font-family:SegoeUI,Segoe UI"> </tspan><tspan y="15">연결</tspan></text>
        </g>
        <g data-name="그룹 17825">
            <g data-name="사각형 8729" transform="translate(825.177 7.83)" style="stroke:#3a92ce;fill:#090816">
                <rect width="81.137" height="25.622" rx="2" style="stroke:none"/>
                <rect x=".5" y=".5" width="80.137" height="24.622" rx="1.5" style="fill:none"/>
            </g>
            <text data-name="수원 1호선" transform="translate(864.158 24.1)" style="fill:#4a96c9;font-size:11px;letter-spacing:-.03em;font-family:MalgunGothic,Malgun Gothic"><tspan x="-25.646" y="0">수원</tspan><tspan y="0" xml:space="preserve" style="font-family:SegoeUI,Segoe UI"> 1</tspan><tspan y="0">호선</tspan></text>
        </g>
        <g data-name="그룹 17824">
            <g data-name="사각형 8729" transform="translate(1029.153 295.01)" style="stroke:#3a92ce;fill:#090816">
                <rect width="96.083" height="25.622" rx="2" style="stroke:none"/>
                <rect x=".5" y=".5" width="95.083" height="24.622" rx="1.5" style="fill:none"/>
            </g>
            <text transform="translate(1074.133 311.28)" style="fill:#4a96c9;font-size:11px;letter-spacing:-.03em;font-family:MalgunGothic,Malgun Gothic"><tspan x="-32.175" y="0">동탄도시철도</tspan></text>
        </g>
        <g data-name="타원 12564" transform="translate(432.507 365.471)" style="stroke:#8b5b36;fill:#fff">
            <circle cx="3.737" cy="3.737" r="3.737" style="stroke:none"/>
            <circle cx="3.737" cy="3.737" r="3.237" style="fill:none"/>
        </g>
        <g data-name="타원 12563" transform="translate(318.275 194.657)" style="stroke:#8b5b36;fill:#fff">
            <circle cx="3.737" cy="3.737" r="3.737" style="stroke:none"/>
            <circle cx="3.737" cy="3.737" r="3.237" style="fill:none"/>
        </g>
        <g data-name="타원 12562" transform="translate(600.119 511.733)" style="stroke:#8b5b36;fill:#fff">
            <circle cx="3.737" cy="3.737" r="3.737" style="stroke:none"/>
            <circle cx="3.737" cy="3.737" r="3.237" style="fill:none"/>
        </g>
        <g data-name="타원 12561" transform="translate(310.803 76.156)" style="stroke:#8b5b36;fill:#fff">
            <circle cx="3.737" cy="3.737" r="3.737" style="stroke:none"/>
            <circle cx="3.737" cy="3.737" r="3.237" style="fill:none"/>
        </g>
        <g data-name="타원 12560" transform="translate(297.991 18.505)" style="stroke:#8b5b36;fill:#fff">
            <circle cx="3.737" cy="3.737" r="3.737" style="stroke:none"/>
            <circle cx="3.737" cy="3.737" r="3.237" style="fill:none"/>
        </g>
        <g data-name="그룹 17823">
            <g data-name="사각형 8729" transform="translate(636.035 600.342)" style="stroke:#744bd5;fill:#090816">
                <rect width="59.785" height="25.622" rx="2" style="stroke:none"/>
                <rect x=".5" y=".5" width="58.785" height="24.622" rx="1.5" style="fill:none"/>
            </g>
            <text transform="translate(665.015 616.612)" style="fill:#a990e8;font-size:11px;letter-spacing:-.03em;font-family:MalgunGothic,Malgun Gothic"><tspan x="-16.17" y="0">서해선</tspan></text>
        </g>
        <path data-name="패스 19244" d="M4140.653-540.446s112.636 156.778 115.68 175.046 42.62 345.518 42.62 345.518 3.043 36.531 35.008 57.841 170.475 168.953 170.475 168.953" transform="translate(-3601.766 555.727)" style="stroke:#5db8a3;stroke-width:3px;fill:none;stroke-linejoin:round;stroke-linecap:round"/>
        <path data-name="패스 19243" d="m14070-17136.658 19.931 91.807" transform="translate(-13373.799 17675.447)" style="stroke:#59ade6;stroke-dasharray:3 4;stroke-width:3px;fill:none"/>
        <path data-name="패스 19242" d="m14215.554-17357.7-50.9-162.639-3.559-9.969-26.336-68.322s-45.55-9.965-49.108-22.773-4.981-19.932-4.981-19.932" transform="translate(-13373.076 17641.334)" style="stroke:#98663f;stroke-width:3px;fill:none"/>
        <path data-name="패스 19241" d="m14168.213-17499.324 46.879 154.188" transform="translate(-13380.104 17627.697)" style="stroke-dasharray:3 4;stroke:#ef626b;stroke-width:3px;fill:none"/>
        <path data-name="패스 19240" d="M15893 11215v37.009" transform="translate(-15020.629 -10942.043)" style="stroke:#8e8e91;fill:none"/>
        <path data-name="패스 19239" d="M14328.9-17637v158.359s-5 20.643-9.981 36.3 6.406 377.215 6.406 377.215-6.406 27.758-23.486 44.836-18.507 130.961-18.507 130.961" transform="translate(-13359.38 17641.629)" style="stroke:#5db8a3;stroke-width:3px;fill:none"/>
        <path data-name="패스 19238" d="M14354.667-17539.393s12.1 2.832 14.946 7.814 4.271 9.963 6.4 10.674 11.387 7.834 22.064 4.986 9.963-15.66 9.963-15.66 12.1-11.361 17.082-7.814 26.334 32.727 26.334 32.727a13.961 13.961 0 0 1 3.558 9.25c0 5.7 2.138 26.338 4.271 26.338s9.966 14.945 21.354 14.232 24.907 0 24.907 0l14.947 3.559h9.252s20.641-21.352 19.929-26.332 9.965-11.389 9.965-11.389l-14.235-40.57s4.272-12.811 14.235-13.521 4.98-14.234 4.98-14.234" transform="translate(-13354.558 17646.877)" style="stroke:#98663f;stroke-width:3px;fill:none"/>
        <path data-name="패스 19237" d="M14316.667-17637v295.014" transform="translate(-13360.329 17641.629)" style="stroke:#7751d2;stroke-width:3px;fill:none"/>
        <path data-name="패스 19236" d="M14319.374-17354.855s-67.262-8.232-82.736-14.412c-1.582-.627-2.02-3.324-2.136-3.732" transform="translate(-13362.682 17654.137)" style="stroke-dasharray:3 4;stroke:#ef626b;stroke-width:3px;fill:none"/>
        <path data-name="패스 19235" d="M13861-17577.656s51.778 54.078 64.589 57.814 58.185 45.375 68.859 44.84 105.157 29.895 105.157 29.895 37.9-26.689 47.509-37.367 17.615-12.809 17.615-12.809l14.412-28.828" transform="translate(-13387.925 17645.637)" style="stroke:#e275e2;stroke-width:3px;fill:none"/>
        <path data-name="패스 19234" d="M14072-17394.389s12.81-33.629 12.81-54.98-9.073-64.057-4.8-73.129" transform="translate(-13373.665 17649.363)" style="stroke:#3a92ce;stroke-dasharray:3 4;stroke-width:3px;fill:none"/>
        <path data-name="패스 19233" d="M14322.053-17346.721c2.136-3.736 11.03-96.439 12.1-104.447s10.676-29.357 10.676-29.357 14.413-8.008 17.616-12.275 0-46.443 0-46.443-67.258-5.871-125.442-27.756" transform="translate(-13362.511 17646.357)" style="stroke:#3a92ce;stroke-dasharray:3 4;stroke-width:3px;fill:none"/>
        <path data-name="패스 19232" d="m14080.666-17520.969 93.772-55.514 17.08-9.074s16.547-12.812 28.825-3.738 26.688 23.488 26.688 23.488" transform="translate(-13373.076 17644.633)" style="stroke-width:3px;stroke:#eb823f;fill:none"/>
        <path data-name="패스 19231" d="m14148-17641.334 12.813 30.25s51.243 34.162 57.649 51.242 60.854 50.176 62.987 77.936-18.149 120.639 6.406 129.178 37.72 11.385 37.72 11.385" transform="translate(-13368.526 17641.334)" style="stroke-width:3px;stroke:#eb823f;fill:none"/>
        <text transform="translate(918.061 198.485)" style="font-size:11px;fill:#b5b5b5;letter-spacing:-.03em;font-family:MalgunGothic,Malgun Gothic"><tspan x="-18.97" y="0">동탄</tspan><tspan y="0" style="font-family:SegoeUI,Segoe UI">1</tspan><tspan y="0">동</tspan></text>
        <path data-name="패스 19230" d="m14207.547-17370.623-13.879 6.049 2.136 5.693s13.166-6.049 16.369-5.693 21.351 1.068 25.978 2.135 6.762 6.053 6.762 6.053h7.116l34.165 20.283v-7.117h19.571v-33.451h-22.775l-6.405-27.4 2.135-13.166-25.265-22.064-1.426-22.773 1.426-9.256" transform="translate(-13365.441 17652.824)" style="stroke:#3a92ce;stroke-width:3px;fill:none"/>
        <path data-name="패스 19229" d="m14238.494-17374.756-31.479-3.9 3.188 9.949s21.35 3.561 24.908 17.084 14.236 37.01 14.236 37.01-2.137 17.084 0 19.93 19.215 62.639 19.215 62.639l7.117 132.373-7.117 40.568v61.922s14.234 22.063 22.063 26.332" transform="translate(-13364.538 17659.793)" style="stroke:#98663f;stroke-width:3px;fill:none"/>
        <text transform="translate(863.613 322.325)" style="font-size:11px;fill:#b5b5b5;letter-spacing:-.03em;font-family:MalgunGothic,Malgun Gothic"><tspan x="-18.97" y="0">동탄</tspan><tspan y="0" style="font-family:SegoeUI,Segoe UI">3</tspan><tspan y="0">동</tspan></text>
        <path data-name="패스 19228" d="M14298.668-17364.334h30.248" transform="translate(-13358.344 17663.613)" style="stroke:#3a92ce;stroke-width:3px;fill:none"/>
        <path data-name="패스 19227" d="m14267.333-17226.8 7.116-10.676 20.286-4.982v-24.555l6.76-2.488 4.983-24.914h14.945l4.626-3.561h13.524v-24.908l-8.542-24.91v-34.863h21.352l19.572 42.336-8.54 42.346h-23.842" transform="translate(-13360.461 17658.818)" style="stroke:#3a92ce;stroke-width:3px;fill:none"/>
        <path data-name="패스 19226" d="M14335.925-17302.334v14.945l-14.593 28.826" transform="translate(-13356.811 17664.246)" style="stroke:#3a92ce;stroke-width:3px;fill:none"/>
        <path data-name="패스 19225" d="m14317-17358 193.234 455.861" transform="translate(-13357.104 17660.484)" style="stroke:#3a92ce;stroke-dasharray:3 4;stroke-width:3px;fill:none"/>
        <path data-name="패스 19224" d="M14173.9-17601.656s-9.627 11.732 3.185 31.662 2.848 38.434-17.082 47.686" transform="translate(-13367.715 17644.016)" style="stroke:#3a92ce;stroke-dasharray:3 4;stroke-width:3px;fill:none"/>
        <g data-name="타원 12559" transform="translate(469.873 64.413)" style="stroke:#8b5b36;fill:#fff">
            <circle cx="3.737" cy="3.737" r="3.737" style="stroke:none"/>
            <circle cx="3.737" cy="3.737" r="3.237" style="fill:none"/>
        </g>
        <g data-name="타원 12558" transform="translate(537.13 123.13)" style="stroke:#8b5b36;fill:#fff">
            <circle cx="3.737" cy="3.737" r="3.737" style="stroke:none"/>
            <circle cx="3.737" cy="3.737" r="3.237" style="fill:none"/>
        </g>
        <g data-name="타원 12557" transform="translate(605.456 166.9)" style="stroke:#8b5b36;fill:#fff">
            <circle cx="3.737" cy="3.737" r="3.737" style="stroke:none"/>
            <circle cx="3.737" cy="3.737" r="3.237" style="fill:none"/>
        </g>
        <g data-name="타원 12556" transform="translate(706.879 196.794)" style="stroke:#8b5b36;fill:#fff">
            <circle cx="3.737" cy="3.737" r="3.737" style="stroke:none"/>
            <circle cx="3.737" cy="3.737" r="3.237" style="fill:none"/>
        </g>
        <g data-name="타원 12555" transform="translate(694.067 251.24)" style="stroke:#8b5b36;fill:#fff">
            <circle cx="3.737" cy="3.737" r="3.737" style="stroke:none"/>
            <circle cx="3.737" cy="3.737" r="3.237" style="fill:none"/>
        </g>
        <g data-name="타원 12554" transform="translate(703.676 122.061)" style="stroke:#8b5b36;fill:#fff">
            <circle cx="3.737" cy="3.737" r="3.737" style="stroke:none"/>
            <circle cx="3.737" cy="3.737" r="3.237" style="fill:none"/>
        </g>
        <g data-name="타원 12553" transform="translate(788.015 119.926)" style="stroke:#8b5b36;fill:#fff">
            <circle cx="3.737" cy="3.737" r="3.737" style="stroke:none"/>
            <circle cx="3.737" cy="3.737" r="3.237" style="fill:none"/>
        </g>
        <g data-name="타원 12552" transform="translate(839.259 277.93)" style="stroke:#8b5b36;fill:#fff">
            <circle cx="3.737" cy="3.737" r="3.737" style="stroke:none"/>
            <circle cx="3.737" cy="3.737" r="3.237" style="fill:none"/>
        </g>
        <g data-name="타원 12551" transform="translate(867.016 280.063)" style="stroke:#8b5b36;fill:#fff">
            <circle cx="3.737" cy="3.737" r="3.737" style="stroke:none"/>
            <circle cx="3.737" cy="3.737" r="3.237" style="fill:none"/>
        </g>
        <g data-name="타원 12550" transform="translate(884.096 177.575)" style="stroke:#8b5b36;fill:#fff">
            <circle cx="3.737" cy="3.737" r="3.737" style="stroke:none"/>
            <circle cx="3.737" cy="3.737" r="3.237" style="fill:none"/>
        </g>
        <g data-name="타원 12549" transform="translate(908.651 162.628)" style="stroke:#8b5b36;fill:#fff">
            <circle cx="3.737" cy="3.737" r="3.737" style="stroke:none"/>
            <circle cx="3.737" cy="3.737" r="3.237" style="fill:none"/>
        </g>
        <g data-name="타원 12548" transform="translate(871.286 75.088)" style="stroke:#8b5b36;fill:#fff">
            <circle cx="3.737" cy="3.737" r="3.737" style="stroke:none"/>
            <circle cx="3.737" cy="3.737" r="3.237" style="fill:none"/>
        </g>
        <g data-name="타원 12547" transform="translate(802.96 38.789)" style="stroke:#8b5b36;fill:#fff">
            <circle cx="3.737" cy="3.737" r="3.737" style="stroke:none"/>
            <circle cx="3.737" cy="3.737" r="3.237" style="fill:none"/>
        </g>
        <g data-name="타원 12546" transform="translate(996.194 104.98)" style="stroke:#8b5b36;fill:#fff">
            <circle cx="3.737" cy="3.737" r="3.737" style="stroke:none"/>
            <circle cx="3.737" cy="3.737" r="3.237" style="fill:none"/>
        </g>
        <g data-name="타원 12545" transform="translate(1207.578 83.628)" style="stroke:#8b5b36;fill:#fff">
            <circle cx="3.737" cy="3.737" r="3.737" style="stroke:none"/>
            <circle cx="3.737" cy="3.737" r="3.237" style="fill:none"/>
        </g>
        <g data-name="타원 12544" transform="translate(979.112 4.627)" style="stroke:#8b5b36;fill:#fff">
            <circle cx="3.737" cy="3.737" r="3.737" style="stroke:none"/>
            <circle cx="3.737" cy="3.737" r="3.237" style="fill:none"/>
        </g>
        <g data-name="타원 12543" transform="translate(952.422 41.992)" style="fill:#fff;stroke:#7751d2">
            <circle cx="3.737" cy="3.737" r="3.737" style="stroke:none"/>
            <circle cx="3.737" cy="3.737" r="3.237" style="fill:none"/>
        </g>
        <g data-name="타원 12542" transform="translate(881.963 338.784)" style="stroke:#8b5b36;fill:#fff">
            <circle cx="3.737" cy="3.737" r="3.737" style="stroke:none"/>
            <circle cx="3.737" cy="3.737" r="3.237" style="fill:none"/>
        </g>
        <g data-name="타원 12541" transform="translate(901.18 428.46)" style="stroke:#8b5b36;fill:#fff">
            <circle cx="3.737" cy="3.737" r="3.737" style="stroke:none"/>
            <circle cx="3.737" cy="3.737" r="3.237" style="fill:none"/>
        </g>
        <text transform="translate(879.627 345.811)" style="font-size:11px;fill:#b5b5b5;letter-spacing:-.03em;font-family:MalgunGothic,Malgun Gothic"><tspan x="-18.97" y="0">동탄</tspan><tspan y="0" style="font-family:SegoeUI,Segoe UI">2</tspan><tspan y="0">동</tspan></text>
        <path data-name="패스 19223" d="M14321.042-17354.334s11.032 52.67 4.982 54.094-9.964 13.164-18.5 12.453-51.6-10.318-60.853-8.541" transform="translate(-13361.857 17660.732)" style="stroke:#3a92ce;stroke-dasharray:3 4;stroke-width:3px;fill:none"/>
        <g data-name="타원 12540" transform="translate(881.963 360.134)" style="stroke:#8b5b36;fill:#fff">
            <circle cx="3.737" cy="3.737" r="3.737" style="stroke:none"/>
            <circle cx="3.737" cy="3.737" r="3.237" style="fill:none"/>
        </g>
        <g data-name="타원 12539" transform="translate(953.49 296.078)" style="fill:#fff;stroke:#7751d2">
            <circle cx="3.737" cy="3.737" r="3.737" style="stroke:none"/>
            <circle cx="3.737" cy="3.737" r="3.237" style="fill:none"/>
        </g>
        <path data-name="패스 19222" d="m14010-17363.229 39.855-55.168 32.739-4.27" transform="translate(-13377.854 17656.115)" style="stroke:#3a92ce;fill:none"/>
        <g data-name="그룹 17822">
            <g data-name="사각형 8729" transform="translate(661.069 396.433)" style="stroke:#5db8a3;fill:#090816">
                <rect width="42.704" height="25.622" rx="2" style="stroke:none"/>
                <rect x=".5" y=".5" width="41.704" height="24.622" rx="1.5" style="fill:none"/>
            </g>
            <text transform="translate(681.123 411.703)" style="fill:#5db8a3;font-size:10px;font-family:SegoeUI,Segoe UI;letter-spacing:-.03em"><tspan x="-8.169" y="0">KTX</tspan></text>
        </g>
        <g data-name="그룹 17821">
            <g data-name="사각형 8729" transform="translate(944.781 530.948)" style="stroke:#5db8a3;fill:#090816">
                <rect width="40.568" height="25.622" rx="2" style="stroke:none"/>
                <rect x=".5" y=".5" width="39.568" height="24.622" rx="1.5" style="fill:none"/>
            </g>
            <text transform="translate(964.834 546.218)" style="fill:#5db8a3;font-size:10px;font-family:SegoeUI,Segoe UI;letter-spacing:-.03em"><tspan x="-7.742" y="0">SRT</tspan></text>
        </g>
        <path data-name="패스 19221" d="m14120.018-17365.119 78.982-29.547" transform="translate(-13370.42 17658.006)" style="stroke:#ef626b;fill:none"/>
        <g data-name="타원 12538" transform="translate(824.312 259.78)" style="fill:#fff;stroke:#ef626b">
            <circle cx="3.737" cy="3.737" r="3.737" style="stroke:none"/>
            <circle cx="3.737" cy="3.737" r="3.237" style="fill:none"/>
        </g>
        <g data-name="타원 12537" transform="translate(700.472 229.889)" style="fill:#fff;stroke:#3a92ce">
            <circle cx="3.737" cy="3.737" r="3.737" style="stroke:none"/>
            <circle cx="3.737" cy="3.737" r="3.237" style="fill:none"/>
        </g>
        <path data-name="패스 19220" d="m14181.5-17549.682 45.373-36.832 6.94-23.486" transform="translate(-13366.263 17643.451)" style="stroke:#3a92ce;fill:none"/>
        <g data-name="타원 12536" transform="translate(811.502 90.034)" style="fill:#fff;stroke:#3a92ce">
            <circle cx="3.737" cy="3.737" r="3.737" style="stroke:none"/>
            <circle cx="3.737" cy="3.737" r="3.237" style="fill:none"/>
        </g>
        <g data-name="그룹 17820">
            <g data-name="사각형 8729" transform="translate(516.431 132.738)" style="stroke:#e275e2;fill:#090816">
                <rect width="83.272" height="25.622" rx="2" style="stroke:none"/>
                <rect x=".5" y=".5" width="82.272" height="24.622" rx="1.5" style="fill:none"/>
            </g>
            <text transform="translate(555.484 149.008)" style="fill:#e275e2;font-size:11px;letter-spacing:-.03em;font-family:MalgunGothic,Malgun Gothic"><tspan x="-26.84" y="0">수인분당선</tspan></text>
        </g>
        <path data-name="패스 19219" d="m14365.332-17340.836 17.8-10.5" transform="translate(-13353.836 17660.934)" style="stroke:#3a92ce;stroke-width:2px;fill:none"/>
        <g data-name="타원 12535" transform="translate(1007.937 316.362)" style="fill:#fff;stroke:#3a92ce">
            <circle cx="3.737" cy="3.737" r="3.737" style="stroke:none"/>
            <circle cx="3.737" cy="3.737" r="3.237" style="fill:none"/>
        </g>
        <path data-name="패스 19218" d="m14278.016-17363.217 25.605-59.781h41.635" transform="translate(-13359.738 17656.09)" style="stroke:#ef626b;fill:none"/>
        <g data-name="타원 12534" transform="translate(915.058 290.742)" style="fill:#fff;stroke:#ef626b">
            <circle cx="3.737" cy="3.737" r="3.737" style="stroke:none"/>
            <circle cx="3.737" cy="3.737" r="3.237" style="fill:none"/>
        </g>
        <path data-name="패스 19217" d="m14331.5-17472.117 30.96-13.883" transform="translate(-13356.124 17651.834)" style="stroke:#3a92ce;fill:none"/>
        <g data-name="타원 12533" transform="translate(971.64 176.509)" style="fill:#fff;stroke:#3a92ce">
            <circle cx="3.737" cy="3.737" r="3.737" style="stroke:none"/>
            <circle cx="3.737" cy="3.737" r="3.237" style="fill:none"/>
        </g>
        <path data-name="패스 19216" d="m14335.5-17542.371 56.049-18.684V-17576" transform="translate(-13355.854 17645.75)" style="stroke:#3a92ce;fill:none"/>
        <g data-name="그룹 17819">
            <g data-name="사각형 8729" transform="translate(1062.53 116.723)" style="fill:#090816;stroke:#98663f">
                <rect width="70.461" height="25.622" rx="2" style="stroke:none"/>
                <rect x=".5" y=".5" width="69.461" height="24.622" rx="1.5" style="fill:none"/>
            </g>
            <text transform="translate(1096.584 132.993)" style="fill:#a46f46;font-size:11px;letter-spacing:-.03em;font-family:MalgunGothic,Malgun Gothic"><tspan x="-21.505" y="0">에버라인</tspan></text>
        </g>
        <g data-name="타원 12532" transform="translate(975.909 99.643)" style="fill:#fff;stroke:#3a92ce">
            <circle cx="3.737" cy="3.737" r="3.737" style="stroke:none"/>
            <circle cx="3.737" cy="3.737" r="3.237" style="fill:none"/>
        </g>
        <path data-name="패스 19215" d="m14099.216-17124-19.214 29.895" transform="translate(-13373.124 17676.301)" style="stroke:#3a92ce;fill:none"/>
        <g data-name="타원 12531" transform="translate(702.607 577.922)" style="fill:#fff;stroke:#3a92ce">
            <circle cx="3.737" cy="3.737" r="3.737" style="stroke:none"/>
            <circle cx="3.737" cy="3.737" r="3.237" style="fill:none"/>
        </g>
        <g data-name="그룹 17829">
            <g data-name="사각형 8729" transform="translate(993.92 60.141)" style="stroke:#4a96c9;fill:#090816">
                <rect width="83.272" height="25.622" rx="2" style="stroke:none"/>
                <rect x=".5" y=".5" width="82.272" height="24.622" rx="1.5" style="fill:none"/>
            </g>
            <text transform="translate(1032.973 76.411)" style="fill:#4a96c9;font-size:11px;letter-spacing:-.03em;font-family:MalgunGothic,Malgun Gothic"><tspan x="-26.84" y="0">용인선연장</tspan></text>
        </g>
        <g data-name="그룹 17836">
            <g data-name="사각형 8729" transform="translate(1017.099 530.948)" style="stroke:#3a92ce;fill:#090816">
                <rect width="96.083" height="25.622" rx="2" style="stroke:none"/>
                <rect x=".5" y=".5" width="95.083" height="24.622" rx="1.5" style="fill:none"/>
            </g>
            <text data-name="수도권 내륙선" transform="translate(1062.225 547.218)" style="fill:#4a96c9;font-size:11px;letter-spacing:-.03em;font-family:MalgunGothic,Malgun Gothic"><tspan x="-33.517" y="0">수도권</tspan><tspan y="0" style="font-family:SegoeUI,Segoe UI"> </tspan><tspan y="0">내륙선</tspan></text>
        </g>
        <g data-name="그룹 17837">
            <g data-name="사각형 8729" transform="translate(878.026 486.111)" style="fill:#090816;stroke:#98663f">
                <rect width="59.785" height="25.622" rx="2" style="stroke:none"/>
                <rect x=".5" y=".5" width="58.785" height="24.622" rx="1.5" style="fill:none"/>
            </g>
            <text transform="translate(906.077 502.381)" style="fill:#a46f46;font-size:11px;letter-spacing:-.03em;font-family:MalgunGothic,Malgun Gothic"><tspan x="-16.17" y="0">경부선</tspan></text>
        </g>
    </g>
</svg>
