<svg xmlns="http://www.w3.org/2000/svg" width="1266" height="753" viewBox="0 0 1266 753">
    <defs>
        <clipPath id="crrr0n0d0a">
            <path data-name="사각형 4790" style="fill:none" d="M0 0h12.51v12.512H0z"/>
        </clipPath>
    </defs>
    <g data-name="그룹 20471">
        <path data-name="패스 15916" d="M474.524 271.428c.284-2.537.69-5.157 2.09-7.291a17.706 17.706 0 0 1 5.4-4.7l24.96-16.342-.516-.949c-1.041-1.913-2.848-3.068-3.579-5.121-1.479-4.148-5.884-6.66-10.246-7.273s-8.772.3-13.115 1.028a3.866 3.866 0 0 1-2.429-.128 3.928 3.928 0 0 1-1.484-1.9c-1.655-3.392-3.331-7.352-1.787-10.8.616-1.374 1.725-2.581 1.858-4.082a6.675 6.675 0 0 0-.621-2.886l-3.655-9.662a53.613 53.613 0 0 1-2.887-9.307c-.7-3.915-.535-7.927-.667-11.9a77.344 77.344 0 0 0-4.237-22.792 9.539 9.539 0 0 0-2.578-4.421c-3.467-2.852-8.58-.123-12.16 2.589l-9.4 7.117c-4.633 3.508-9.314 7.067-12.9 11.637-3.159 4.028-5.365 8.721-8.364 12.871a41.211 41.211 0 0 1-20.9 15.058 16.523 16.523 0 0 1-8.484.8c-3.776-.849-6.711-3.7-9.87-5.942s-7.326-3.971-10.81-2.287c-1.992.965-3.338 2.86-4.955 4.372a15.856 15.856 0 0 1-16.936 2.79 3.677 3.677 0 0 0-.455-1.024c-4.218 9.853-10.809 26.356-12.213 33.18a11.74 11.74 0 0 0 9.389 2.263 7.2 7.2 0 0 1 2.872-.291c2.092.452 2.857 2.944 3.635 4.935 2.472 6.335 8.359 10.559 12.752 15.753 4.243 5.021 7.121 11.032 10.783 16.489s8.46 10.6 14.769 12.455c1.749.514 3.626.783 5.126 1.819 5.245 3.615 1.825 12.53 5.5 17.73l.176-.09a92.459 92.459 0 0 0 29.162-22.071l20.049 58.64a5.321 5.321 0 0 0 .973 1.933 5.064 5.064 0 0 0 2.908 1.272 49.146 49.146 0 0 0 28.2-3.027 9.628 9.628 0 0 0 3.5-2.2c2.827-3.134 1.082-8.044-.576-11.924a112.294 112.294 0 0 1-8.28-56.324" transform="translate(43.186 -85.356)" style="fill:#b1b1b1;stroke:#6d6d6d"/>
        <path data-name="패스 15914" d="M394.039 287.94c-1.5-1.034-3.377-1.309-5.126-1.82-6.306-1.854-11.107-6.994-14.768-12.454s-6.54-11.468-10.783-16.49c-4.389-5.195-10.279-9.418-12.752-15.752-.779-1.993-1.543-4.486-3.635-4.935a7.183 7.183 0 0 0-2.872.29 11.747 11.747 0 0 1-9.389-2.261c1.4-6.825 7.994-23.325 12.213-33.181-1.618-2.57-6.121-2.518-9.043-4.193-3.534-2.028-4.585-6.693-7.6-9.434-4.765-4.331-13.732-3.366-16.455-9.2-.739-1.583-.947-3.59-2.4-4.557-1-.663-2.417-.679-3.177-1.611-.728-.9-.493-2.208-.21-3.323a172.1 172.1 0 0 1 9.148-26.723c2.618-5.983 5.64-12.409 4.159-18.769a16.213 16.213 0 0 1-.787-4.028 10.3 10.3 0 0 1 1.5-4.368c2.38-4.556 5.126-9.493 6.6-14.419a22.33 22.33 0 0 0 .932-6.338 2.841 2.841 0 0 0-.242-1.366 2.954 2.954 0 0 0-1.17-1.026 64.232 64.232 0 0 0-8.121-4.094 20.7 20.7 0 0 1-1.456 5.523 6.97 6.97 0 0 1-4.044 3.827c-2.288.693-4.834-.249-7.118.454a2.357 2.357 0 0 0-1.223.758 2.928 2.928 0 0 0-.108 2.542 41.429 41.429 0 0 0 5.9 11.877 3.811 3.811 0 0 0 2.014 1.771c.891.217 2.014-.574 1.736-1.447 2.181 1.813 2.442 5.054 2.133 7.872a30.165 30.165 0 0 1-1.813 7.483 25.641 25.641 0 0 0-2.858-4.028.976.976 0 0 0-.705-.435 1 1 0 0 0-.574.31l-2.337 2.057a6.932 6.932 0 0 0-2.518 3.361c-.367 1.591.413 3.361-.258 4.851a14.477 14.477 0 0 1-1.952 2.382 4.4 4.4 0 0 0-.4 4.474l1.41.042c-.7 3.114-2.814 6.445-6 6.537-1.335.039-2.618-.512-3.953-.591s-2.921.587-3.084 1.913c-.136 1.1.768 2.256.28 3.25a3.306 3.306 0 0 1-.734.844 5.175 5.175 0 0 0-1.582 4.177 4.163 4.163 0 0 0 2.683 3.46c1.541.518 3.36.009 4.763.828.414.242.784.806.466 1.162a.965.965 0 0 1-.588.242l-2.156.357c-.215.435.3.564.781.63-.6 2.285 1.617 4.834.5 6.92a4.244 4.244 0 0 1-1.588 1.49 15.114 15.114 0 0 1-7.09 2.228 11.426 11.426 0 0 0-3.419.4 2.6 2.6 0 0 0-1.845 2.6 5.245 5.245 0 0 1 .233 1.173c-.042.63-.6 1.078-1.117 1.45a78.6 78.6 0 0 0-12.564 11.429c-1.574 1.78-3.122 3.675-5.207 4.808-1.5.814-3.248 1.219-4.512 2.365-2.887 2.618-1.742 7.267-2.153 11.145a5.014 5.014 0 0 1-.528 1.933 5.437 5.437 0 0 1-2.511 2.045c-5.469 2.66-11.8 2.649-17.885 2.583l-11.87-.128a6.084 6.084 0 0 0-3.122.522 3.03 3.03 0 0 0-1.014.95c-1.269 1.913-.034 4.48 1.439 6.236s3.309 3.569 3.283 5.861c-.032 2.66-2.583 5.454-1.056 7.633a6.007 6.007 0 0 1 1.016 1.392c.4 1.224-.947 2.229-1.953 3.034a10.584 10.584 0 0 0-2.07 2.279 152 152 0 0 1 19.01 41.18c.251.865.715 1.914 1.611 1.923l-4.423 1.381c1.335 2.5.76 5.674-.723 8.09a24.426 24.426 0 0 1-5.968 5.992c-3.971 3.152-8.237 6.761-9.056 11.764-.612 3.736.9 7.553 3.137 10.6s5.178 5.506 7.917 8.117a84.9 84.9 0 0 1 11.534 13.564 12.1 12.1 0 0 1 2.395 5.284c.5 4.413-3.563 8.074-7.707 9.668-5.237 2.014-10.988 2.077-16.476 3.223s-11.216 3.88-13.394 9.048c-.748 1.774-.9 4.109.563 5.368a7.809 7.809 0 0 0 2.813 1.2c5.316 1.722 8.729 7.074 10.036 12.506a37.468 37.468 0 0 1 .9 6.4q14.455-4.75 29.016-9.175c6.207-1.884 14.315-3.117 17.969 2.241a11.511 11.511 0 0 0 1.78 2.486c1.9 1.61 5 .518 6.515-1.464s1.967-4.543 2.777-6.9c1.9-5.545 5.885-10.135 10.2-14.1a81.608 81.608 0 0 1 34.326-18.74c3.209-.843 6.718-1.634 8.838-4.187 2.435-2.933 2.216-7.151 2.852-10.9a22.312 22.312 0 0 1 9.105-14.374c.835-.582 1.8-1.239 1.92-2.249a3.4 3.4 0 0 0-.9-2.271l-3.709-5.142a7.762 7.762 0 0 1-1.644-3.277c-.579-3.968 5.332-6.069 8.738-3.952s4.834 6.245 6.536 9.871c2.115 4.519 5.1 8.775 9.288 11.5s9.7 3.7 14.266 1.687c.142-.063.278-.137.417-.2a26.183 26.183 0 0 0 6.425-4.979q2.6-2.491 5.2-4.985a13.465 13.465 0 0 0 2.663-3.137c1-1.837 1.093-4.011 1.44-6.075a29.6 29.6 0 0 1 1.8-6.114l-.176.09c-3.675-5.2-.255-14.117-5.5-17.731" transform="translate(42.303 -85.809)" style="fill:#b1b1b1;stroke:#6d6d6d"/>
        <path data-name="패스 15920" d="M447.1 339.19a49.432 49.432 0 0 0-9.541 10.083c-4.494 6.2-7.792 13.171-10.877 20.177-2.07 4.693-4.051 9.419-5.689 14.279a47.713 47.713 0 0 0-2.07 8.013 59.815 59.815 0 0 0-.353 10.26q.331 16.038.674 32.065c-2.446 1.561-3.751 4.682-5.5 7.15-7.083 10.039-21.528 9.6-33.759 11.589.066-2.324-.089-4.682-.1-6.983a51.308 51.308 0 0 1 5.7-23.767c1.018-1.97 2.191-4.272 1.273-6.286-.653-1.428-2.169-2.225-3.509-3.021-7.261-4.305-12.308-11.434-17.121-18.362-.277-.4-.564-.806-.841-1.218a47.676 47.676 0 0 1-1.506-2.336q-.233-.366-.432-.73c-.144-.243-.277-.5-.409-.741s-.266-.5-.388-.74v-.012a20.886 20.886 0 0 1-.676-1.539 16.176 16.176 0 0 1-.52-1.571 14.22 14.22 0 0 1-.343-1.628 11.634 11.634 0 0 1-.11-1.981 13.181 13.181 0 0 1 .165-1.639c.033-.211.078-.409.123-.62a22.888 22.888 0 0 1 2.024-5.191c.266-.531.542-1.051.819-1.583q.482-.9.93-1.794c.266-.5.509-1 .73-1.506a40.759 40.759 0 0 1 5.246 1.262c4.916 1.549 9.541 4.23 14.665 4.727a8.559 8.559 0 0 0 4.261-.476 4.222 4.222 0 0 0 2.591-3.232c.365-3.53-4.794-5.977-4.129-9.466a4.245 4.245 0 0 1 2.933-2.989 12.437 12.437 0 0 1 4.339-.41c3.3.089 6.608.167 9.906.244 3.575.089 7.405.111 10.415-1.826a.985.985 0 0 0 .531-.641c.055-.321-.21-.6-.454-.84-10.338-9.971-22.468-18.028-32.608-28.18a41.843 41.843 0 0 0 3.8-3.344c1.737-1.661 3.463-3.33 5.2-4.992a13.537 13.537 0 0 0 2.668-3.132c1-1.836 1.085-4.016 1.439-6.077a29.309 29.309 0 0 1 1.793-6.11 92.446 92.446 0 0 0 29.166-22.071q9.778 28.582 19.547 57.183" transform="translate(43.383 -84.432)" style="fill:#b1b1b1;stroke:#6d6d6d"/>
        <path data-name="패스 15922" d="M417.178 356.588a.981.981 0 0 1-.532.642c-3.01 1.938-6.84 1.914-10.415 1.826-3.3-.078-6.608-.155-9.906-.243a12.417 12.417 0 0 0-4.339.41 4.244 4.244 0 0 0-2.933 2.988c-.665 3.487 4.494 5.933 4.129 9.467a4.223 4.223 0 0 1-2.591 3.232 8.559 8.559 0 0 1-4.261.476c-5.124-.5-9.75-3.176-14.665-4.726a40.753 40.753 0 0 0-5.246-1.262c-.233.51-.476 1.007-.73 1.506q-.447.9-.929 1.793c-.277.531-.554 1.051-.819 1.583a22.934 22.934 0 0 0-2.024 5.191c-.045.211-.09.41-.123.62a13.332 13.332 0 0 0-.165 1.638 11.631 11.631 0 0 0 .11 1.981 14.2 14.2 0 0 0 .343 1.626 11.887 11.887 0 0 0 .52 1.572c.2.52.432 1.029.676 1.539v.011c.122.244.255.487.388.742s.255.487.41.741q.2.366.432.73c.475.8.985 1.572 1.506 2.336a118.319 118.319 0 0 0-9.663 8.877c-4.783 4.916-9.367 10.416-15.674 13.116a26.214 26.214 0 0 1-8.523 1.937 14.93 14.93 0 0 0 2.712-1.948c1.65-1.694 1.97-4.284 1.782-6.63-.675-8.124-6.253-14.854-11.256-21.3a231.184 231.184 0 0 1-18.063-26.985 80.921 80.921 0 0 1 18.462-7.371c3.21-.841 6.718-1.628 8.832-4.184 2.435-2.934 2.216-7.15 2.855-10.9a22.269 22.269 0 0 1 9.109-14.377c.83-.576 1.793-1.24 1.913-2.247a3.4 3.4 0 0 0-.9-2.269q-1.858-2.573-3.708-5.146a7.671 7.671 0 0 1-1.649-3.276c-.576-3.973 5.338-6.066 8.744-3.951s4.826 6.244 6.53 9.87c2.115 4.516 5.1 8.777 9.286 11.5s9.707 3.7 14.268 1.683c.144-.066.277-.133.421-.2a15.69 15.69 0 0 0 2.618-1.639c10.138 10.15 22.27 18.207 32.608 28.18.248.233.512.521.456.841" transform="translate(43 -84.264)" style="fill:#b1b1b1;stroke:#6d6d6d"/>
        <path data-name="패스 15924" d="M563.149 354.631a25.036 25.036 0 0 0 1.86 25.269l3.043 6.286a17.7 17.7 0 0 1-1.107 12.629 16.634 16.634 0 0 1-3.021 4.394c-4.117 4.3-10.777 7.095-11.666 12.983-.342 2.336.354 4.682.8 7.006 2.1 11.057-1.74 22.257-4.817 33.083-.187.642-.366 1.3-.543 1.948a15.285 15.285 0 0 1-8.1-1.848 11.868 11.868 0 0 0-2.668-1.483c-1.273-.366-2.618-.033-3.939-.055-3.123-.044-5.842-2.036-8.336-3.929-1.24-.951-2.546-1.992-2.966-3.5-.719-2.635 1.606-5.136 1.848-7.855a3.361 3.361 0 0 0-.7-2.568c-1.285-1.461-3.709-.907-5.339.155s-3.1 2.579-5.024 2.844c-2.425.343-4.616-1.417-6.233-3.254s-3.164-3.941-5.477-4.727c-2.258-.774-4.726-.088-7.006.605q-21.667 6.608-42.7 15.075c-.443-.6-.906-1.184-1.384-1.737a36.89 36.89 0 0 0-25.833-12.619 9.806 9.806 0 0 0-3.894.4 5.944 5.944 0 0 0-1.251.63q-.349-16.023-.675-32.066a59.918 59.918 0 0 1 .352-10.26 47.614 47.614 0 0 1 2.07-8.013c1.639-4.858 3.62-9.585 5.689-14.278 3.089-7.006 6.387-13.979 10.877-20.179a49.434 49.434 0 0 1 9.541-10.082c.166.487.332.963.5 1.45a5.627 5.627 0 0 0 .974 1.937 5.074 5.074 0 0 0 2.912 1.273 49.13 49.13 0 0 0 28.2-3.033 9.648 9.648 0 0 0 3.5-2.191c2.821-3.143 1.085-8.048-.575-11.932a112.3 112.3 0 0 1-8.29-56.316c.288-2.535.687-5.157 2.092-7.3a17.716 17.716 0 0 1 5.4-4.7q12.488-8.169 24.959-16.338l11.356 20.887c2.911 5.337 5.988 10.869 10.968 14.343 5.025 3.52 11.634 4.65 15.995 8.976 3.11 3.088 4.725 7.5 8.079 10.339 3.045 2.557 7.128 3.486 10.493 5.623 5.7 3.608 9.054 10.481 15.275 13.1a13.193 13.193 0 0 0 1.694.577c-.287 4.527-2 9.075-3.708 13.347-2.316 5.823-4.649 11.678-8.025 16.957-1.717 2.711-3.731 5.257-5.193 8.134" transform="translate(43.787 -84.711)" style="fill:#b1b1b1;stroke:#6d6d6d"/>
        <path data-name="패스 15928" d="M736.439 542.43a173.828 173.828 0 0 1-19.5 18.351c-10.792 8.479-23.332 15.153-36.914 17.134-8.089 1.184-16.391.686-24.383 2.369a45.944 45.944 0 0 0-25.49 15.252c-5.2 6.176-8.646 13.6-12.044 20.919-9.287 20.068-18.631 40.267-26.132 61.042-3.265 9-6.177 18.12-8.6 27.372a8.727 8.727 0 0 0-.4-.277 14.07 14.07 0 0 0-4.539-1.506q-8.5-1.762-17.011-3.531c-8.235-1.705-16.591-3.424-24.981-2.9a16.45 16.45 0 0 1-6.032-.233c-1.926-.619-3.664-2.4-3.453-4.416q-7.688.314-15.352.641a3.8 3.8 0 0 1-1.992-.277c-1.794-.974-.951-3.631-.92-5.667.112-6.021-8.278-8.512-10.425-14.123-.874-2.271-.62-4.815-1.217-7.173-1.883-7.471-11.682-11.456-12.186-19.135 1.261-.089 1.661-3.187.94-4.23s-1.926-1.671-2.568-2.756a6.638 6.638 0 0 1-.642-3.154l-.6-17.965a10.058 10.058 0 0 1 .666-4.9c2.057-4.062 8.167-3.564 11.72-6.42 0-2.468-2.617-3.984-3.983-6.032-3.4-5.125 1.65-12.143-.111-18.019-.454-1.539-1.362-3.209-.575-4.6.442-.8 1.34-1.251 1.759-2.058a4.09 4.09 0 0 0 .244-2.316 122.019 122.019 0 0 0-3.055-18.075 15.215 15.215 0 0 0-1.472-4.1 32.4 32.4 0 0 1-1.769-2.833c-1.007-2.236-.4-4.815.221-7.184-.388-.1-.785-.188-1.184-.267a117.49 117.49 0 0 0 10.294-19.28 3.5 3.5 0 0 1 1.495-2 3.455 3.455 0 0 1 1.87-.111c9.253 1.2 18.961 2.578 26.441 8.157 2.18 1.638 4.118 3.6 6.366 5.147 4.318 2.977 9.519 4.315 14.6 5.6a7.431 7.431 0 0 0 3.642.309c3.188-.785 3.9-4.934 3.94-8.224q.184-11.821.188-23.63a30.607 30.607 0 0 0-1.018-9.53c-1.14-3.5-3.475-6.464-5.092-9.77-4.633-9.518-2.921-20.745-.144-31.046a95.07 95.07 0 0 1 .542-1.949c3.076-10.824 6.918-22.026 4.816-33.083-.444-2.324-1.141-4.671-.8-7.006.885-5.889 7.553-8.688 11.666-12.983a16.646 16.646 0 0 0 3.021-4.394c23.984-.874 48.039-1.273 71.88.664q.2 42.8 1.294 85.592c.11 4.5.266 9.131 1.958 13.314s5.3 7.893 9.784 8.39c6.189.7 11.324-4.57 17.257-6.453 1.505 5.877-5.2 10.615-6.42 16.559-.93 4.56 1.638 9.265 5.257 12.174s8.169 4.417 12.6 5.856c10.238 3.309 20.645 6.663 31.4 7.16.356.022.72.022 1.085.022.012-.011.012-.011.023 0a20.327 20.327 0 0 0 4.316-.443 59.492 59.492 0 0 1 17.544 1.483c.73.179 1.448.368 2.18.545" transform="translate(44.244 -83.616)" style="fill:#b1b1b1;stroke:#6d6d6d"/>
        <path data-name="패스 15932" d="M960.869 386.424c-2.256 3.52-7.492 5.213-7.955 9.375a169.6 169.6 0 0 1-3.431 18.817c-.41 1.771-.919 3.686-2.37 4.76-1.461 1.1-3.5 1.029-5.125 1.848-4.029 2-3.751 7.781-5.9 11.733-.919 1.694-2.38 3.187-2.68 5.091a5.384 5.384 0 0 0 .144 2.18c-7.693 2.147-14.965 7.04-22.646 9.851-11.783 4.294-24.7 3.608-37.19 4.859-10.238 1.029-20.52 3.487-29.307 8.854a22.919 22.919 0 0 0-24.838-5.114c-.1-.554-.2-1.118-.309-1.672q-2.89-15.955-5.8-31.9c-.255-1.373-.565-2.866-1.649-3.764a6.106 6.106 0 0 0-3.84-.974l-20.455-.464a27.844 27.844 0 0 1-8.135-1c-2.756-.917-5.136-2.655-7.616-4.16-24.3-14.754-55.39-6.21-83.71-8.666-8.412-.731-16.718-2.469-25.048-3.841-8.612-1.417-17.256-2.435-25.932-3.132-23.842-1.937-47.893-1.539-71.88-.664a17.692 17.692 0 0 0 1.108-12.629l-3.044-6.288a25.034 25.034 0 0 1-1.858-25.268c1.46-2.878 3.475-5.423 5.2-8.136 3.375-5.278 5.71-11.133 8.024-16.957 1.7-4.271 3.424-8.821 3.708-13.347 4.6 1.262 9.729.122 14.168-1.86 4.982-2.214 9.5-5.412 14.521-7.537 11.3-4.77 24.17-3.752 36.061-6.746 7.139-1.8 13.869-5.036 21.086-6.476 16.013-3.2 32.375 2.745 48.713 2.812 15.926.067 32.175-5.438 47.5-1.118.9 3.409 5.246 5.611 8.722 6.232s7.039.21 10.537.618c5.8.688 11.089 3.627 16.779 4.959 6.164 1.428 12.662.953 18.794 2.5 11.19 2.834 21.108 12.307 32.508 10.474 4.017-.644 7.671-2.68 11.212-4.682l17.4-9.83a64.27 64.27 0 0 1 29.951-10.16q11.49-1.644 22.991-3.277c-1.574 5.545 6.728 9.651 6.484 15.409-.132 3.232-2.933 5.667-4.129 8.677-1.073 2.7-.8 5.722-.52 8.612.542 5.567 1.151 11.324 3.909 16.194 2.49 4.393 6.585 7.791 8.576 12.429 1.007 2.324 1.428 4.881 2.513 7.161 2.316 4.881 7.207 7.9 11.026 11.734s6.645 9.926 3.722 14.478" transform="translate(44.785 -84.362)" style="fill:#b1b1b1;stroke:#6d6d6d"/>
        <path data-name="패스 15938" d="M981.4 501.584c-1.472 2.29-1.217 5.224-1.129 7.936a50.423 50.423 0 0 1-9.73 31.257 5.75 5.75 0 0 0-1.472 3.077 4.857 4.857 0 0 0 1.15 2.91c2.479 3.477 5.912 6.178 8.446 9.6s4.129 8.112 2.269 11.942a16.48 16.48 0 0 1-2.048 2.965q-7.305 9.1-13.857 18.773c-4.053-1.318-8.17 3.686-12.343 2.832a5.986 5.986 0 0 0-1.8-.3 3.707 3.707 0 0 0-1.859 1.028c-3.276 2.768-6.729 5.789-7.869 9.918-.8 2.856-.41 6.033-1.793 8.644-1.594 3-5.258 4.7-6.177 7.98-.365 1.339-.221 2.767-.509 4.118-.676 3.076-3.431 5.167-6 6.984q-3.106 2.19-6.187 4.383a5.434 5.434 0 0 1-1.75.929c-.654.166-1.34.078-1.982.234-2.235.509-3.253 3.52-5.512 3.907-2.3.388-4.195-2.2-6.53-2.18-1.683.021-3.054 1.395-4.7 1.712-2.3.442-4.417-1.2-6.576-2.081-3.775-1.561-8.134-.841-11.921.7s-7.2 3.827-10.89 5.566a4.082 4.082 0 0 1-2.513.554 5.978 5.978 0 0 1-1.937-1.073c-3.852-2.557-8.943-1.163-13.515-.42a42.479 42.479 0 0 1-13.182.033c-2.635-.41-5.339-1.075-7.937-.487s-5.069 2.954-4.637 5.6a9.563 9.563 0 0 0 1.539 3.244A20.236 20.236 0 0 1 831.1 665.1c2.3 3.166 1.05 8.523-1.914 11.078-2.014 1.739-4.732 2.336-7.2 3.309s-5.005 2.69-5.471 5.313a26.485 26.485 0 0 1-.331 3.277c-.753 2.4-3.629 3.2-5.922 4.216a8.473 8.473 0 0 0-.507.243h-.011a51.208 51.208 0 0 0-15.007-3c-4.438-.211-8.932.166-13.315-.6-3.232-.554-6.345-1.711-9.574-2.225-5.192-.818-10.493.057-15.751-.166a38.27 38.27 0 0 1-27.415-13.514c-1.881-2.246-3.643-4.826-6.353-5.911-2.59-1.039-5.5-.5-8.236-.011a168.063 168.063 0 0 1-32.652 2.557c-5.8-.122-11.654-.542-17.4.278-5.258.74-10.316 2.5-15.429 3.917-18.772 5.193-38.563 5.756-57.944 3.323 7.5-20.775 16.847-40.974 26.133-61.041 3.4-7.318 6.84-14.744 12.044-20.92a45.937 45.937 0 0 1 25.489-15.251c7.993-1.684 16.295-1.185 24.384-2.37 13.582-1.98 26.122-8.655 36.914-17.133a173.745 173.745 0 0 0 19.5-18.352c-.731-.177-1.451-.364-2.18-.542a59.487 59.487 0 0 0-17.544-1.485c3.033-.664 5.677-2.18 6.552-5.047.53-1.759.232-3.752 1.085-5.391 1.981-3.839 8.887-3.508 9.884-7.713.42-1.748-.474-3.5-1.129-5.169a20.846 20.846 0 0 1-1.438-8.411 3.7 3.7 0 0 1 .63-2.28 4.126 4.126 0 0 1 2.4-1.085 85.521 85.521 0 0 0 21.274-7.681c2.059-1.064 4.272-2.492 4.727-4.761.729-3.686-3.442-6.3-5.081-9.673-2.866-5.9 2.424-12.341 7.271-16.758 1.893-1.737 3.919-3.542 6.446-4.095 1.824-.4 3.75-.09 5.565-.52a20.641 20.641 0 0 0 4.538-2.071c11.234-5.767 24.86-1.3 37.364-2.966a35.48 35.48 0 0 0 3.541-.655c.111.554.211 1.119.311 1.672a22.919 22.919 0 0 1 24.836 5.113c8.789-5.368 19.07-7.825 29.307-8.854 12.488-1.251 25.4-.564 37.19-4.859 7.681-2.812 14.953-7.7 22.647-9.849 1.028 3.985 5.81 7.638 3.985 11.367a63.921 63.921 0 0 0 15.861-2.049c.8 6.642 4.349 12.7 8.722 17.754s9.606 9.3 14.566 13.8c2.789 2.534 5.555 5.237 7.149 8.655s1.783 7.714-.442 10.759c-.567.788-1.262 1.451-1.774 2.261" transform="translate(45.014 -83.317)" style="fill:#b1b1b1;stroke:#6d6d6d"/>
        <text transform="translate(538.971 393.918)" style="letter-spacing:-.03em;font-family:MalgunGothic,Malgun Gothic;font-size:12px;fill:#8a8a8a"><tspan x="-20.694" y="0">동탄</tspan><tspan y="0" style="font-family:SegoeUI,Segoe UI">2</tspan><tspan y="0">동</tspan></text>
        <text transform="translate(329.791 320.492)" style="font-size:13px;letter-spacing:-.03em;font-family:MalgunGothic,Malgun Gothic;fill:#8a8a8a"><tspan x="-22.419" y="0">병점</tspan><tspan y="0" style="font-family:SegoeUI,Segoe UI">1</tspan><tspan y="0">동</tspan></text>
        <text transform="translate(523.697 304.408)" style="font-size:13px;letter-spacing:-.03em;font-family:MalgunGothic,Malgun Gothic;fill:#8a8a8a"><tspan x="-22.419" y="0">동탄</tspan><tspan y="0" style="font-family:SegoeUI,Segoe UI">1</tspan><tspan y="0">동</tspan></text>
        <text transform="translate(592.502 496.529)" style="font-size:13px;letter-spacing:-.03em;font-family:MalgunGothic,Malgun Gothic;fill:#8a8a8a"><tspan x="-22.419" y="0">동탄</tspan><tspan y="0" style="font-family:SegoeUI,Segoe UI">6</tspan><tspan y="0">동</tspan></text>
        <text transform="translate(901.684 468.828)" style="font-size:13px;letter-spacing:-.03em;font-family:MalgunGothic,Malgun Gothic;fill:#8a8a8a"><tspan x="-22.419" y="0">동탄</tspan><tspan y="0" style="font-family:SegoeUI,Segoe UI">7</tspan><tspan y="0">동</tspan></text>
        <text transform="translate(768.537 668.992)" style="font-size:13px;letter-spacing:-.03em;font-family:MalgunGothic,Malgun Gothic;fill:#8a8a8a"><tspan x="-22.419" y="0">동탄</tspan><tspan y="0" style="font-family:SegoeUI,Segoe UI">8</tspan><tspan y="0">동</tspan></text>
        <path data-name="패스 15917" d="M474.524 271.428c.284-2.537.69-5.157 2.09-7.291a17.706 17.706 0 0 1 5.4-4.7l24.96-16.342-.516-.949c-1.041-1.913-2.848-3.068-3.579-5.121-1.479-4.148-5.884-6.66-10.246-7.273s-8.772.3-13.115 1.028a3.866 3.866 0 0 1-2.429-.128 3.928 3.928 0 0 1-1.484-1.9c-1.655-3.392-3.331-7.352-1.787-10.8.616-1.374 1.725-2.581 1.858-4.082a6.675 6.675 0 0 0-.621-2.886l-3.655-9.662a53.613 53.613 0 0 1-2.887-9.307c-.7-3.915-.535-7.927-.667-11.9a77.344 77.344 0 0 0-4.237-22.792 9.539 9.539 0 0 0-2.578-4.421c-3.467-2.852-8.58-.123-12.16 2.589l-9.4 7.117c-4.633 3.508-9.314 7.067-12.9 11.637-3.159 4.028-5.365 8.721-8.364 12.871a41.211 41.211 0 0 1-20.9 15.058 16.523 16.523 0 0 1-8.484.8c-3.776-.849-6.711-3.7-9.87-5.942s-7.326-3.971-10.81-2.287c-1.992.965-3.338 2.86-4.955 4.372a15.856 15.856 0 0 1-16.936 2.79 3.677 3.677 0 0 0-.455-1.024c-4.218 9.853-10.809 26.356-12.213 33.18a11.74 11.74 0 0 0 9.389 2.263 7.2 7.2 0 0 1 2.872-.291c2.092.452 2.857 2.944 3.635 4.935 2.472 6.335 8.359 10.559 12.752 15.753 4.243 5.021 7.121 11.032 10.783 16.489s8.46 10.6 14.769 12.455c1.749.514 3.626.783 5.126 1.819 5.245 3.615 1.825 12.53 5.5 17.73l.176-.09a92.459 92.459 0 0 0 29.162-22.071l20.049 58.64a5.321 5.321 0 0 0 .973 1.933 5.064 5.064 0 0 0 2.908 1.272 49.146 49.146 0 0 0 28.2-3.027 9.628 9.628 0 0 0 3.5-2.2c2.827-3.134 1.082-8.044-.576-11.924a112.294 112.294 0 0 1-8.278-56.321z" transform="translate(43.186 -85.356)" style="stroke-linecap:round;stroke-linejoin:round;stroke:#8d8d8d;fill:none"/>
        <path data-name="패스 15954" d="M640.9 369.559a4.028 4.028 0 1 1-4.029-4.028 4.029 4.029 0 0 1 4.029 4.028" transform="translate(45.314 -86.84)" style="fill:#ef626b"/>
        <path data-name="패스 15959" d="M517.164 290.757a4.028 4.028 0 1 1-4.028-4.028 4.029 4.029 0 0 1 4.028 4.028" transform="translate(44.439 -84.397)" style="fill:#69afdf"/>
        <path data-name="패스 15960" d="M530 328.9a4.028 4.028 0 1 1-4.028-4.028A4.028 4.028 0 0 1 530 328.9" transform="translate(44.527 -84.129)" style="fill:#69afdf"/>
        <path data-name="패스 15961" d="M551.382 364.353a4.028 4.028 0 1 1-4.028-4.028 4.029 4.029 0 0 1 4.028 4.028" transform="translate(44.68 -83.877)" style="fill:#69afdf"/>
        <path data-name="패스 15962" d="M601.1 365.559a4.028 4.028 0 1 1-4.028-4.028 4.029 4.029 0 0 1 4.028 4.028" transform="translate(45.033 -83.867)" style="fill:#69afdf"/>
        <g data-name="사각형 6961" transform="translate(675.299 251.011)" style="stroke:#ef626b;fill:#090816">
            <rect width="42.466" height="25.951" rx="2" style="stroke:none"/>
            <rect x=".5" y=".5" width="41.466" height="24.951" rx="1.5" style="fill:none"/>
        </g>
        <text data-name="103" transform="translate(514.156 208.562)" style="fill:#69afdf;font-size:13px;font-family:SegoeUI,Segoe UI;letter-spacing:-.03em"><tspan x="0" y="0">103</tspan></text>
        <text data-name="102" transform="translate(530.736 245.711)" style="font-size:14px;fill:#69afdf;font-family:SegoeUI,Segoe UI;letter-spacing:-.03em"><tspan x="0" y="0">102</tspan></text>
        <text data-name="202" transform="translate(686.531 267.913)" style="fill:#ef626b;font-size:13px;font-family:SegoeUI,Segoe UI;letter-spacing:-.03em"><tspan x="0" y="0">202</tspan></text>
        <text transform="translate(321.426 188.851)" style="font-size:13px;letter-spacing:-.03em;font-family:MalgunGothic,Malgun Gothic;fill:#8a8a8a"><tspan x="-19.11" y="0">진안동</tspan></text>
        <text transform="translate(400 271.883)" style="font-size:13px;letter-spacing:-.03em;font-family:MalgunGothic,Malgun Gothic;fill:#8a8a8a"><tspan x="-22.419" y="0">병점</tspan><tspan y="0" style="font-family:SegoeUI,Segoe UI">2</tspan><tspan y="0">동</tspan></text>
        <text transform="translate(456.568 244.429)" style="font-size:13px;letter-spacing:-.03em;font-family:MalgunGothic,Malgun Gothic;fill:#8a8a8a"><tspan x="-22.419" y="0">동탄</tspan><tspan y="0" style="font-family:SegoeUI,Segoe UI">3</tspan><tspan y="0">동</tspan></text>
        <text transform="translate(773.9 254.369)" style="font-size:13px;letter-spacing:-.03em;font-family:MalgunGothic,Malgun Gothic;fill:#8a8a8a"><tspan x="-22.419" y="0">동탄</tspan><tspan y="0" style="font-family:SegoeUI,Segoe UI">5</tspan><tspan y="0">동</tspan></text>
        <path data-name="패스 15915" d="M394.039 287.94c-1.5-1.034-3.377-1.309-5.126-1.82-6.306-1.854-11.107-6.994-14.768-12.454s-6.54-11.468-10.783-16.49c-4.389-5.195-10.279-9.418-12.752-15.752-.779-1.993-1.543-4.486-3.635-4.935a7.183 7.183 0 0 0-2.872.29 11.747 11.747 0 0 1-9.389-2.261c1.4-6.825 7.994-23.325 12.213-33.181-1.618-2.57-6.121-2.518-9.043-4.193-3.534-2.028-4.585-6.693-7.6-9.434-4.765-4.331-13.732-3.366-16.455-9.2-.739-1.583-.947-3.59-2.4-4.557-1-.663-2.417-.679-3.177-1.611-.728-.9-.493-2.208-.21-3.323a172.1 172.1 0 0 1 9.148-26.723c2.618-5.983 5.64-12.409 4.159-18.769a16.213 16.213 0 0 1-.787-4.028 10.3 10.3 0 0 1 1.5-4.368c2.38-4.556 5.126-9.493 6.6-14.419a22.33 22.33 0 0 0 .932-6.338 2.841 2.841 0 0 0-.242-1.366 2.954 2.954 0 0 0-1.17-1.026 64.232 64.232 0 0 0-8.121-4.094 20.7 20.7 0 0 1-1.456 5.523 6.97 6.97 0 0 1-4.044 3.827c-2.288.693-4.834-.249-7.118.454a2.357 2.357 0 0 0-1.223.758 2.928 2.928 0 0 0-.108 2.542 41.429 41.429 0 0 0 5.9 11.877 3.811 3.811 0 0 0 2.014 1.771c.891.217 2.014-.574 1.736-1.447 2.181 1.813 2.442 5.054 2.133 7.872a30.165 30.165 0 0 1-1.813 7.483 25.641 25.641 0 0 0-2.858-4.028.976.976 0 0 0-.705-.435 1 1 0 0 0-.574.31l-2.337 2.057a6.932 6.932 0 0 0-2.518 3.361c-.367 1.591.413 3.361-.258 4.851a14.477 14.477 0 0 1-1.952 2.382 4.4 4.4 0 0 0-.4 4.474l1.41.042c-.7 3.114-2.814 6.445-6 6.537-1.335.039-2.618-.512-3.953-.591s-2.921.587-3.084 1.913c-.136 1.1.768 2.256.28 3.25a3.306 3.306 0 0 1-.734.844 5.175 5.175 0 0 0-1.582 4.177 4.163 4.163 0 0 0 2.683 3.46c1.541.518 3.36.009 4.763.828.414.242.784.806.466 1.162a.965.965 0 0 1-.588.242l-2.156.357c-.215.435.3.564.781.63-.6 2.285 1.617 4.834.5 6.92a4.244 4.244 0 0 1-1.588 1.49 15.114 15.114 0 0 1-7.09 2.228 11.426 11.426 0 0 0-3.419.4 2.6 2.6 0 0 0-1.845 2.6 5.245 5.245 0 0 1 .233 1.173c-.042.63-.6 1.078-1.117 1.45a78.6 78.6 0 0 0-12.564 11.429c-1.574 1.78-3.122 3.675-5.207 4.808-1.5.814-3.248 1.219-4.512 2.365-2.887 2.618-1.742 7.267-2.153 11.145a5.014 5.014 0 0 1-.528 1.933 5.437 5.437 0 0 1-2.511 2.045c-5.469 2.66-11.8 2.649-17.885 2.583l-11.87-.128a6.084 6.084 0 0 0-3.122.522 3.03 3.03 0 0 0-1.014.95c-1.269 1.913-.034 4.48 1.439 6.236s3.309 3.569 3.283 5.861c-.032 2.66-2.583 5.454-1.056 7.633a6.007 6.007 0 0 1 1.016 1.392c.4 1.224-.947 2.229-1.953 3.034a10.584 10.584 0 0 0-2.07 2.279 152 152 0 0 1 19.01 41.18c.251.865.715 1.914 1.611 1.923l-4.423 1.381c1.335 2.5.76 5.674-.723 8.09a24.426 24.426 0 0 1-5.968 5.992c-3.971 3.152-8.237 6.761-9.056 11.764-.612 3.736.9 7.553 3.137 10.6s5.178 5.506 7.917 8.117a84.9 84.9 0 0 1 11.534 13.564 12.1 12.1 0 0 1 2.395 5.284c.5 4.413-3.563 8.074-7.707 9.668-5.237 2.014-10.988 2.077-16.476 3.223s-11.216 3.88-13.394 9.048c-.748 1.774-.9 4.109.563 5.368a7.809 7.809 0 0 0 2.813 1.2c5.316 1.722 8.729 7.074 10.036 12.506a37.468 37.468 0 0 1 .9 6.4q14.455-4.75 29.016-9.175c6.207-1.884 14.315-3.117 17.969 2.241a11.511 11.511 0 0 0 1.78 2.486c1.9 1.61 5 .518 6.515-1.464s1.967-4.543 2.777-6.9c1.9-5.545 5.885-10.135 10.2-14.1a81.608 81.608 0 0 1 34.326-18.74c3.209-.843 6.718-1.634 8.838-4.187 2.435-2.933 2.216-7.151 2.852-10.9a22.312 22.312 0 0 1 9.105-14.374c.835-.582 1.8-1.239 1.92-2.249a3.4 3.4 0 0 0-.9-2.271l-3.709-5.142a7.762 7.762 0 0 1-1.644-3.277c-.579-3.968 5.332-6.069 8.738-3.952s4.834 6.245 6.536 9.871c2.115 4.519 5.1 8.775 9.288 11.5s9.7 3.7 14.266 1.687c.142-.063.278-.137.417-.2a26.183 26.183 0 0 0 6.425-4.979q2.6-2.491 5.2-4.985a13.465 13.465 0 0 0 2.663-3.137c1-1.837 1.093-4.011 1.44-6.075a29.6 29.6 0 0 1 1.8-6.114l-.176.09c-3.68-5.212-.26-14.127-5.505-17.741z" transform="translate(42.303 -85.809)" style="stroke:#939393;stroke-linecap:round;stroke-linejoin:round;fill:none"/>
        <path data-name="패스 15918" d="M386.8 421.479a51.305 51.305 0 0 0-5.7 23.767c.011 2.3.166 4.66.1 6.984l-1.029.166c-6.9 1.218-13.559 3.653-20.532 4.316-11.556 1.108-22.59-2.668-33.172-7.855-5.667-2.779-11.19-5.966-16.591-9.021-11.29-6.4-23.51-12.607-36.47-11.964-7.527.377-14.765 3.066-22.257 3.808-4.892.487-10.05.2-14.466 2.358-.354.177-.686.354-1.018.554-4.449-7.416-11.345-21.783-11.555-26.354-.166-3.424-.1-6.873-.321-10.282q14.461-4.748 29.022-9.176c6.21-1.881 14.312-3.122 17.964 2.247a11.778 11.778 0 0 0 1.782 2.479c1.9 1.611 5 .52 6.519-1.461s1.959-4.549 2.779-6.907c1.9-5.545 5.877-10.127 10.2-14.1a81.176 81.176 0 0 1 15.861-11.367 231.192 231.192 0 0 0 18.063 26.984c5 6.445 10.582 13.172 11.256 21.3.188 2.347-.133 4.935-1.782 6.63a14.887 14.887 0 0 1-2.712 1.948 26.266 26.266 0 0 0 8.523-1.937c6.309-2.7 10.892-8.2 15.672-13.116a117.93 117.93 0 0 1 9.662-8.877c.277.409.565.819.841 1.218 4.815 6.929 9.862 14.057 17.121 18.362 1.339.8 2.855 1.594 3.509 3.021.919 2.006-.255 4.308-1.273 6.278" transform="translate(42.41 -83.879)" style="fill:#b1b1b1;stroke:#6d6d6d"/>
        <path data-name="패스 15919" d="M386.8 421.479a51.305 51.305 0 0 0-5.7 23.767c.011 2.3.166 4.66.1 6.984l-1.029.166c-6.9 1.218-13.559 3.653-20.532 4.316-11.556 1.108-22.59-2.668-33.172-7.855-5.667-2.779-11.19-5.966-16.591-9.021-11.29-6.4-23.51-12.607-36.47-11.964-7.527.377-14.765 3.066-22.257 3.808-4.892.487-10.05.2-14.466 2.358-.354.177-.686.354-1.018.554-4.449-7.416-11.345-21.783-11.555-26.354-.166-3.424-.1-6.873-.321-10.282q14.461-4.748 29.022-9.176c6.21-1.881 14.312-3.122 17.964 2.247a11.778 11.778 0 0 0 1.782 2.479c1.9 1.611 5 .52 6.519-1.461s1.959-4.549 2.779-6.907c1.9-5.545 5.877-10.127 10.2-14.1a81.176 81.176 0 0 1 15.861-11.367 231.192 231.192 0 0 0 18.063 26.984c5 6.445 10.582 13.172 11.256 21.3.188 2.347-.133 4.935-1.782 6.63a14.887 14.887 0 0 1-2.712 1.948 26.266 26.266 0 0 0 8.523-1.937c6.309-2.7 10.892-8.2 15.672-13.116a117.93 117.93 0 0 1 9.662-8.877c.277.409.565.819.841 1.218 4.815 6.929 9.862 14.057 17.121 18.362 1.339.8 2.855 1.594 3.509 3.021.926 2.002-.248 4.305-1.269 6.275z" transform="translate(42.41 -83.879)" style="stroke-linecap:round;stroke-linejoin:round;stroke:#8d8d8d;fill:none"/>
        <path data-name="패스 15921" d="M447.1 339.19a49.432 49.432 0 0 0-9.541 10.083c-4.494 6.2-7.792 13.171-10.877 20.177-2.07 4.693-4.051 9.419-5.689 14.279a47.713 47.713 0 0 0-2.07 8.013 59.815 59.815 0 0 0-.353 10.26q.331 16.038.674 32.065c-2.446 1.561-3.751 4.682-5.5 7.15-7.083 10.039-21.528 9.6-33.759 11.589.066-2.324-.089-4.682-.1-6.983a51.308 51.308 0 0 1 5.7-23.767c1.018-1.97 2.191-4.272 1.273-6.286-.653-1.428-2.169-2.225-3.509-3.021-7.261-4.305-12.308-11.434-17.121-18.362-.277-.4-.564-.806-.841-1.218a47.676 47.676 0 0 1-1.506-2.336q-.233-.366-.432-.73c-.144-.243-.277-.5-.409-.741s-.266-.5-.388-.74v-.012a20.886 20.886 0 0 1-.676-1.539 16.176 16.176 0 0 1-.52-1.571 14.22 14.22 0 0 1-.343-1.628 11.634 11.634 0 0 1-.11-1.981 13.181 13.181 0 0 1 .165-1.639c.033-.211.078-.409.123-.62a22.888 22.888 0 0 1 2.024-5.191c.266-.531.542-1.051.819-1.583q.482-.9.93-1.794c.266-.5.509-1 .73-1.506a40.759 40.759 0 0 1 5.246 1.262c4.916 1.549 9.541 4.23 14.665 4.727a8.559 8.559 0 0 0 4.261-.476 4.222 4.222 0 0 0 2.591-3.232c.365-3.53-4.794-5.977-4.129-9.466a4.245 4.245 0 0 1 2.933-2.989 12.437 12.437 0 0 1 4.339-.41c3.3.089 6.608.167 9.906.244 3.575.089 7.405.111 10.415-1.826a.985.985 0 0 0 .531-.641c.055-.321-.21-.6-.454-.84-10.338-9.971-22.468-18.028-32.608-28.18a41.843 41.843 0 0 0 3.8-3.344c1.737-1.661 3.463-3.33 5.2-4.992a13.537 13.537 0 0 0 2.668-3.132c1-1.836 1.085-4.016 1.439-6.077a29.309 29.309 0 0 1 1.793-6.11 92.446 92.446 0 0 0 29.166-22.071q9.772 28.583 19.544 57.185z" transform="translate(43.383 -84.432)" style="stroke-linecap:round;stroke-linejoin:round;stroke:#8d8d8d;fill:none"/>
        <path data-name="패스 15923" d="M417.178 356.588a.981.981 0 0 1-.532.642c-3.01 1.938-6.84 1.914-10.415 1.826-3.3-.078-6.608-.155-9.906-.243a12.417 12.417 0 0 0-4.339.41 4.244 4.244 0 0 0-2.933 2.988c-.665 3.487 4.494 5.933 4.129 9.467a4.223 4.223 0 0 1-2.591 3.232 8.559 8.559 0 0 1-4.261.476c-5.124-.5-9.75-3.176-14.665-4.726a40.753 40.753 0 0 0-5.246-1.262c-.233.51-.476 1.007-.73 1.506q-.447.9-.929 1.793c-.277.531-.554 1.051-.819 1.583a22.934 22.934 0 0 0-2.024 5.191c-.045.211-.09.41-.123.62a13.332 13.332 0 0 0-.165 1.638 11.631 11.631 0 0 0 .11 1.981 14.2 14.2 0 0 0 .343 1.626 11.887 11.887 0 0 0 .52 1.572c.2.52.432 1.029.676 1.539v.011c.122.244.255.487.388.742s.255.487.41.741q.2.366.432.73c.475.8.985 1.572 1.506 2.336a118.319 118.319 0 0 0-9.663 8.877c-4.783 4.916-9.367 10.416-15.674 13.116a26.214 26.214 0 0 1-8.523 1.937 14.93 14.93 0 0 0 2.712-1.948c1.65-1.694 1.97-4.284 1.782-6.63-.675-8.124-6.253-14.854-11.256-21.3a231.184 231.184 0 0 1-18.063-26.985 80.921 80.921 0 0 1 18.462-7.371c3.21-.841 6.718-1.628 8.832-4.184 2.435-2.934 2.216-7.15 2.855-10.9a22.269 22.269 0 0 1 9.109-14.377c.83-.576 1.793-1.24 1.913-2.247a3.4 3.4 0 0 0-.9-2.269q-1.858-2.573-3.708-5.146a7.671 7.671 0 0 1-1.649-3.276c-.576-3.973 5.338-6.066 8.744-3.951s4.826 6.244 6.53 9.87c2.115 4.516 5.1 8.777 9.286 11.5s9.707 3.7 14.268 1.683c.144-.066.277-.133.421-.2a15.69 15.69 0 0 0 2.618-1.639c10.138 10.15 22.27 18.207 32.608 28.18.252.233.516.521.46.841z" transform="translate(43 -84.264)" style="stroke-linecap:round;stroke-linejoin:round;stroke:#8d8d8d;fill:none"/>
        <path data-name="패스 15925" d="M563.149 354.631a25.036 25.036 0 0 0 1.86 25.269l3.043 6.286a17.7 17.7 0 0 1-1.107 12.629 16.634 16.634 0 0 1-3.021 4.394c-4.117 4.3-10.777 7.095-11.666 12.983-.342 2.336.354 4.682.8 7.006 2.1 11.057-1.74 22.257-4.817 33.083-.187.642-.366 1.3-.543 1.948a15.285 15.285 0 0 1-8.1-1.848 11.868 11.868 0 0 0-2.668-1.483c-1.273-.366-2.618-.033-3.939-.055-3.123-.044-5.842-2.036-8.336-3.929-1.24-.951-2.546-1.992-2.966-3.5-.719-2.635 1.606-5.136 1.848-7.855a3.361 3.361 0 0 0-.7-2.568c-1.285-1.461-3.709-.907-5.339.155s-3.1 2.579-5.024 2.844c-2.425.343-4.616-1.417-6.233-3.254s-3.164-3.941-5.477-4.727c-2.258-.774-4.726-.088-7.006.605q-21.667 6.608-42.7 15.075c-.443-.6-.906-1.184-1.384-1.737a36.89 36.89 0 0 0-25.833-12.619 9.806 9.806 0 0 0-3.894.4 5.944 5.944 0 0 0-1.251.63q-.349-16.023-.675-32.066a59.918 59.918 0 0 1 .352-10.26 47.614 47.614 0 0 1 2.07-8.013c1.639-4.858 3.62-9.585 5.689-14.278 3.089-7.006 6.387-13.979 10.877-20.179a49.434 49.434 0 0 1 9.541-10.082c.166.487.332.963.5 1.45a5.627 5.627 0 0 0 .974 1.937 5.074 5.074 0 0 0 2.912 1.273 49.13 49.13 0 0 0 28.2-3.033 9.648 9.648 0 0 0 3.5-2.191c2.821-3.143 1.085-8.048-.575-11.932a112.3 112.3 0 0 1-8.29-56.316c.288-2.535.687-5.157 2.092-7.3a17.716 17.716 0 0 1 5.4-4.7q12.488-8.169 24.959-16.338l11.356 20.887c2.911 5.337 5.988 10.869 10.968 14.343 5.025 3.52 11.634 4.65 15.995 8.976 3.11 3.088 4.725 7.5 8.079 10.339 3.045 2.557 7.128 3.486 10.493 5.623 5.7 3.608 9.054 10.481 15.275 13.1a13.193 13.193 0 0 0 1.694.577c-.287 4.527-2 9.075-3.708 13.347-2.316 5.823-4.649 11.678-8.025 16.957-1.724 2.724-3.738 5.27-5.2 8.147z" transform="translate(43.787 -84.711)" style="stroke-linecap:round;stroke-linejoin:round;stroke:#8d8d8d;fill:none"/>
        <path data-name="패스 15926" d="M553.7 507.156q0 11.821-.188 23.63c-.044 3.288-.753 7.438-3.942 8.224a7.429 7.429 0 0 1-3.641-.309c-5.082-1.284-10.281-2.619-14.6-5.6-2.247-1.55-4.185-3.509-6.365-5.146-7.482-5.578-17.189-6.962-26.442-8.157a3.457 3.457 0 0 0-1.87.111 3.513 3.513 0 0 0-1.495 2 117.407 117.407 0 0 1-10.294 19.281c-9.331-1.826-20.1 2.635-27.959-2.719-5.1-3.476-7.106-10.416-5.841-16.459s5.312-11.212 10.139-15.064c2.379-1.913 5.023-3.608 6.884-6.042s2.779-5.9 1.284-8.567a33.048 33.048 0 0 1-18.606-8.146c-3.775-3.354 2.6-9.994 4.449-14.7 3-7.671.543-16.56-4.405-23.223q21-8.451 42.7-15.075c2.282-.7 4.749-1.384 7.007-.6 2.316.786 3.853 2.9 5.479 4.726s3.808 3.6 6.231 3.254c1.928-.266 3.4-1.771 5.026-2.844s4.051-1.611 5.337-.155a3.356 3.356 0 0 1 .7 2.568c-.244 2.719-2.568 5.224-1.848 7.855.42 1.506 1.726 2.546 2.966 3.5 2.49 1.892 5.214 3.885 8.335 3.928 1.317.022 2.668-.309 3.94.055a11.978 11.978 0 0 1 2.668 1.483 15.263 15.263 0 0 0 8.1 1.848c-2.779 10.3-4.494 21.528.144 31.047 1.617 3.309 3.951 6.276 5.092 9.769a30.632 30.632 0 0 1 1.018 9.534" transform="translate(44.01 -83.379)" style="fill:#b1b1b1;stroke:#6d6d6d"/>
        <path data-name="패스 15927" d="M553.7 507.156q0 11.821-.188 23.63c-.044 3.288-.753 7.438-3.942 8.224a7.429 7.429 0 0 1-3.641-.309c-5.082-1.284-10.281-2.619-14.6-5.6-2.247-1.55-4.185-3.509-6.365-5.146-7.482-5.578-17.189-6.962-26.442-8.157a3.457 3.457 0 0 0-1.87.111 3.513 3.513 0 0 0-1.495 2 117.407 117.407 0 0 1-10.294 19.281c-9.331-1.826-20.1 2.635-27.959-2.719-5.1-3.476-7.106-10.416-5.841-16.459s5.312-11.212 10.139-15.064c2.379-1.913 5.023-3.608 6.884-6.042s2.779-5.9 1.284-8.567a33.048 33.048 0 0 1-18.606-8.146c-3.775-3.354 2.6-9.994 4.449-14.7 3-7.671.543-16.56-4.405-23.223q21-8.451 42.7-15.075c2.282-.7 4.749-1.384 7.007-.6 2.316.786 3.853 2.9 5.479 4.726s3.808 3.6 6.231 3.254c1.928-.266 3.4-1.771 5.026-2.844s4.051-1.611 5.337-.155a3.356 3.356 0 0 1 .7 2.568c-.244 2.719-2.568 5.224-1.848 7.855.42 1.506 1.726 2.546 2.966 3.5 2.49 1.892 5.214 3.885 8.335 3.928 1.317.022 2.668-.309 3.94.055a11.978 11.978 0 0 1 2.668 1.483 15.263 15.263 0 0 0 8.1 1.848c-2.779 10.3-4.494 21.528.144 31.047 1.617 3.309 3.951 6.276 5.092 9.769a30.632 30.632 0 0 1 1.015 9.527z" transform="translate(44.01 -83.379)" style="stroke-linecap:round;stroke-linejoin:round;stroke:#8d8d8d;fill:none"/>
        <path data-name="패스 15929" d="M736.439 542.43a173.828 173.828 0 0 1-19.5 18.351c-10.792 8.479-23.332 15.153-36.914 17.134-8.089 1.184-16.391.686-24.383 2.369a45.944 45.944 0 0 0-25.49 15.252c-5.2 6.176-8.646 13.6-12.044 20.919-9.287 20.068-18.631 40.267-26.132 61.042-3.265 9-6.177 18.12-8.6 27.372a8.727 8.727 0 0 0-.4-.277 14.07 14.07 0 0 0-4.539-1.506q-8.5-1.762-17.011-3.531c-8.235-1.705-16.591-3.424-24.981-2.9a16.45 16.45 0 0 1-6.032-.233c-1.926-.619-3.664-2.4-3.453-4.416q-7.688.314-15.352.641a3.8 3.8 0 0 1-1.992-.277c-1.794-.974-.951-3.631-.92-5.667.112-6.021-8.278-8.512-10.425-14.123-.874-2.271-.62-4.815-1.217-7.173-1.883-7.471-11.682-11.456-12.186-19.135 1.261-.089 1.661-3.187.94-4.23s-1.926-1.671-2.568-2.756a6.638 6.638 0 0 1-.642-3.154l-.6-17.965a10.058 10.058 0 0 1 .666-4.9c2.057-4.062 8.167-3.564 11.72-6.42 0-2.468-2.617-3.984-3.983-6.032-3.4-5.125 1.65-12.143-.111-18.019-.454-1.539-1.362-3.209-.575-4.6.442-.8 1.34-1.251 1.759-2.058a4.09 4.09 0 0 0 .244-2.316 122.019 122.019 0 0 0-3.055-18.075 15.215 15.215 0 0 0-1.472-4.1 32.4 32.4 0 0 1-1.769-2.833c-1.007-2.236-.4-4.815.221-7.184-.388-.1-.785-.188-1.184-.267a117.49 117.49 0 0 0 10.294-19.28 3.5 3.5 0 0 1 1.495-2 3.455 3.455 0 0 1 1.87-.111c9.253 1.2 18.961 2.578 26.441 8.157 2.18 1.638 4.118 3.6 6.366 5.147 4.318 2.977 9.519 4.315 14.6 5.6a7.431 7.431 0 0 0 3.642.309c3.188-.785 3.9-4.934 3.94-8.224q.184-11.821.188-23.63a30.607 30.607 0 0 0-1.018-9.53c-1.14-3.5-3.475-6.464-5.092-9.77-4.633-9.518-2.921-20.745-.144-31.046a95.07 95.07 0 0 1 .542-1.949c3.076-10.824 6.918-22.026 4.816-33.083-.444-2.324-1.141-4.671-.8-7.006.885-5.889 7.553-8.688 11.666-12.983a16.646 16.646 0 0 0 3.021-4.394c23.984-.874 48.039-1.273 71.88.664q.2 42.8 1.294 85.592c.11 4.5.266 9.131 1.958 13.314s5.3 7.893 9.784 8.39c6.189.7 11.324-4.57 17.257-6.453 1.505 5.877-5.2 10.615-6.42 16.559-.93 4.56 1.638 9.265 5.257 12.174s8.169 4.417 12.6 5.856c10.238 3.309 20.645 6.663 31.4 7.16.356.022.72.022 1.085.022.012-.011.012-.011.023 0a20.327 20.327 0 0 0 4.316-.443 59.492 59.492 0 0 1 17.544 1.483c.725.176 1.443.365 2.175.542z" transform="translate(44.244 -83.616)" style="stroke-linecap:round;stroke-linejoin:round;stroke:#8d8d8d;fill:none"/>
        <path data-name="패스 15930" d="M710.628 539.872a50.857 50.857 0 0 1 4.317-.441 20.315 20.315 0 0 1-4.317.441" transform="translate(45.865 -82.604)" style="fill:#383e43"/>
        <path data-name="패스 15931" d="M710.628 539.872a50.857 50.857 0 0 1 4.317-.441 20.315 20.315 0 0 1-4.317.441z" transform="translate(45.865 -82.604)" style="stroke:#575757;stroke-linecap:round;stroke-linejoin:round;fill:none"/>
        <path data-name="패스 15933" d="M960.869 386.424c-2.256 3.52-7.492 5.213-7.955 9.375a169.6 169.6 0 0 1-3.431 18.817c-.41 1.771-.919 3.686-2.37 4.76-1.461 1.1-3.5 1.029-5.125 1.848-4.029 2-3.751 7.781-5.9 11.733-.919 1.694-2.38 3.187-2.68 5.091a5.384 5.384 0 0 0 .144 2.18c-7.693 2.147-14.965 7.04-22.646 9.851-11.783 4.294-24.7 3.608-37.19 4.859-10.238 1.029-20.52 3.487-29.307 8.854a22.919 22.919 0 0 0-24.838-5.114c-.1-.554-.2-1.118-.309-1.672q-2.89-15.955-5.8-31.9c-.255-1.373-.565-2.866-1.649-3.764a6.106 6.106 0 0 0-3.84-.974l-20.455-.464a27.844 27.844 0 0 1-8.135-1c-2.756-.917-5.136-2.655-7.616-4.16-24.3-14.754-55.39-6.21-83.71-8.666-8.412-.731-16.718-2.469-25.048-3.841-8.612-1.417-17.256-2.435-25.932-3.132-23.842-1.937-47.893-1.539-71.88-.664a17.692 17.692 0 0 0 1.108-12.629l-3.044-6.288a25.034 25.034 0 0 1-1.858-25.268c1.46-2.878 3.475-5.423 5.2-8.136 3.375-5.278 5.71-11.133 8.024-16.957 1.7-4.271 3.424-8.821 3.708-13.347 4.6 1.262 9.729.122 14.168-1.86 4.982-2.214 9.5-5.412 14.521-7.537 11.3-4.77 24.17-3.752 36.061-6.746 7.139-1.8 13.869-5.036 21.086-6.476 16.013-3.2 32.375 2.745 48.713 2.812 15.926.067 32.175-5.438 47.5-1.118.9 3.409 5.246 5.611 8.722 6.232s7.039.21 10.537.618c5.8.688 11.089 3.627 16.779 4.959 6.164 1.428 12.662.953 18.794 2.5 11.19 2.834 21.108 12.307 32.508 10.474 4.017-.644 7.671-2.68 11.212-4.682l17.4-9.83a64.27 64.27 0 0 1 29.951-10.16q11.49-1.644 22.991-3.277c-1.574 5.545 6.728 9.651 6.484 15.409-.132 3.232-2.933 5.667-4.129 8.677-1.073 2.7-.8 5.722-.52 8.612.542 5.567 1.151 11.324 3.909 16.194 2.49 4.393 6.585 7.791 8.576 12.429 1.007 2.324 1.428 4.881 2.513 7.161 2.316 4.881 7.207 7.9 11.026 11.734s6.654 9.931 3.732 14.483z" transform="translate(44.785 -84.362)" style="stroke-linecap:round;stroke-linejoin:round;stroke:#8d8d8d;fill:none"/>
        <path data-name="패스 15934" d="M813.6 767.443c-1.051 3.543-3.033 6.775-3.8 10.383-.919 4.394-.166 9.618-3.354 12.783-1.559 1.562-3.826 2.281-5.323 3.9a6.4 6.4 0 0 0-1.229 6.609c.5 1.218 1.384 2.315 1.494 3.618.187 2.236-2.081 4.052-4.316 4.283s-4.405-.63-6.546-1.338-4.494-1.272-6.586-.442c-2.535 1.017-3.894 3.741-5.943 5.555-2.024 1.794-4.692 2.656-7.27 3.475-3 .941-6.166 1.893-9.242 1.241-3.707-.8-7.316-3.885-10.848-2.481a64.667 64.667 0 0 0-22.18.166 13.015 13.015 0 0 1-3.276.288c-1.41-.122-2.719-.752-4.117-1-3.7-.676-7.283 1.339-10.493 3.264-2.158 1.31-4.416 2.7-5.645 4.9-.953 1.705-1.229 3.827-2.618 5.2a6.127 6.127 0 0 1-5.48 1.274 30.726 30.726 0 0 1-5.479-2c-3.828-1.528-8.479-2.092-11.832.288-1.209.862-2.148 2.036-3.376 2.867a14.4 14.4 0 0 1-4.185 1.7c-2.136.618-4.693 1.161-6.363-.288-2.281-1.96-1.04-5.622.354-8.279-2.269-1.218-4.7-2.619-5.689-5-1.506-3.663.953-8.489-1.549-11.555a18.582 18.582 0 0 1-8.28-3.952 6.888 6.888 0 0 1-2.279-2.966c-.83-2.491.743-5.29 0-7.8-.6-2-2.491-3.3-3.775-4.959-2.446-3.187-2.513-7.539-3.586-11.411-1.881-6.84-4.8-7.085-9.707-12.208.043-1.029-.653-2.789-.6-3.819a10.979 10.979 0 0 0 3.531-13.614 10.978 10.978 0 0 1-1.251-2.779c-.266-1.4.321-2.812.3-4.239-.032-3.675-3.718-6.032-6.444-8.512-6.42-5.855-9.064-15.509-16.593-19.835a5.881 5.881 0 0 0-2.323-.852 8.8 8.8 0 0 0-2.779.376 22.635 22.635 0 0 1-19.99-5.268 26.707 26.707 0 0 0-2.455-2.158c2.423-9.253 5.338-18.374 8.6-27.372 19.38 2.435 39.175 1.87 57.943-3.324 5.113-1.417 10.172-3.176 15.429-3.918 5.746-.819 11.6-.4 17.4-.277a168.156 168.156 0 0 0 32.652-2.557c2.734-.487 5.645-1.029 8.234.011 2.713 1.084 4.474 3.664 6.354 5.911a38.279 38.279 0 0 0 27.416 13.514c5.256.222 10.559-.654 15.75.166 3.232.51 6.345 1.673 9.574 2.225 4.383.764 8.877.388 13.315.6a51.167 51.167 0 0 1 15.006 3c-4.693 2.316-7.981 6.747-11.057 11.025a5.077 5.077 0 0 0-1.218 2.719 4.7 4.7 0 0 0 .7 2.247 34.324 34.324 0 0 0 10.3 11.733 6.868 6.868 0 0 1 2.16 2.014 5.644 5.644 0 0 1 .341 3.774 29.587 29.587 0 0 1-3.62 10.194 9.675 9.675 0 0 0-1.627 3.775c-.189 1.838.818 3.564 1.1 5.38.553 3.553-1.572 7.7.641 10.537 1 1.273 2.636 1.86 3.863 2.921 2.782 2.422 2.914 6.76 1.863 10.29" transform="translate(44.955 -81.715)" style="fill:#b1b1b1;stroke:#6d6d6d"/>
        <path data-name="패스 15935" d="M813.6 767.443c-1.051 3.543-3.033 6.775-3.8 10.383-.919 4.394-.166 9.618-3.354 12.783-1.559 1.562-3.826 2.281-5.323 3.9a6.4 6.4 0 0 0-1.229 6.609c.5 1.218 1.384 2.315 1.494 3.618.187 2.236-2.081 4.052-4.316 4.283s-4.405-.63-6.546-1.338-4.494-1.272-6.586-.442c-2.535 1.017-3.894 3.741-5.943 5.555-2.024 1.794-4.692 2.656-7.27 3.475-3 .941-6.166 1.893-9.242 1.241-3.707-.8-7.316-3.885-10.848-2.481a64.667 64.667 0 0 0-22.18.166 13.015 13.015 0 0 1-3.276.288c-1.41-.122-2.719-.752-4.117-1-3.7-.676-7.283 1.339-10.493 3.264-2.158 1.31-4.416 2.7-5.645 4.9-.953 1.705-1.229 3.827-2.618 5.2a6.127 6.127 0 0 1-5.48 1.274 30.726 30.726 0 0 1-5.479-2c-3.828-1.528-8.479-2.092-11.832.288-1.209.862-2.148 2.036-3.376 2.867a14.4 14.4 0 0 1-4.185 1.7c-2.136.618-4.693 1.161-6.363-.288-2.281-1.96-1.04-5.622.354-8.279-2.269-1.218-4.7-2.619-5.689-5-1.506-3.663.953-8.489-1.549-11.555a18.582 18.582 0 0 1-8.28-3.952 6.888 6.888 0 0 1-2.279-2.966c-.83-2.491.743-5.29 0-7.8-.6-2-2.491-3.3-3.775-4.959-2.446-3.187-2.513-7.539-3.586-11.411-1.881-6.84-4.8-7.085-9.707-12.208.043-1.029-.653-2.789-.6-3.819a10.979 10.979 0 0 0 3.531-13.614 10.978 10.978 0 0 1-1.251-2.779c-.266-1.4.321-2.812.3-4.239-.032-3.675-3.718-6.032-6.444-8.512-6.42-5.855-9.064-15.509-16.593-19.835a5.881 5.881 0 0 0-2.323-.852 8.8 8.8 0 0 0-2.779.376 22.635 22.635 0 0 1-19.99-5.268 26.707 26.707 0 0 0-2.455-2.158c2.423-9.253 5.338-18.374 8.6-27.372 19.38 2.435 39.175 1.87 57.943-3.324 5.113-1.417 10.172-3.176 15.429-3.918 5.746-.819 11.6-.4 17.4-.277a168.156 168.156 0 0 0 32.652-2.557c2.734-.487 5.645-1.029 8.234.011 2.713 1.084 4.474 3.664 6.354 5.911a38.279 38.279 0 0 0 27.416 13.514c5.256.222 10.559-.654 15.75.166 3.232.51 6.345 1.673 9.574 2.225 4.383.764 8.877.388 13.315.6a51.167 51.167 0 0 1 15.006 3c-4.693 2.316-7.981 6.747-11.057 11.025a5.077 5.077 0 0 0-1.218 2.719 4.7 4.7 0 0 0 .7 2.247 34.324 34.324 0 0 0 10.3 11.733 6.868 6.868 0 0 1 2.16 2.014 5.644 5.644 0 0 1 .341 3.774 29.587 29.587 0 0 1-3.62 10.194 9.675 9.675 0 0 0-1.627 3.775c-.189 1.838.818 3.564 1.1 5.38.553 3.553-1.572 7.7.641 10.537 1 1.273 2.636 1.86 3.863 2.921 2.789 2.419 2.921 6.756 1.866 10.287z" transform="translate(44.955 -81.715)" style="stroke-linecap:round;stroke-linejoin:round;stroke:#8d8d8d;fill:none"/>
        <path data-name="패스 15936" d="M819.024 456.189a35.722 35.722 0 0 1-3.542.654c-12.507 1.672-26.132-2.8-37.363 2.966a20.682 20.682 0 0 1-4.538 2.069c-1.813.431-3.741.122-5.565.521-2.525.553-4.551 2.358-6.446 4.095-4.847 4.416-10.138 10.858-7.272 16.758 1.639 3.376 5.811 5.988 5.081 9.674-.454 2.269-2.668 3.7-4.726 4.759a85.479 85.479 0 0 1-21.274 7.681 4.124 4.124 0 0 0-2.4 1.085 3.694 3.694 0 0 0-.63 2.28 20.846 20.846 0 0 0 1.438 8.412c.653 1.672 1.55 3.424 1.129 5.168-1 4.206-7.9 3.874-9.884 7.714-.853 1.638-.555 3.626-1.085 5.39-.875 2.867-3.521 4.383-6.552 5.046-1.44.089-2.889.233-4.316.443-.011-.011-.011-.011-.023 0-.365 0-.73 0-1.085-.022-10.759-.5-21.163-3.852-31.4-7.162-4.431-1.439-8.963-2.932-12.6-5.855s-6.188-7.615-5.257-12.175c1.218-5.942 7.926-10.68 6.42-16.559-5.933 1.881-11.07 7.15-17.257 6.453-4.482-.5-8.09-4.206-9.784-8.39s-1.848-8.81-1.958-13.316q-1.109-42.785-1.294-85.591c8.676.7 17.322 1.712 25.932 3.132 8.334 1.373 16.635 3.11 25.048 3.841 28.325 2.457 59.419-6.088 83.71 8.666 2.479 1.506 4.858 3.243 7.614 4.161a27.881 27.881 0 0 0 8.136 1l20.454.464a6.109 6.109 0 0 1 3.842.974c1.085.9 1.394 2.391 1.649 3.763q2.907 15.957 5.8 31.9" transform="translate(45.344 -83.606)" style="fill:#b1b1b1;stroke:#6d6d6d"/>
        <path data-name="패스 15937" d="M819.024 456.189a35.722 35.722 0 0 1-3.542.654c-12.507 1.672-26.132-2.8-37.363 2.966a20.682 20.682 0 0 1-4.538 2.069c-1.813.431-3.741.122-5.565.521-2.525.553-4.551 2.358-6.446 4.095-4.847 4.416-10.138 10.858-7.272 16.758 1.639 3.376 5.811 5.988 5.081 9.674-.454 2.269-2.668 3.7-4.726 4.759a85.479 85.479 0 0 1-21.274 7.681 4.124 4.124 0 0 0-2.4 1.085 3.694 3.694 0 0 0-.63 2.28 20.846 20.846 0 0 0 1.438 8.412c.653 1.672 1.55 3.424 1.129 5.168-1 4.206-7.9 3.874-9.884 7.714-.853 1.638-.555 3.626-1.085 5.39-.875 2.867-3.521 4.383-6.552 5.046-1.44.089-2.889.233-4.316.443-.011-.011-.011-.011-.023 0-.365 0-.73 0-1.085-.022-10.759-.5-21.163-3.852-31.4-7.162-4.431-1.439-8.963-2.932-12.6-5.855s-6.188-7.615-5.257-12.175c1.218-5.942 7.926-10.68 6.42-16.559-5.933 1.881-11.07 7.15-17.257 6.453-4.482-.5-8.09-4.206-9.784-8.39s-1.848-8.81-1.958-13.316q-1.109-42.785-1.294-85.591c8.676.7 17.322 1.712 25.932 3.132 8.334 1.373 16.635 3.11 25.048 3.841 28.325 2.457 59.419-6.088 83.71 8.666 2.479 1.506 4.858 3.243 7.614 4.161a27.881 27.881 0 0 0 8.136 1l20.454.464a6.109 6.109 0 0 1 3.842.974c1.085.9 1.394 2.391 1.649 3.763q2.905 15.956 5.798 31.901z" transform="translate(45.344 -83.606)" style="stroke-linecap:round;stroke-linejoin:round;stroke:#8d8d8d;fill:none"/>
        <path data-name="패스 15939" d="M981.4 501.584c-1.472 2.29-1.217 5.224-1.129 7.936a50.423 50.423 0 0 1-9.73 31.257 5.75 5.75 0 0 0-1.472 3.077 4.857 4.857 0 0 0 1.15 2.91c2.479 3.477 5.912 6.178 8.446 9.6s4.129 8.112 2.269 11.942a16.48 16.48 0 0 1-2.048 2.965q-7.305 9.1-13.857 18.773c-4.053-1.318-8.17 3.686-12.343 2.832a5.986 5.986 0 0 0-1.8-.3 3.707 3.707 0 0 0-1.859 1.028c-3.276 2.768-6.729 5.789-7.869 9.918-.8 2.856-.41 6.033-1.793 8.644-1.594 3-5.258 4.7-6.177 7.98-.365 1.339-.221 2.767-.509 4.118-.676 3.076-3.431 5.167-6 6.984q-3.106 2.19-6.187 4.383a5.434 5.434 0 0 1-1.75.929c-.654.166-1.34.078-1.982.234-2.235.509-3.253 3.52-5.512 3.907-2.3.388-4.195-2.2-6.53-2.18-1.683.021-3.054 1.395-4.7 1.712-2.3.442-4.417-1.2-6.576-2.081-3.775-1.561-8.134-.841-11.921.7s-7.2 3.827-10.89 5.566a4.082 4.082 0 0 1-2.513.554 5.978 5.978 0 0 1-1.937-1.073c-3.852-2.557-8.943-1.163-13.515-.42a42.479 42.479 0 0 1-13.182.033c-2.635-.41-5.339-1.075-7.937-.487s-5.069 2.954-4.637 5.6a9.563 9.563 0 0 0 1.539 3.244A20.236 20.236 0 0 1 831.1 665.1c2.3 3.166 1.05 8.523-1.914 11.078-2.014 1.739-4.732 2.336-7.2 3.309s-5.005 2.69-5.471 5.313a26.485 26.485 0 0 1-.331 3.277c-.753 2.4-3.629 3.2-5.922 4.216a8.473 8.473 0 0 0-.507.243h-.011a51.208 51.208 0 0 0-15.007-3c-4.438-.211-8.932.166-13.315-.6-3.232-.554-6.345-1.711-9.574-2.225-5.192-.818-10.493.057-15.751-.166a38.27 38.27 0 0 1-27.415-13.514c-1.881-2.246-3.643-4.826-6.353-5.911-2.59-1.039-5.5-.5-8.236-.011a168.063 168.063 0 0 1-32.652 2.557c-5.8-.122-11.654-.542-17.4.278-5.258.74-10.316 2.5-15.429 3.917-18.772 5.193-38.563 5.756-57.944 3.323 7.5-20.775 16.847-40.974 26.133-61.041 3.4-7.318 6.84-14.744 12.044-20.92a45.937 45.937 0 0 1 25.489-15.251c7.993-1.684 16.295-1.185 24.384-2.37 13.582-1.98 26.122-8.655 36.914-17.133a173.745 173.745 0 0 0 19.5-18.352c-.731-.177-1.451-.364-2.18-.542a59.487 59.487 0 0 0-17.544-1.485c3.033-.664 5.677-2.18 6.552-5.047.53-1.759.232-3.752 1.085-5.391 1.981-3.839 8.887-3.508 9.884-7.713.42-1.748-.474-3.5-1.129-5.169a20.846 20.846 0 0 1-1.438-8.411 3.7 3.7 0 0 1 .63-2.28 4.126 4.126 0 0 1 2.4-1.085 85.521 85.521 0 0 0 21.274-7.681c2.059-1.064 4.272-2.492 4.727-4.761.729-3.686-3.442-6.3-5.081-9.673-2.866-5.9 2.424-12.341 7.271-16.758 1.893-1.737 3.919-3.542 6.446-4.095 1.824-.4 3.75-.09 5.565-.52a20.641 20.641 0 0 0 4.538-2.071c11.234-5.767 24.86-1.3 37.364-2.966a35.48 35.48 0 0 0 3.541-.655c.111.554.211 1.119.311 1.672a22.919 22.919 0 0 1 24.836 5.113c8.789-5.368 19.07-7.825 29.307-8.854 12.488-1.251 25.4-.564 37.19-4.859 7.681-2.812 14.953-7.7 22.647-9.849 1.028 3.985 5.81 7.638 3.985 11.367a63.921 63.921 0 0 0 15.861-2.049c.8 6.642 4.349 12.7 8.722 17.754s9.606 9.3 14.566 13.8c2.789 2.534 5.555 5.237 7.149 8.655s1.783 7.714-.442 10.759c-.569.787-1.259 1.451-1.769 2.261z" transform="translate(45.014 -83.317)" style="stroke-linecap:round;stroke-linejoin:round;stroke:#8d8d8d;fill:none"/>
        <path data-name="사각형 6941" transform="translate(250.832 1.572)" style="fill:none" d="M0 0h779.51v749.836H0z"/>
        <path data-name="패스 15940" d="M388.912 434a4.028 4.028 0 1 1-4.028-4.028 4.029 4.029 0 0 1 4.028 4.028" transform="translate(43.525 -83.381)" style="fill:#ef626b"/>
        <path data-name="패스 15941" d="M422 431.541a4.028 4.028 0 1 1-4.028-4.028 4.028 4.028 0 0 1 4.028 4.028" transform="translate(43.758 -83.399)" style="fill:#ef626b"/>
        <path data-name="패스 15942" d="M472.557 444.848a4.028 4.028 0 1 1-4.028-4.028 4.029 4.029 0 0 1 4.028 4.028" transform="translate(44.119 -83.305)" style="fill:#ef626b"/>
        <path data-name="패스 15943" d="M549.345 498.477a4.028 4.028 0 1 1-4.028-4.028 4.028 4.028 0 0 1 4.028 4.028" transform="translate(44.666 -82.924)" style="fill:#ef626b"/>
        <path data-name="패스 15944" d="M589.5 469.123a4.028 4.028 0 1 1-4.029-4.028 4.028 4.028 0 0 1 4.029 4.028" transform="translate(44.949 -83.133)" style="fill:#ef626b"/>
        <path data-name="패스 15945" d="M710.53 385.759a4.028 4.028 0 1 1-4.028-4.028 4.029 4.029 0 0 1 4.028 4.028" transform="translate(45.809 -83.723)" style="fill:#ef626b"/>
        <path data-name="패스 15946" d="M742.7 443.066a4.028 4.028 0 1 1-4.028-4.028 4.029 4.029 0 0 1 4.028 4.028" transform="translate(46.039 -83.319)" style="fill:#ef626b"/>
        <path data-name="패스 15947" d="M776.207 504.373a4.028 4.028 0 1 1-4.028-4.028 4.029 4.029 0 0 1 4.028 4.028" transform="translate(46.275 -82.881)" style="fill:#ef626b"/>
        <path data-name="패스 15948" d="M773.759 541.917a4.028 4.028 0 1 1-4.028-4.028 4.028 4.028 0 0 1 4.028 4.028" transform="translate(46.26 -82.616)" style="fill:#ef626b"/>
        <path data-name="패스 15949" d="M754.273 625.324a4.028 4.028 0 1 1-4.029-4.028 4.029 4.029 0 0 1 4.029 4.028" transform="translate(46.117 -82.024)" style="fill:#ef626b"/>
        <path data-name="패스 15950" d="M729.086 663.819a4.028 4.028 0 1 1-4.028-4.029 4.028 4.028 0 0 1 4.028 4.029" transform="translate(45.938 -81.75)" style="fill:#ef626b"/>
        <path data-name="패스 15951" d="M685.6 671.819a4.028 4.028 0 1 1-4.028-4.028 4.028 4.028 0 0 1 4.028 4.028" transform="translate(45.631 -81.694)" style="fill:#ef626b"/>
        <path data-name="패스 15952" d="M669.638 711.269a4.028 4.028 0 1 1-4.028-4.028 4.028 4.028 0 0 1 4.028 4.028" transform="translate(45.52 -81.414)" style="fill:#ef626b"/>
        <path data-name="패스 15955" d="M462.623 808.306s1.078-14.778 1.316-19.085 3.829-3.29 3.829-3.29 46.127 2.154 51.512 1.974 6.64-3.949 6.64-3.949 13.82-34.461 16.333-41.819 7-9.872 7-9.872 10.948-5.743 14.9-7.9a15.2 15.2 0 0 0 5.743-5.519l.219-1.659c.031-.232.065-.487.1-.762 1-7.491 4.049-30.126 5.244-35.5 1.436-6.462 5.026-5.781 5.026-5.781h28.909s20.269-.5 27.269-.061 15.974-1.516 20.282-4.028 12.743-1.8 19.384-1.617 6-1.369 6-1.369l-.08-6.349s.18-38.948 0-41.64a60.014 60.014 0 0 0-1.077-6.82s-25.306-71.254-34.64-91.536-8.369-26.922-8.369-26.922-.247-59.589-.016-65.731-2.147-8.328-2.147-8.328l-31.106-.421s.235-43.852 0-49.638-6.7-5.1-6.7-5.1-53.846.479-57.315 0-3.829-2.751-3.829-2.751-9.213-31.35-10.769-34.581-3.59-15.914-3.35-16.273-11.488-25.487-11.488-25.487c-3.709-4.307-5.863-15.674-6.341-18.427a26.026 26.026 0 0 0-1.915-5.743s-12.085-15.794-14-17.709-6.7-19.743-6.7-19.743-2.272-8.854-5.384-4.667-4.459 2.652-4.459 2.652-5.95-5.882-12.771-8.036-7.179-7.9-7.179-7.9-14.223-25.954-18.723-29.454a92.269 92.269 0 0 1-9.5-9l-10-7-9-4.5s-5.5-5.5-6-9" transform="translate(44.031 -84.965)" style="stroke-miterlimit:10;stroke-width:2px;stroke:#69afdf;fill:none"/>
        <path data-name="패스 15963" d="M640.9 465.908a4.028 4.028 0 1 1-4.029-4.028 4.029 4.029 0 0 1 4.029 4.028" transform="translate(45.314 -72.51)" style="fill:#69afdf"/>
        <path data-name="패스 15964" d="M652.838 529a4.028 4.028 0 1 1-4.028-4.028 4.029 4.029 0 0 1 4.028 4.028" transform="translate(45.4 -82.707)" style="fill:#69afdf"/>
        <path data-name="패스 15965" d="M673.867 584.245a4.028 4.028 0 1 1-4.028-4.028 4.028 4.028 0 0 1 4.028 4.028" transform="translate(45.547 -82.315)" style="fill:#69afdf"/>
        <path data-name="패스 15966" d="M684.784 621.324a4.028 4.028 0 1 1-4.028-4.028 4.028 4.028 0 0 1 4.028 4.028" transform="translate(45.623 -82.051)" style="fill:#69afdf"/>
        <path data-name="패스 15967" d="M684.784 621.324a4.028 4.028 0 1 1-4.028-4.028 4.028 4.028 0 0 1 4.028 4.028" transform="translate(45.623 -41.84)" style="fill:#69afdf"/>
        <path data-name="패스 15968" d="M627.042 671.819a4.028 4.028 0 1 1-4.028-4.028 4.028 4.028 0 0 1 4.028 4.028" transform="translate(45.213 -81.694)" style="fill:#69afdf"/>
        <path data-name="패스 15969" d="M576.963 686.776a4.028 4.028 0 1 1-4.028-4.028 4.029 4.029 0 0 1 4.028 4.028" transform="translate(44.859 -81.588)" style="fill:#69afdf"/>
        <path data-name="패스 15970" d="M545.418 740.1a4.028 4.028 0 1 1-4.028-4.029 4.029 4.029 0 0 1 4.028 4.029" transform="translate(44.631 -81.209)" style="fill:#69afdf"/>
        <path data-name="패스 15971" d="M522.606 783.937a4.028 4.028 0 1 1-4.028-4.028 4.028 4.028 0 0 1 4.028 4.028" transform="translate(44.477 -80.897)" style="fill:#69afdf"/>
        <g data-name="사각형 6948" transform="translate(703 429)" style="stroke:#69afdf;fill:#090816">
            <rect width="40.252" height="26.507" rx="2" style="stroke:none"/>
            <rect x=".5" y=".5" width="39.252" height="25.507" rx="1.5" style="fill:none"/>
        </g>
        <g data-name="사각형 6949" transform="translate(724 484)" style="stroke:#69afdf;fill:#090816">
            <rect width="43.197" height="27.489" rx="2" style="stroke:none"/>
            <rect x=".5" y=".5" width="42.197" height="26.489" rx="1.5" style="fill:none"/>
        </g>
        <g data-name="사각형 6950" transform="translate(732 519)" style="stroke:#69afdf;fill:#090816">
            <rect width="43.197" height="24.544" rx="2" style="stroke:none"/>
            <rect x=".5" y=".5" width="42.197" height="23.544" rx="1.5" style="fill:none"/>
        </g>
        <g data-name="사각형 6951" transform="translate(730 549)" style="stroke:#69afdf;fill:#090816">
            <rect width="43.197" height="27.489" rx="2" style="stroke:none"/>
            <rect x=".5" y=".5" width="42.197" height="26.489" rx="1.5" style="fill:none"/>
        </g>
        <g data-name="사각형 6952" transform="translate(648 557)" style="stroke:#69afdf;fill:#090816">
            <rect width="42.215" height="26.507" rx="2" style="stroke:none"/>
            <rect x=".5" y=".5" width="41.215" height="25.507" rx="1.5" style="fill:none"/>
        </g>
        <g data-name="사각형 6953" transform="translate(566 591)" style="stroke:#69afdf;fill:#090816">
            <rect width="41.233" height="24.544" rx="2" style="stroke:none"/>
            <rect x=".5" y=".5" width="40.233" height="23.544" rx="1.5" style="fill:none"/>
        </g>
        <g data-name="사각형 6954" transform="translate(531 647)" style="stroke:#69afdf;fill:#090816">
            <rect width="43.197" height="24.544" rx="2" style="stroke:none"/>
            <rect x=".5" y=".5" width="42.197" height="23.544" rx="1.5" style="fill:none"/>
        </g>
        <g data-name="사각형 10934" transform="translate(517 712)" style="stroke:#acacac;fill:#090816">
            <rect width="47" height="24" rx="2" style="stroke:none"/>
            <rect x=".5" y=".5" width="46" height="23" rx="1.5" style="fill:none"/>
        </g>
        <g data-name="사각형 10940" transform="translate(596 391)" style="stroke:#acacac;fill:#090816">
            <rect width="71" height="24" rx="2" style="stroke:none"/>
            <rect x=".5" y=".5" width="70" height="23" rx="1.5" style="fill:none"/>
        </g>
        <g data-name="사각형 10942" transform="translate(535 285)" style="stroke:#acacac;fill:#090816">
            <rect width="82" height="24" rx="2" style="stroke:none"/>
            <rect x=".5" y=".5" width="81" height="23" rx="1.5" style="fill:none"/>
        </g>
        <g data-name="사각형 10947" transform="translate(308 350)" style="stroke:#acacac;fill:#090816">
            <rect width="47" height="24" rx="2" style="stroke:none"/>
            <rect x=".5" y=".5" width="46" height="23" rx="1.5" style="fill:none"/>
        </g>
        <g data-name="사각형 10946" transform="translate(555 171)" style="stroke:#acacac;fill:#090816">
            <rect width="53" height="24" rx="2" style="stroke:none"/>
            <rect x=".5" y=".5" width="52" height="23" rx="1.5" style="fill:none"/>
        </g>
        <g data-name="사각형 6955" transform="translate(577.874 686.474)" style="stroke:#69afdf;fill:#090816">
            <rect width="40.252" height="25.525" rx="2" style="stroke:none"/>
            <rect x=".5" y=".5" width="39.252" height="24.525" rx="1.5" style="fill:none"/>
        </g>
        <g data-name="사각형 6956" transform="translate(581.953 353.491)" style="stroke:#ef626b;fill:#090816">
            <rect width="42.215" height="27.489" rx="2" style="stroke:none"/>
            <rect x=".5" y=".5" width="41.215" height="26.489" rx="1.5" style="fill:none"/>
        </g>
        <g data-name="사각형 6957" transform="translate(405 316)" style="stroke:#ef626b;fill:#090816">
            <rect width="43.197" height="25.525" rx="2" style="stroke:none"/>
            <rect x=".5" y=".5" width="42.197" height="24.525" rx="1.5" style="fill:none"/>
        </g>
        <g data-name="사각형 6958" transform="translate(455 316)" style="stroke:#ef626b;fill:#090816">
            <rect width="42.215" height="25.525" rx="2" style="stroke:none"/>
            <rect x=".5" y=".5" width="41.215" height="24.525" rx="1.5" style="fill:none"/>
        </g>
        <g data-name="사각형 6959" transform="translate(512.056 323.493)" style="stroke:#ef626b;fill:#090816">
            <rect width="42.215" height="26.507" rx="2" style="stroke:none"/>
            <rect x=".5" y=".5" width="41.215" height="25.507" rx="1.5" style="fill:none"/>
        </g>
        <g data-name="사각형 6960" transform="translate(575 420)" style="stroke:#ef626b;fill:#090816">
            <rect width="40.252" height="27.489" rx="2" style="stroke:none"/>
            <rect x=".5" y=".5" width="39.252" height="26.489" rx="1.5" style="fill:none"/>
        </g>
        <g data-name="사각형 6962" transform="translate(759 281)" style="stroke:#ef626b;fill:#090816">
            <rect width="42.466" height="25.951" rx="2" style="stroke:none"/>
            <rect x=".5" y=".5" width="41.466" height="24.951" rx="1.5" style="fill:none"/>
        </g>
        <g data-name="사각형 6963" transform="translate(793 350)" style="stroke:#ef626b;fill:#090816">
            <rect width="42.215" height="26.507" rx="2" style="stroke:none"/>
            <rect x=".5" y=".5" width="41.215" height="25.507" rx="1.5" style="fill:none"/>
        </g>
        <g data-name="사각형 6964" transform="translate(826 406)" style="stroke:#ef626b;fill:#090816">
            <rect width="42.466" height="25.951" rx="2" style="stroke:none"/>
            <rect x=".5" y=".5" width="41.466" height="24.951" rx="1.5" style="fill:none"/>
        </g>
        <g data-name="사각형 6965" transform="translate(824 449)" style="stroke:#ef626b;fill:#090816">
            <rect width="41.233" height="25.525" rx="2" style="stroke:none"/>
            <rect x=".5" y=".5" width="40.233" height="24.525" rx="1.5" style="fill:none"/>
        </g>
        <g data-name="사각형 6966" transform="translate(802 532)" style="stroke:#ef626b;fill:#090816">
            <rect width="44.179" height="25.525" rx="2" style="stroke:none"/>
            <rect x=".5" y=".5" width="43.179" height="24.525" rx="1.5" style="fill:none"/>
        </g>
        <g data-name="사각형 6967" transform="translate(780 583)" style="stroke:#ef626b;fill:#090816">
            <rect width="41.233" height="24.544" rx="2" style="stroke:none"/>
            <rect x=".5" y=".5" width="40.233" height="23.544" rx="1.5" style="fill:none"/>
        </g>
        <g data-name="사각형 6968" transform="translate(732 589)" style="stroke:#ef626b;fill:#090816">
            <rect width="43.197" height="24.544" rx="2" style="stroke:none"/>
            <rect x=".5" y=".5" width="42.197" height="23.544" rx="1.5" style="fill:none"/>
        </g>
        <g data-name="사각형 6969" transform="translate(719 618)" style="stroke:#ef626b;fill:#090816">
            <rect width="42.215" height="27.489" rx="2" style="stroke:none"/>
            <rect x=".5" y=".5" width="41.215" height="26.489" rx="1.5" style="fill:none"/>
        </g>
        <g data-name="사각형 6971" transform="translate(690.662 349)" style="stroke:#ef626b;fill:#090816">
            <rect width="41.379" height="31.416" rx="2" style="stroke:none"/>
            <rect x=".5" y=".5" width="40.379" height="30.416" rx="1.5" style="fill:none"/>
        </g>
        <g data-name="사각형 6974" transform="translate(432 706)" style="stroke:#acacac;fill:#090816">
            <rect width="65" height="30" rx="2" style="stroke:none"/>
            <rect x=".5" y=".5" width="64" height="29" rx="1.5" style="fill:none"/>
        </g>
        <g data-name="사각형 10950" transform="translate(707 661)" style="stroke:#acacac;fill:#090816">
            <rect width="92" height="30" rx="2" style="stroke:none"/>
            <rect x=".5" y=".5" width="91" height="29" rx="1.5" style="fill:none"/>
        </g>
        <text data-name="109" transform="translate(712 448)" style="font-size:14px;fill:#69afdf;font-family:SegoeUI,Segoe UI;letter-spacing:-.03em"><tspan x="0" y="0">109</tspan></text>
        <text data-name="110" transform="translate(734 503)" style="font-size:14px;fill:#69afdf;font-family:SegoeUI,Segoe UI;letter-spacing:-.03em"><tspan x="0" y="0">110</tspan></text>
        <text data-name="111" transform="translate(743 537)" style="font-size:14px;fill:#69afdf;font-family:SegoeUI,Segoe UI;letter-spacing:-.03em"><tspan x="0" y="0">111</tspan></text>
        <text data-name="112" transform="translate(740 568)" style="font-size:14px;fill:#69afdf;font-family:SegoeUI,Segoe UI;letter-spacing:-.03em"><tspan x="0" y="0">112</tspan></text>
        <text data-name="113" transform="translate(658 575)" style="font-size:14px;fill:#69afdf;font-family:SegoeUI,Segoe UI;letter-spacing:-.03em"><tspan x="0" y="0">113</tspan></text>
        <text data-name="114" transform="translate(576 609)" style="font-size:14px;fill:#69afdf;font-family:SegoeUI,Segoe UI;letter-spacing:-.03em"><tspan x="0" y="0">114</tspan></text>
        <text data-name="115" transform="translate(542 665)" style="font-size:14px;fill:#69afdf;font-family:SegoeUI,Segoe UI;letter-spacing:-.03em"><tspan x="0" y="0">115</tspan></text>
        <text transform="translate(523.001 729)" style="fill:#acacac;letter-spacing:-.03em;font-family:MalgunGothic,Malgun Gothic;font-size:12px"><tspan x="0" y="0">대원로</tspan></text>
        <text transform="translate(602 408)" style="fill:#acacac;letter-spacing:-.03em;font-family:MalgunGothic,Malgun Gothic;font-size:12px"><tspan x="0" y="0">동탄청계로</tspan></text>
        <text transform="translate(541.001 302)" style="fill:#acacac;letter-spacing:-.03em;font-family:MalgunGothic,Malgun Gothic;font-size:12px"><tspan x="0" y="0">동탄순환대로</tspan></text>
        <text transform="translate(314.001 367)" style="fill:#acacac;letter-spacing:-.03em;font-family:MalgunGothic,Malgun Gothic;font-size:12px"><tspan x="0" y="0">벌말교</tspan></text>
        <text transform="translate(561.001 188)" style="fill:#acacac;letter-spacing:-.03em;font-family:MalgunGothic,Malgun Gothic;font-size:12px"><tspan x="0" y="0">삼성</tspan><tspan y="0" style="font-family:SegoeUI,Segoe UI">1</tspan><tspan y="0">로</tspan></text>
        <text data-name="116" transform="translate(586.875 704.474)" style="font-size:14px;fill:#69afdf;font-family:SegoeUI,Segoe UI;letter-spacing:-.03em"><tspan x="0" y="0">116</tspan></text>
        <text data-name="307" transform="translate(592.953 373.491)" style="font-size:14px;fill:#ef626b;font-family:SegoeUI,Segoe UI;letter-spacing:-.03em"><tspan x="0" y="0">307</tspan></text>
        <text data-name="302" transform="translate(415.999 334)" style="font-size:14px;fill:#ef626b;font-family:SegoeUI,Segoe UI;letter-spacing:-.03em"><tspan x="0" y="0">302</tspan></text>
        <text data-name="303" transform="translate(465 334)" style="font-size:14px;fill:#ef626b;font-family:SegoeUI,Segoe UI;letter-spacing:-.03em"><tspan x="0" y="0">303</tspan></text>
        <text data-name="304" transform="translate(522.056 341.493)" style="font-size:14px;fill:#ef626b;font-family:SegoeUI,Segoe UI;letter-spacing:-.03em"><tspan x="0" y="0">304</tspan></text>
        <text data-name="306" transform="translate(584 439)" style="font-size:14px;fill:#ef626b;font-family:SegoeUI,Segoe UI;letter-spacing:-.03em"><tspan x="0" y="0">306</tspan></text>
        <text data-name="203" transform="translate(770 299)" style="font-size:14px;fill:#ef626b;font-family:SegoeUI,Segoe UI;letter-spacing:-.03em"><tspan x="0" y="0">203</tspan></text>
        <text data-name="204" transform="translate(803 368)" style="font-size:14px;fill:#ef626b;font-family:SegoeUI,Segoe UI;letter-spacing:-.03em"><tspan x="0" y="0">204</tspan></text>
        <text data-name="205" transform="translate(836 424)" style="font-size:14px;fill:#ef626b;font-family:SegoeUI,Segoe UI;letter-spacing:-.03em"><tspan x="0" y="0">205</tspan></text>
        <text data-name="206" transform="translate(834 467)" style="font-size:14px;fill:#ef626b;font-family:SegoeUI,Segoe UI;letter-spacing:-.03em"><tspan x="0" y="0">206</tspan></text>
        <text data-name="207" transform="translate(813 550)" style="font-size:14px;fill:#ef626b;font-family:SegoeUI,Segoe UI;letter-spacing:-.03em"><tspan x="0" y="0">207</tspan></text>
        <text data-name="208" transform="translate(790 601)" style="font-size:14px;fill:#ef626b;font-family:SegoeUI,Segoe UI;letter-spacing:-.03em"><tspan x="0" y="0">208</tspan></text>
        <text data-name="209" transform="translate(743 606)" style="font-size:14px;fill:#ef626b;font-family:SegoeUI,Segoe UI;letter-spacing:-.03em"><tspan x="0" y="0">209</tspan></text>
        <text data-name="210" transform="translate(729 637)" style="font-size:14px;fill:#ef626b;font-family:SegoeUI,Segoe UI;letter-spacing:-.03em"><tspan x="0" y="0">210</tspan></text>
        <text data-name="201" transform="translate(700.662 370)" style="font-size:14px;fill:#ef626b;font-family:SegoeUI,Segoe UI;letter-spacing:-.03em"><tspan x="0" y="0">201</tspan></text>
        <text transform="translate(747.984 390.193)" style="font-size:13px;letter-spacing:-.03em;font-family:MalgunGothic,Malgun Gothic;fill:#8a8a8a"><tspan x="-22.419" y="0">동탄</tspan><tspan y="0" style="font-family:SegoeUI,Segoe UI">4</tspan><tspan y="0">동</tspan></text>
        <text transform="translate(444 727)" style="font-family:MalgunGothicBold,Malgun Gothic;fill:#fff;font-size:14px;letter-spacing:-.03em"><tspan x="0" y="0">오산역</tspan></text>
        <text transform="translate(719 682)" style="font-family:MalgunGothicBold,Malgun Gothic;fill:#fff;font-size:14px;letter-spacing:-.03em"><tspan x="0" y="0">공영차고지</tspan></text>
        <path data-name="패스 15972" d="m267.069 388.046-14.1 6.043s-2.373.9-1.186 3.976 12.264 27.244 12.264 27.244.777 2.094 4.128.9 21.9-15.316 39.55-1.675c0 0 10.586 7.778 21.953 8.256 0 0 3.111-.12 4.547 2.153s19.5 1.914 27.043 0 13.88-5.624 25.127.12 23.214-.12 23.214-.12 14.358-5.624 24.409-2.871 11.846 1.795 11.846 1.795 3.828-2.513 8.854 9.453c0 0 .359 1.675 5.265 0s7.3-3.417 9.333.745 11.726 29.05 27.281 38.622 38.768 23.811 50.614 17.229c0 0 3.589-1.077 2.394-7.657s-3.59-8.018-2.992-14.359a69.713 69.713 0 0 1 .838-7.18s-.478-2.513 4.427-2.154 26.922 1.078 31.11.958 20.341.316 20.341.316 3.709-.077 3.709-3.427-.957-44.632-.957-44.632-.359-2.393 3.589-2.393 27.761.239 27.761.239 2.512.24 2.512-2.871v-48.463s-.239-3.829 3.231-3.829h39.008s16.518 1.556 27.518 21.419 65.152 115.71 65.152 115.71 4.846 14.176 3.231 21.354-15.45 67.306-15.45 67.306L749.909 644.1s-6.282 17.59-21 21.9-42.359 2.513-42.359 2.513-3.949.36-2.153 6.1-4.487 17.229-4.487 17.229l-20.461 38.051" transform="translate(42.604 -83.846)" style="stroke-miterlimit:10;stroke-width:2px;stroke:#ef626b;fill:none"/>
        <g data-name="그룹 13029">
            <g data-name="그룹 11450" transform="translate(501.016 715.112)" style="clip-path:url(#crrr0n0d0a)">
                <path data-name="패스 14970" d="M10.378 3.383A3.126 3.126 0 0 0 6.363 4.77a2.192 2.192 0 0 1-.088.223A3.127 3.127 0 1 1 .551 2.477L.53 2.469A6.254 6.254 0 1 0 11.98 7.5a3.126 3.126 0 0 0-1.6-4.12" transform="translate(0 1.269)" style="fill:#69afdf"/>
                <path data-name="패스 14971" d="M6.158 6.256a3.127 3.127 0 1 1 5.724 2.516A6.253 6.253 0 1 0 .433 3.739l.02.008a3.125 3.125 0 0 0 5.618 2.73c.029-.07.055-.147.086-.221" transform="translate(.097)" style="fill:#ef626b"/>
            </g>
        </g>
        <g data-name="그룹 13030">
            <g data-name="그룹 11450" transform="translate(660.076 329.084)" style="clip-path:url(#crrr0n0d0a)">
                <path data-name="패스 14970" d="M10.378 3.383A3.126 3.126 0 0 0 6.363 4.77a2.192 2.192 0 0 1-.088.223A3.127 3.127 0 1 1 .551 2.477L.53 2.469A6.254 6.254 0 1 0 11.98 7.5a3.126 3.126 0 0 0-1.6-4.12" transform="translate(0 1.269)" style="fill:#69afdf"/>
                <path data-name="패스 14971" d="M6.158 6.256a3.127 3.127 0 1 1 5.724 2.516A6.253 6.253 0 1 0 .433 3.739l.02.008a3.125 3.125 0 0 0 5.618 2.73c.029-.07.055-.147.086-.221" transform="translate(.097)" style="fill:#ef626b"/>
            </g>
        </g>
        <g data-name="그룹 13031">
            <g data-name="그룹 11450" transform="translate(303.537 296.915)" style="clip-path:url(#crrr0n0d0a)">
                <path data-name="패스 14970" d="M10.378 3.383A3.126 3.126 0 0 0 6.363 4.77a2.192 2.192 0 0 1-.088.223A3.127 3.127 0 1 1 .551 2.477L.53 2.469A6.254 6.254 0 1 0 11.98 7.5a3.126 3.126 0 0 0-1.6-4.12" transform="translate(0 1.269)" style="fill:#69afdf"/>
                <path data-name="패스 14971" d="M6.158 6.256a3.127 3.127 0 1 1 5.724 2.516A6.253 6.253 0 1 0 .433 3.739l.02.008a3.125 3.125 0 0 0 5.618 2.73c.029-.07.055-.147.086-.221" transform="translate(.097)" style="fill:#ef626b"/>
            </g>
        </g>
        <path data-name="사각형 6975" transform="translate(78.999 280)" style="fill:#ef626b" d="M0 0h1.963v379.936H0z"/>
        <path data-name="다각형 94" d="m14.235 0 14.236 23.562H0z" transform="translate(64.859 268.017)" style="fill:#ef626b"/>
        <path data-name="다각형 95" d="m14.235 0 14.236 23.562H0z" transform="rotate(180 46.663 336.739)" style="fill:#ef626b"/>
        <g data-name="사각형 6976" transform="translate(690 381)" style="stroke:#69afdf;fill:#090816">
            <rect width="42.215" height="26.507" rx="2" style="stroke:none"/>
            <rect x=".5" y=".5" width="41.215" height="25.507" rx="1.5" style="fill:none"/>
        </g>
        <text data-name="108" transform="translate(700 400)" style="font-size:14px;fill:#69afdf;font-family:SegoeUI,Segoe UI;letter-spacing:-.03em"><tspan x="0" y="0">108</tspan></text>
        <g data-name="사각형 6977" transform="translate(690.662 319)" style="stroke:#69afdf;fill:#090816">
            <rect width="41.379" height="29.452" rx="2" style="stroke:none"/>
            <rect x=".5" y=".5" width="40.379" height="28.452" rx="1.5" style="fill:none"/>
        </g>
        <text data-name="107" transform="translate(700.662 339)" style="font-size:14px;fill:#69afdf;font-family:SegoeUI,Segoe UI;letter-spacing:-.03em"><tspan x="0" y="0">107</tspan></text>
        <g data-name="사각형 6978" transform="translate(494 403)" style="stroke:#ef626b;fill:#090816">
            <rect width="43.197" height="25.525" rx="2" style="stroke:none"/>
            <rect x=".5" y=".5" width="42.197" height="24.525" rx="1.5" style="fill:none"/>
        </g>
        <text data-name="305" transform="translate(504.999 421)" style="font-size:14px;fill:#ef626b;font-family:SegoeUI,Segoe UI;letter-spacing:-.03em"><tspan x="0" y="0">305</tspan></text>
        <path data-name="패스 15973" d="M498.493 481.369a4.028 4.028 0 1 1-4.028-4.028 4.029 4.029 0 0 1 4.028 4.028" transform="translate(44.303 -83.047)" style="fill:#ef626b"/>
        <g data-name="사각형 6979" transform="translate(322 281)" style="stroke:#acacac;fill:#090816">
            <rect width="65" height="31.416" rx="2" style="stroke:none"/>
            <rect x=".5" y=".5" width="64" height="30.416" rx="1.5" style="fill:none"/>
        </g>
        <g data-name="사각형 10949" transform="translate(650.387 287.584)" style="stroke:#acacac;fill:#090816">
            <rect width="65" height="31.416" rx="2" style="stroke:none"/>
            <rect x=".5" y=".5" width="64" height="30.416" rx="1.5" style="fill:none"/>
        </g>
        <text transform="translate(333.999 302)" style="font-family:MalgunGothicBold,Malgun Gothic;fill:#fff;font-size:14px;letter-spacing:-.03em"><tspan x="0" y="0">병점역</tspan></text>
        <text transform="translate(662.385 308.584)" style="font-family:MalgunGothicBold,Malgun Gothic;fill:#fff;font-size:14px;letter-spacing:-.03em"><tspan x="0" y="0">동탄역</tspan></text>
        <g data-name="그룹 13020">
            <path data-name="사각형 6932" transform="translate(1213 21)" style="fill:#66aad8" d="M0 0h2v726H0z"/>
            <path data-name="다각형 93" d="m12 0 12 21H0z" transform="translate(1202)" style="fill:#66aad8"/>
            <path data-name="다각형 92" d="m12 0 12 21H0z" transform="rotate(180 613 376.5)" style="fill:#66aad8"/>
            <g data-name="그룹 13019">
                <g data-name="패스 14864" style="fill:#090816">
                    <path d="M101.5 70.5H.5V.5h101v70z" style="stroke:none" transform="translate(1164 350.021)"/>
                    <path d="M1 1v69h100V1H1M0 0h102v71H0V0z" style="fill:#66aad8;stroke:none" transform="translate(1164 350.021)"/>
                </g>
                <text data-name="망포~오산" transform="translate(1179 376.021)" style="font-size:16px;fill:#66aad8;letter-spacing:-.03em;font-family:MalgunGothic,Malgun Gothic"><tspan x="0" y="0">망포</tspan><tspan y="0" style="font-family:SegoeUI,Segoe UI">~</tspan><tspan y="0">오산</tspan></text>
                <text data-name="L=16.40Km" transform="translate(1174 403.021)" style="font-family:SegoeUI-Bold,Segoe UI;font-weight:700;font-size:16px;fill:#fff;letter-spacing:-.03em"><tspan x="0" y="0">L=16.40Km</tspan></text>
            </g>
        </g>
        <g data-name="그룹 13023">
            <g data-name="패스 14864" style="fill:#090816">
                <path d="M158.5 70.5H.5V.5h158v70z" style="stroke:none" transform="translate(0 434)"/>
                <path d="M1 1v69h157V1H1M0 0h159v71H0V0z" style="fill:#ef626b;stroke:none" transform="translate(0 434)"/>
            </g>
            <text data-name="병점 ~ 동탄 2신도시" transform="translate(10 460)" style="font-size:16px;fill:#ef626b;letter-spacing:-.03em;font-family:MalgunGothic,Malgun Gothic"><tspan x="0" y="0">병점</tspan><tspan y="0" xml:space="preserve" style="font-family:SegoeUI,Segoe UI"> ~ </tspan><tspan y="0">동탄</tspan><tspan y="0" xml:space="preserve" style="font-family:SegoeUI,Segoe UI"> 2</tspan><tspan y="0">신도시</tspan></text>
            <text data-name="L=17.80Km" transform="translate(39 487)" style="font-family:SegoeUI-Bold,Segoe UI;font-weight:700;font-size:16px;fill:#fff;letter-spacing:-.03em"><tspan x="0" y="0">L=17.80Km</tspan></text>
        </g>
        <g data-name="사각형 6943" transform="translate(505.701 193.383)" style="stroke:#69afdf;fill:#090816">
            <rect width="42.466" height="25.951" rx="2" style="stroke:none"/>
            <rect x=".5" y=".5" width="41.466" height="24.951" rx="1.5" style="fill:none"/>
        </g>
        <g data-name="사각형 6945" transform="translate(522.881 229.728)" style="stroke:#69afdf;fill:#090816">
            <rect width="41.233" height="26.507" rx="2" style="stroke:none"/>
            <rect x=".5" y=".5" width="40.233" height="25.507" rx="1.5" style="fill:none"/>
        </g>
        <g data-name="사각형 6946" transform="translate(581.783 246.418)" style="stroke:#69afdf;fill:#090816">
            <rect width="41.233" height="26.507" rx="2" style="stroke:none"/>
            <rect x=".5" y=".5" width="40.233" height="25.507" rx="1.5" style="fill:none"/>
        </g>
        <g data-name="사각형 6947" transform="translate(625.963 246.418)" style="stroke:#69afdf;fill:#090816">
            <rect width="42.215" height="26.507" rx="2" style="stroke:none"/>
            <rect x=".5" y=".5" width="41.215" height="25.507" rx="1.5" style="fill:none"/>
        </g>
        <text data-name="105" transform="translate(591.398 264.711)" style="font-size:14px;fill:#69afdf;font-family:SegoeUI,Segoe UI;letter-spacing:-.03em"><tspan x="0" y="0">105</tspan></text>
        <text data-name="106" transform="translate(635.137 264.711)" style="font-size:14px;fill:#69afdf;font-family:SegoeUI,Segoe UI;letter-spacing:-.03em"><tspan x="0" y="0">106</tspan></text>
        <text data-name="103" transform="translate(515.001 212)" style="font-size:14px;fill:#69afdf;font-family:SegoeUI,Segoe UI;letter-spacing:-.03em"><tspan x="0" y="0">103</tspan></text>
        <text data-name="104" transform="translate(532 248)" style="font-size:14px;fill:#69afdf;font-family:SegoeUI,Segoe UI;letter-spacing:-.03em"><tspan x="0" y="0">104</tspan></text>
        <path data-name="사각형 10936" transform="rotate(31 -810.842 1580.564)" style="fill:#fff" d="M0 0h8v22H0z"/>
        <g data-name="사각형 10937" transform="translate(622 598)" style="stroke:#acacac;fill:#090816">
            <rect width="58" height="40" rx="2" style="stroke:none"/>
            <rect x=".5" y=".5" width="57" height="39" rx="1.5" style="fill:none"/>
        </g>
        <g data-name="사각형 10938" transform="translate(664 452)" style="stroke:#acacac;fill:#090816">
            <rect width="24" height="66" rx="2" style="stroke:none"/>
            <rect x=".5" y=".5" width="23" height="65" rx="1.5" style="fill:none"/>
        </g>
        <g data-name="사각형 10939" transform="translate(781 391)" style="stroke:#acacac;fill:#090816">
            <rect width="20" height="94" rx="2" style="stroke:none"/>
            <rect x=".5" y=".5" width="19" height="93" rx="1.5" style="fill:none"/>
        </g>
        <g data-name="사각형 10943" transform="translate(624 300)" style="stroke:#acacac;fill:#090816">
            <rect width="24" height="81" rx="2" style="stroke:none"/>
            <rect x=".5" y=".5" width="23" height="80" rx="1.5" style="fill:none"/>
        </g>
        <text data-name="동탄 순환대로" transform="translate(651 615)" style="fill:#acacac;letter-spacing:-.03em;font-family:MalgunGothic,Malgun Gothic;font-size:12px"><tspan x="-11.82" y="0">동탄</tspan><tspan x="-23.46" y="16">순환대로</tspan></text>
        <text data-name="동 탄대 로" transform="translate(676 469)" style="fill:#acacac;letter-spacing:-.03em;font-family:MalgunGothic,Malgun Gothic;font-size:12px"><tspan x="-6" y="0">동</tspan><tspan x="-6" y="14">탄</tspan><tspan x="-6" y="28">대</tspan><tspan x="-6" y="42">로</tspan></text>
        <text data-name="동 탄순 환대 로" transform="translate(791 408)" style="fill:#acacac;letter-spacing:-.03em;font-family:MalgunGothic,Malgun Gothic;font-size:12px"><tspan x="-6" y="0">동</tspan><tspan x="-6" y="14">탄</tspan><tspan x="-6" y="28">순</tspan><tspan x="-6" y="42">환</tspan><tspan x="-6" y="56">대</tspan><tspan x="-6" y="70">로</tspan></text>
        <text data-name="동 탄기 흥로" transform="translate(636 317)" style="fill:#acacac;letter-spacing:-.03em;font-family:MalgunGothic,Malgun Gothic;font-size:12px"><tspan x="-6" y="0">동</tspan><tspan x="-6" y="14">탄</tspan><tspan x="-6" y="28">기</tspan><tspan x="-6" y="42">흥</tspan><tspan x="-6" y="56">로</tspan></text>
        <g data-name="사각형 10941" transform="translate(496 367)" style="stroke:#acacac;fill:#090816">
            <rect width="71" height="24" rx="2" style="stroke:none"/>
            <rect x=".5" y=".5" width="70" height="23" rx="1.5" style="fill:none"/>
        </g>
        <text transform="translate(502.001 384)" style="fill:#acacac;letter-spacing:-.03em;font-family:MalgunGothic,Malgun Gothic;font-size:12px"><tspan x="0" y="0">동탄중앙로</tspan></text>
        <g data-name="사각형 10948" transform="translate(345 317)" style="stroke:#acacac;fill:#090816">
            <rect width="59" height="24" rx="2" style="stroke:none"/>
            <rect x=".5" y=".5" width="58" height="23" rx="1.5" style="fill:none"/>
        </g>
        <text data-name="10용사로" transform="translate(351.001 334)" style="fill:#acacac;font-family:SegoeUI,Segoe UI;letter-spacing:-.03em;font-size:12px"><tspan x="0" y="0">10</tspan><tspan y="0" style="font-family:MalgunGothic,Malgun Gothic">용사로</tspan></text>
    </g>
</svg>
