<svg xmlns="http://www.w3.org/2000/svg" width="112" height="112" viewBox="0 0 112 112">
    <defs>
        <clipPath id="855lsfzala">
            <path data-name="사각형 13231" transform="translate(0 .175)" style="fill:none" d="M0 0h112v112H0z"/>
        </clipPath>
    </defs>
    <g data-name="그룹 16643" style="clip-path:url(#855lsfzala)" transform="translate(0 -.175)">
        <path data-name="패스 15952" d="M112 56c0 16.18-3.55 31.955-13.8 42.2S72.179 112 56 112s-31.955-3.55-42.2-13.8S0 72.179 0 56s3.55-31.956 13.8-42.2S39.821 0 56 0s31.955 3.55 42.2 13.8S112 39.82 112 56z" transform="translate(0 .226)" style="fill:#fff"/>
        <path data-name="패스 15953" d="M61.637 63.841v-6.764H50.8v6.764l-3.584.96 2.1 8.767a13.993 13.993 0 0 0 6.448 1.6 12.616 12.616 0 0 0 7.3-2.065l1.892-8.303z" transform="translate(-.013 .21)" style="fill:#e1a7a7"/>
        <path data-name="패스 15954" d="M61.637 63.841v-6.764H50.8v6.764l-3.584.96 2.1 8.767a13.993 13.993 0 0 0 6.448 1.6 12.616 12.616 0 0 0 7.3-2.065l1.892-8.303z" transform="translate(-.013 .21)" style="stroke-linejoin:round;stroke-linecap:round;stroke:#1b1b1c;stroke-width:2px;fill:none"/>
        <path data-name="패스 15955" d="M44.83 42.1s-5.244-.583-4.485-9.319c.659-7.582 5.341-6.892 5.341-6.892s-.085-4.882 10.16-4.882c8.416 0 14.208 3.365 15.771 10.709 1.173 5.511-.368 10.679-4.055 13.394z" transform="translate(-.011 .22)" style="fill:#3f414d"/>
        <path data-name="패스 15956" d="M44.83 42.1s-5.244-.583-4.485-9.319c.659-7.582 5.341-6.892 5.341-6.892s-.085-4.882 10.16-4.882c8.416 0 14.208 3.365 15.771 10.709 1.173 5.511-.368 10.679-4.055 13.394z" transform="translate(-.011 .22)" style="stroke-linejoin:round;stroke-linecap:round;stroke:#1b1b1c;stroke-width:2px;fill:none"/>
        <path data-name="패스 15957" d="M56.2 61.228a11.091 11.091 0 0 0 11.088-11.091v-8.594c-6.134 0-11.324-1.891-17.808-6.465a11.17 11.17 0 0 1-4.374 5.417v9.642A11.091 11.091 0 0 0 56.2 61.228" transform="translate(-.012 .216)" style="fill:#f7cdce"/>
        <path data-name="패스 15958" d="M56.2 61.228a11.091 11.091 0 0 0 11.088-11.091v-8.594c-6.134 0-11.324-1.891-17.808-6.465a11.17 11.17 0 0 1-4.374 5.417v9.642A11.091 11.091 0 0 0 56.2 61.228z" transform="translate(-.012 .216)" style="stroke-linejoin:round;stroke:#1b1b1c;stroke-width:2px;fill:none"/>
        <path data-name="패스 15959" d="M45.1 44.676s-4.174-.608-4.174 3.7S45.1 52.17 45.1 52.17z" transform="translate(-.011 .213)" style="fill:#e1a7a7"/>
        <path data-name="패스 15960" d="M45.1 44.676s-4.174-.608-4.174 3.7S45.1 52.17 45.1 52.17z" transform="translate(-.011 .213)" style="stroke-miterlimit:10;stroke:#1b1b1c;stroke-width:2px;fill:none"/>
        <path data-name="패스 15961" d="M67.294 44.676s4.174-.608 4.174 3.7-4.174 3.795-4.174 3.795z" transform="translate(-.019 .213)" style="fill:#e1a7a7"/>
        <path data-name="패스 15962" d="M67.294 44.676s4.174-.608 4.174 3.7-4.174 3.795-4.174 3.795z" transform="translate(-.019 .213)" style="stroke-miterlimit:10;stroke:#1b1b1c;stroke-width:2px;fill:none"/>
        <path data-name="패스 15963" d="M50.391 45.215a1.692 1.692 0 0 1 3.384 0" transform="translate(-.014 .213)" style="stroke-linejoin:round;stroke-linecap:round;stroke:#1b1b1c;stroke-width:2px;fill:none"/>
        <path data-name="패스 15964" d="M59.013 45.215a1.692 1.692 0 0 1 3.384 0" transform="translate(-.016 .213)" style="stroke-linejoin:round;stroke-linecap:round;stroke:#1b1b1c;stroke-width:2px;fill:none"/>
        <path data-name="패스 15965" d="m61.64 63.843-5.34 4.719 3.971 3.659 1.788 1.647 4.575-8.59z" transform="translate(-.016 .208)" style="fill:#eaedf4"/>
        <path data-name="패스 15966" d="m61.64 63.843-5.34 4.719 3.971 3.659 1.788 1.647 4.575-8.59z" transform="translate(-.016 .208)" style="stroke-linejoin:round;stroke-linecap:round;stroke:#1b1b1c;stroke-width:2px;fill:none"/>
        <path data-name="패스 15967" d="M54.148 75.9h4.531l1.587-3.674-3.971-3.659-3.9 3.634z" transform="translate(-.014 .207)" style="fill:#7186ff"/>
        <path data-name="패스 15968" d="M54.148 75.9h4.531l1.587-3.674-3.971-3.659-3.9 3.634z" transform="translate(-.014 .207)" style="stroke-linejoin:round;stroke-linecap:round;stroke:#1b1b1c;stroke-width:2px;fill:none"/>
        <path data-name="패스 15969" d="m52.384 72.2-1.8 1.672-4.7-8.636-7.532 2.131-3.114.968a8.847 8.847 0 0 0-6.438 8.102v14.578h22.558L54.141 75.9z" transform="translate(-.008 .207)" style="fill:#fff"/>
        <path data-name="패스 15970" d="m52.384 72.2-1.8 1.672-4.7-8.636-7.532 2.131-3.114.968a8.847 8.847 0 0 0-6.438 8.102v14.578h22.558L54.141 75.9z" transform="translate(-.008 .207)" style="stroke-linejoin:round;stroke-linecap:round;stroke:#1b1b1c;stroke-width:2px;fill:none"/>
        <path data-name="패스 15971" d="M58.679 75.9h-4.531l-2.784 15.12h10.325z" transform="translate(-.014 .205)" style="fill:#7186ff"/>
        <path data-name="패스 15972" d="M58.679 75.9h-4.531l-2.784 15.12h10.325z" transform="translate(-.014 .205)" style="stroke-linejoin:round;stroke-linecap:round;stroke:#1b1b1c;stroke-width:2px;fill:none"/>
        <path data-name="패스 15973" d="m76.825 68.314-2.942-.951-7.254-2.085-4.575 8.59-1.788-1.647-1.585 3.679 3.01 15.12h21.536V76.409a8.844 8.844 0 0 0-6.4-8.095" transform="translate(-.016 .207)" style="fill:#fff"/>
        <path data-name="패스 15974" d="m76.825 68.314-2.942-.951-7.254-2.085-4.575 8.59-1.788-1.647-1.585 3.679 3.01 15.12h21.536V76.409a8.844 8.844 0 0 0-6.402-8.095z" transform="translate(-.016 .207)" style="stroke-linejoin:round;stroke-linecap:round;stroke:#1b1b1c;stroke-width:2px;fill:none"/>
        <path data-name="패스 15975" d="m50.8 63.843-4.906 1.389 4.7 8.636 1.8-1.672 3.9-3.634z" transform="translate(-.013 .208)" style="fill:#eaedf4"/>
        <path data-name="패스 15976" d="m50.8 63.843-4.906 1.389 4.7 8.636 1.8-1.672 3.9-3.634z" transform="translate(-.013 .208)" style="stroke-linejoin:round;stroke-linecap:round;stroke:#1b1b1c;stroke-width:2px;fill:none"/>
        <path data-name="선 176" transform="translate(39.342 79.492)" style="fill:#fff" d="M0 11.73V0"/>
        <path data-name="선 177" transform="translate(39.342 79.492)" style="stroke-linejoin:round;stroke-linecap:round;stroke:#1b1b1c;stroke-width:2px;fill:none" d="M0 11.73V0"/>
        <path data-name="선 178" transform="translate(72.659 79.492)" style="fill:#fff" d="M0 11.73V0"/>
        <path data-name="선 179" transform="translate(72.659 79.492)" style="stroke-linejoin:round;stroke-linecap:round;stroke:#1b1b1c;stroke-width:2px;fill:none" d="M0 11.73V0"/>
    </g>
</svg>
