<svg xmlns="http://www.w3.org/2000/svg" width="112" height="112" viewBox="0 0 112 112">
    <defs>
        <clipPath id="l7dwtj0ora">
            <path data-name="사각형 13219" transform="translate(0 .297)" style="fill:none" d="M0 0h112v112H0z"/>
        </clipPath>
    </defs>
    <g data-name="그룹 16636">
        <g data-name="그룹 16637">
            <g data-name="그룹 16636" style="clip-path:url(#l7dwtj0ora)" transform="translate(0 -.297)">
                <path data-name="패스 15850" d="M112 56c0 16.18-3.55 31.955-13.8 42.2S72.179 112 56 112s-31.955-3.55-42.2-13.8S0 72.179 0 56s3.55-31.956 13.8-42.2S39.821 0 56 0s31.955 3.55 42.2 13.8S112 39.82 112 56z" style="fill:#fff"/>
                <path data-name="패스 15851" d="M27.409 48.984v41.157H84.6V48.984h9.547L56.005 17.869 17.863 48.984z" transform="translate(-.005 -.005)" style="fill:#dcf6ff"/>
                <path data-name="패스 15852" d="M48.372 60.857s-3.453-.384-2.953-6.138c.434-4.993 3.517-4.538 3.517-4.538s-.056-3.215 6.691-3.215c5.542 0 9.356 2.215 10.386 7.052.773 3.63-.242 7.033-2.67 8.822z" transform="translate(-.013 -.013)" style="fill:#3f414d"/>
                <path data-name="패스 15853" d="M48.372 60.857s-3.453-.384-2.953-6.138c.434-4.993 3.517-4.538 3.517-4.538s-.056-3.215 6.691-3.215c5.542 0 9.356 2.215 10.386 7.052.773 3.63-.242 7.033-2.67 8.822z" transform="translate(-.013 -.013)" style="stroke-linejoin:round;stroke-linecap:round;stroke:#1b1b1c;stroke-width:2px;fill:none"/>
                <path data-name="패스 15854" d="M39.807 82.935v7.222h32.407v-7.242A5.615 5.615 0 0 0 68.4 77.6l-12.261-4.156-12.494 4.166a5.614 5.614 0 0 0-3.838 5.326" transform="translate(-.011 -.02)" style="fill:#3bc3fd"/>
                <path data-name="패스 15855" d="M39.807 82.935v7.222h32.407v-7.242A5.615 5.615 0 0 0 68.4 77.6l-12.261-4.156-12.494 4.166a5.614 5.614 0 0 0-3.838 5.325z" transform="translate(-.011 -.02)" style="stroke-miterlimit:10;stroke:#1b1b1c;stroke-width:2px;fill:none"/>
                <path data-name="패스 15856" d="M56.143 80.006a4.2 4.2 0 0 1-4.2-4.2v-5.9h8.4v5.9a4.2 4.2 0 0 1-4.2 4.2" transform="translate(-.014 -.019)" style="fill:#e1a7a7"/>
                <path data-name="패스 15857" d="M56.143 80.006a4.2 4.2 0 0 1-4.2-4.2v-5.9h8.4v5.9a4.2 4.2 0 0 1-4.2 4.2z" transform="translate(-.014 -.019)" style="stroke-miterlimit:10;stroke:#1b1b1c;stroke-width:2px;fill:none"/>
                <path data-name="패스 15858" d="M55.858 73.453a7.3 7.3 0 0 0 7.3-7.3V60.49c-4.04 0-7.458-1.246-11.728-4.258a7.358 7.358 0 0 1-2.88 3.567v6.35a7.3 7.3 0 0 0 7.3 7.3" transform="translate(-.013 -.016)" style="fill:#f7cdce"/>
                <path data-name="패스 15859" d="M55.858 73.453a7.3 7.3 0 0 0 7.3-7.3V60.49c-4.04 0-7.458-1.246-11.728-4.258a7.358 7.358 0 0 1-2.88 3.567v6.35a7.3 7.3 0 0 0 7.308 7.304z" transform="translate(-.013 -.016)" style="stroke-linejoin:round;stroke:#1b1b1c;stroke-width:2px;fill:none"/>
                <path data-name="패스 15860" d="M48.553 62.553a2.315 2.315 0 0 0-2.753 2.436 2.371 2.371 0 0 0 2.749 2.5z" transform="translate(-.013 -.017)" style="fill:#e1a7a7"/>
                <path data-name="패스 15861" d="M48.553 62.553a2.315 2.315 0 0 0-2.753 2.436 2.371 2.371 0 0 0 2.749 2.5z" transform="translate(-.013 -.017)" style="stroke-miterlimit:10;stroke:#1b1b1c;stroke-width:2px;fill:none"/>
                <path data-name="패스 15862" d="M63.167 62.553a2.315 2.315 0 0 1 2.749 2.436 2.371 2.371 0 0 1-2.749 2.5z" transform="translate(-.017 -.017)" style="fill:#e1a7a7"/>
                <path data-name="패스 15863" d="M63.167 62.553a2.315 2.315 0 0 1 2.749 2.436 2.371 2.371 0 0 1-2.749 2.5z" transform="translate(-.017 -.017)" style="stroke-miterlimit:10;stroke:#1b1b1c;stroke-width:2px;fill:none"/>
                <path data-name="패스 15864" d="M27.412 58.609v31.544H84.6V58.609" transform="translate(-.008 -.016)" style="stroke-linejoin:round;stroke-linecap:round;stroke:#1b1b1c;stroke-width:2px;fill:none"/>
                <path data-name="패스 15865" d="M94.147 48.984 56 17.869 17.863 48.984V58L56 26.4l38.147 30.586z" transform="translate(-.005 -.005)" style="fill:#bf887b"/>
                <path data-name="패스 15866" d="M94.147 48.984 56 17.869 17.863 48.984V58L56 26.4l38.147 30.586z" transform="translate(-.005 -.005)" style="stroke-linejoin:round;stroke-linecap:round;stroke:#1b1b1c;stroke-width:2px;fill:none"/>
            </g>
        </g>
    </g>
</svg>
