<svg xmlns="http://www.w3.org/2000/svg" width="112" height="112" viewBox="0 0 112 112">
    <defs>
        <clipPath id="30patmeata">
            <path data-name="사각형 13249" transform="translate(0 .189)" style="fill:none" d="M0 0h112v112H0z"/>
        </clipPath>
    </defs>
    <g data-name="그룹 16645" style="clip-path:url(#30patmeata)" transform="translate(0 -.189)">
        <path data-name="패스 15996" d="M112 56c0 16.18-3.55 31.955-13.8 42.2S72.179 112 56 112s-31.955-3.55-42.2-13.8S0 72.179 0 56s3.55-31.956 13.8-42.2S39.821 0 56 0s31.955 3.55 42.2 13.8S112 39.82 112 56z" transform="translate(0 -.166)" style="fill:#fff"/>
        <path data-name="패스 15997" d="M44.318 47.319h-17.4V88.8H85.1V47.319H67.7" transform="translate(-.007 -.179)" style="fill:#f2f2f4"/>
        <path data-name="패스 15998" d="M44.318 47.319h-17.4V88.8H85.1V47.319H67.7" transform="translate(-.007 -.179)" style="stroke-linecap:round;stroke-linejoin:round;stroke:#1b1b1c;stroke-width:2px;fill:none"/>
        <path data-name="사각형 13233" transform="translate(32.997 55.249)" style="fill:#5fddd7" d="M0 0h5.656v6.195H0z"/>
        <path data-name="사각형 13234" transform="translate(32.997 55.249)" style="stroke-miterlimit:10;stroke:#1b1b1c;stroke-width:2px;fill:none" d="M0 0h5.656v6.195H0z"/>
        <path data-name="사각형 13235" transform="translate(32.997 68.448)" style="fill:#5fddd7" d="M0 0h5.656v6.195H0z"/>
        <path data-name="사각형 13236" transform="translate(32.997 68.448)" style="stroke-miterlimit:10;stroke:#1b1b1c;stroke-width:2px;fill:none" d="M0 0h5.656v6.195H0z"/>
        <path data-name="사각형 13237" transform="translate(73.375 55.249)" style="fill:#5fddd7" d="M0 0h5.656v6.195H0z"/>
        <path data-name="사각형 13238" transform="translate(73.375 55.249)" style="stroke-miterlimit:10;stroke:#1b1b1c;stroke-width:2px;fill:none" d="M0 0h5.656v6.195H0z"/>
        <path data-name="사각형 13239" transform="translate(73.375 68.448)" style="fill:#5fddd7" d="M0 0h5.656v6.195H0z"/>
        <path data-name="사각형 13240" transform="translate(73.375 68.448)" style="stroke-miterlimit:10;stroke:#1b1b1c;stroke-width:2px;fill:none" d="M0 0h5.656v6.195H0z"/>
        <path data-name="사각형 13241" transform="translate(44.311 34.799)" style="fill:#fff" d="M0 0h23.38v53.824H0z"/>
        <path data-name="사각형 13242" transform="translate(44.311 34.799)" style="stroke-linecap:round;stroke-linejoin:round;stroke:#1b1b1c;stroke-width:2px;fill:none" d="M0 0h23.38v53.824H0z"/>
        <path data-name="패스 15999" d="M62.478 46.879a6.465 6.465 0 1 1-6.465-6.465 6.465 6.465 0 0 1 6.465 6.465" transform="translate(-.014 -.177)" style="fill:#5fddd7"/>
        <circle data-name="타원 11736" cx="6.465" cy="6.465" r="6.465" transform="translate(49.535 40.237)" style="stroke-miterlimit:10;stroke:#1b1b1c;stroke-width:2px;fill:none"/>
        <path data-name="선 181" transform="translate(56 20.067)" style="stroke-linecap:round;stroke-linejoin:round;stroke:#1b1b1c;stroke-width:2px;fill:none" d="M0 13.94V0"/>
        <path data-name="사각형 13243" transform="translate(56 19.259)" style="fill:#5fddd7" d="M0 0h10.494v6.667H0z"/>
        <path data-name="사각형 13244" transform="translate(56 19.259)" style="stroke-miterlimit:10;stroke:#1b1b1c;stroke-width:2px;fill:none" d="M0 0h10.494v6.667H0z"/>
        <path data-name="패스 16000" d="m56.03 44.014-.01 2.866 2.757 1.415" transform="translate(-.016 -.178)" style="stroke-linecap:round;stroke-linejoin:round;stroke:#1b1b1c;stroke-width:2px;fill:none"/>
        <path data-name="사각형 13245" transform="translate(50.748 66.265)" style="fill:#5fddd7" d="M0 0h10.505v22.358H0z"/>
        <path data-name="사각형 13246" transform="translate(50.748 66.265)" style="stroke-miterlimit:10;stroke:#1b1b1c;stroke-width:2px;fill:none" d="M0 0h10.505v22.358H0z"/>
        <path data-name="사각형 13247" transform="translate(21.9 88.593)" style="fill:#5fddd7" d="M0 0h68.2v3.815H0z"/>
        <path data-name="사각형 13248" transform="translate(21.9 88.593)" style="stroke-miterlimit:10;stroke:#1b1b1c;stroke-width:2px;fill:none" d="M0 0h68.2v3.815H0z"/>
    </g>
</svg>
