<svg xmlns="http://www.w3.org/2000/svg" width="112" height="112" viewBox="0 0 112 112">
    <defs>
        <clipPath id="una8xrwiva">
            <path data-name="사각형 13310" transform="translate(0 .202)" style="fill:none" d="M0 0h112v112H0z"/>
        </clipPath>
    </defs>
    <g data-name="그룹 16649">
        <g data-name="그룹 16650" style="clip-path:url(#una8xrwiva)" transform="translate(0 -.202)">
            <path data-name="패스 16018" d="M112 56c0 16.18-3.55 31.955-13.8 42.2S72.179 112 56 112s-31.955-3.55-42.2-13.8S0 72.179 0 56s3.55-31.956 13.8-42.2S39.821 0 56 0s31.955 3.55 42.2 13.8S112 39.82 112 56z" style="fill:#fff"/>
            <path data-name="패스 16019" d="M64.587 40.433c0 6.93-4.086 10.4-9.125 10.4s-9.125-3.466-9.125-10.4 4.086-14.7 9.125-14.7 9.125 7.769 9.125 14.7" transform="translate(-.013 -.007)" style="fill:#5fddd7"/>
            <path data-name="패스 16020" d="M64.587 40.433c0 6.93-4.086 10.4-9.125 10.4s-9.125-3.466-9.125-10.4 4.086-14.7 9.125-14.7 9.125 7.767 9.125 14.7z" transform="translate(-.013 -.007)" style="stroke-miterlimit:10;stroke:#1b1b1c;stroke-width:2px;fill:none"/>
            <path data-name="선 199" transform="translate(55.449 42.673)" style="stroke-linecap:round;stroke-linejoin:round;stroke:#1b1b1c;stroke-width:2px;fill:none" d="M0 16.908V0"/>
            <path data-name="패스 16021" d="M40.547 41.722c0 4.919-2.9 7.379-6.477 7.379s-6.477-2.46-6.477-7.379 2.9-10.433 6.477-10.433 6.477 5.514 6.477 10.433" transform="translate(-.008 -.009)" style="fill:#5fddd7"/>
            <path data-name="패스 16022" d="M40.547 41.722c0 4.919-2.9 7.379-6.477 7.379s-6.477-2.46-6.477-7.379 2.9-10.433 6.477-10.433 6.477 5.511 6.477 10.433z" transform="translate(-.008 -.009)" style="stroke-miterlimit:10;stroke:#1b1b1c;stroke-width:2px;fill:none"/>
            <path data-name="선 200" transform="translate(34.063 43.308)" style="stroke-linecap:round;stroke-linejoin:round;stroke:#1b1b1c;stroke-width:2px;fill:none" d="M0 12.002V0"/>
            <path data-name="패스 16023" d="M83.331 41.722c0 4.919-2.9 7.379-6.477 7.379s-6.477-2.46-6.477-7.379 2.9-10.433 6.477-10.433 6.477 5.514 6.477 10.433" transform="translate(-.019 -.009)" style="fill:#5fddd7"/>
            <path data-name="패스 16024" d="M83.331 41.722c0 4.919-2.9 7.379-6.477 7.379s-6.477-2.46-6.477-7.379 2.9-10.433 6.477-10.433 6.477 5.511 6.477 10.433z" transform="translate(-.019 -.009)" style="stroke-miterlimit:10;stroke:#1b1b1c;stroke-width:2px;fill:none"/>
            <path data-name="선 201" transform="translate(76.834 43.308)" style="stroke-linecap:round;stroke-linejoin:round;stroke:#1b1b1c;stroke-width:2px;fill:none" d="M0 12.002V0"/>
            <path data-name="패스 16025" d="M82.162 55.617a76.764 76.764 0 0 0-26.272 4.555 76.758 76.758 0 0 0-26.271-4.555q-2.96 0-5.88.217v30.455h64.535l-.027-21.569v-8.867q-3.019-.231-6.085-.236" transform="translate(-.007 -.015)" style="fill:#ffd892"/>
            <path data-name="패스 16026" d="M46.3 86.289a41.054 41.054 0 0 1 9.589-6.855 51.772 51.772 0 0 1 10.3-4.027 59.15 59.15 0 0 1 11.438-1.959q2.237-.163 4.537-.164c2.065 0 4.095.109 6.085.3V55.852a80.25 80.25 0 0 0-6.085-.235 76.74 76.74 0 0 0-26.274 4.555 66.166 66.166 0 0 0-11.945 5.75c-1.2.739-2.381 1.5-3.517 2.317a57.008 57.008 0 0 0-6.273 5.208 47.473 47.473 0 0 0-9.62 12.841z" transform="translate(-.007 -.015)" style="fill:#5fddd7"/>
            <path data-name="패스 16027" d="M23.739 64.7c1.941-.16 3.9-.251 5.879-.251a70.047 70.047 0 0 1 14.327 1.473 66.166 66.166 0 0 1 11.945-5.75 76.764 76.764 0 0 0-26.272-4.555q-2.96 0-5.879.217" transform="translate(-.007 -.015)" style="stroke-linecap:round;stroke-linejoin:round;stroke:#1b1b1c;stroke-width:2px;fill:none"/>
            <path data-name="패스 16028" d="M87.257 86.293a47.477 47.477 0 0 0-9.621-12.841A59.164 59.164 0 0 0 66.2 75.411l.024.016A43.514 43.514 0 0 1 77 86.293" transform="translate(-.018 -.02)" style="stroke-linecap:round;stroke-linejoin:round;stroke:#1b1b1c;stroke-width:2px;fill:none"/>
            <path data-name="패스 16029" d="M23.739 73.57a62.407 62.407 0 0 1 5.879-.286q2.3 0 4.537.164a57 57 0 0 1 6.273-5.207 60.3 60.3 0 0 1 3.517-2.318 70.047 70.047 0 0 0-14.327-1.472c-1.977 0-3.938.09-5.879.25" transform="translate(-.007 -.018)" style="stroke-linecap:round;stroke-linejoin:round;stroke:#1b1b1c;stroke-width:2px;fill:none"/>
            <path data-name="패스 16030" d="M77 86.294a43.492 43.492 0 0 0-10.78-10.866l-.024-.016a51.724 51.724 0 0 0-10.3 4.027 41.033 41.033 0 0 1 9.589 6.855" transform="translate(-.015 -.021)" style="stroke-linecap:round;stroke-linejoin:round;stroke:#1b1b1c;stroke-width:2px;fill:none"/>
            <path data-name="패스 16031" d="M24.534 86.293a47.477 47.477 0 0 1 9.621-12.841q-2.237-.163-4.537-.164c-1.994 0-3.954.1-5.879.285" transform="translate(-.007 -.02)" style="stroke-linecap:round;stroke-linejoin:round;stroke:#1b1b1c;stroke-width:2px;fill:none"/>
            <path data-name="패스 16032" d="M34.792 86.291a43.492 43.492 0 0 1 10.78-10.866l.024-.016a54.745 54.745 0 0 1 10.3-5.751 63.23 63.23 0 0 1 11.944-3.733 70.057 70.057 0 0 1 14.328-1.473c2.048 0 4.077.1 6.085.269" transform="translate(-.01 -.018)" style="stroke-linecap:round;stroke-linejoin:round;stroke:#1b1b1c;stroke-width:2px;fill:none"/>
            <path data-name="패스 16033" d="M88.247 55.852a80.25 80.25 0 0 0-6.085-.236 76.741 76.741 0 0 0-26.272 4.556 66.1 66.1 0 0 0-11.945 5.75c-1.2.739-2.381 1.5-3.517 2.317a57 57 0 0 0-6.273 5.207 47.5 47.5 0 0 0-9.621 12.842" transform="translate(-.007 -.015)" style="stroke-linecap:round;stroke-linejoin:round;stroke:#1b1b1c;stroke-width:2px;fill:none"/>
            <path data-name="패스 16034" d="M46.307 86.293a41.054 41.054 0 0 1 9.593-6.855 51.772 51.772 0 0 1 10.3-4.027 59.15 59.15 0 0 1 11.438-1.959q2.237-.163 4.537-.164c2.065 0 4.095.109 6.085.3" transform="translate(-.013 -.02)" style="stroke-linecap:round;stroke-linejoin:round;stroke:#1b1b1c;stroke-width:2px;fill:none"/>
            <path data-name="패스 16035" d="M88.25 64.721a71.286 71.286 0 0 0-6.085-.269 70.057 70.057 0 0 0-14.328 1.472 63.375 63.375 0 0 0-11.944 3.733 54.8 54.8 0 0 0-10.3 5.752l-.024.016a43.492 43.492 0 0 0-10.78 10.866" transform="translate(-.01 -.018)" style="stroke-linecap:round;stroke-linejoin:round;stroke:#1b1b1c;stroke-width:2px;fill:none"/>
        </g>
    </g>
</svg>
