<svg xmlns="http://www.w3.org/2000/svg" width="112" height="112" viewBox="0 0 112 112">
    <defs>
        <clipPath id="4qcnh1awha">
            <path data-name="사각형 13309" transform="translate(0 .202)" style="fill:none" d="M0 0h112v112H0z"/>
        </clipPath>
    </defs>
    <g data-name="그룹 16651">
        <g data-name="그룹 16648" style="clip-path:url(#4qcnh1awha)" transform="translate(0 -.202)">
            <path data-name="패스 16007" d="M112 56c0 16.18-3.55 31.955-13.8 42.2S72.179 112 56 112s-31.955-3.55-42.2-13.8S0 72.179 0 56s3.55-31.956 13.8-42.2S39.821 0 56 0s31.955 3.55 42.2 13.8S112 39.82 112 56z" style="fill:#fff"/>
            <path data-name="패스 16008" d="M34.364 70.286c0 4.3-2.535 7.788-5.663 7.788s-5.664-3.487-5.664-7.788S25.572 62.5 28.7 62.5s5.663 3.487 5.663 7.788" transform="translate(-.006 -.017)" style="fill:#5fddd7"/>
            <path data-name="패스 16009" d="M34.364 70.286c0 4.3-2.535 7.788-5.663 7.788s-5.664-3.487-5.664-7.788S25.572 62.5 28.7 62.5s5.664 3.485 5.664 7.786z" transform="translate(-.006 -.017)" style="stroke-miterlimit:10;stroke:#1b1b1c;stroke-width:2px;fill:none"/>
            <path data-name="패스 16010" d="M41.672 42.224a4.735 4.735 0 0 0 .657-9.425 6.021 6.021 0 0 0-11.4-2.354 6.03 6.03 0 1 0-1.816 11.78z" transform="translate(-.006 -.008)" style="fill:#dcf6ff"/>
            <path data-name="패스 16011" d="M41.672 42.224a4.735 4.735 0 0 0 .657-9.425 6.021 6.021 0 0 0-11.4-2.354 6.03 6.03 0 1 0-1.816 11.78z" transform="translate(-.006 -.008)" style="stroke-linecap:round;stroke-linejoin:round;stroke:#1b1b1c;stroke-width:2px;fill:none"/>
            <path data-name="패스 16012" d="M69.556 49.023a3.362 3.362 0 0 0 .466-6.692 4.275 4.275 0 0 0-8.091-1.672 4.281 4.281 0 1 0-1.29 8.364z" transform="translate(-.016 -.011)" style="fill:#dcf6ff"/>
            <path data-name="패스 16013" d="M69.556 49.023a3.362 3.362 0 0 0 .466-6.692 4.275 4.275 0 0 0-8.091-1.672 4.281 4.281 0 1 0-1.29 8.364z" transform="translate(-.016 -.011)" style="stroke-linecap:round;stroke-linejoin:round;stroke:#1b1b1c;stroke-width:2px;fill:none"/>
            <path data-name="사각형 13295" transform="translate(21.9 83.493)" style="fill:#7186ff" d="M0 0h68.2v3.762H0z"/>
            <path data-name="사각형 13296" transform="translate(21.9 83.493)" style="stroke-linecap:round;stroke-linejoin:round;stroke:#1b1b1c;stroke-width:2px;fill:none" d="M0 0h68.2v3.762H0z"/>
            <path data-name="패스 16014" d="M63.95 83.5h-26.2V32.849l26.2-8.1z" transform="translate(-.01 -.007)" style="fill:#ccd1e5"/>
            <path data-name="패스 16015" d="M63.95 83.5h-26.2V32.849l26.2-8.1z" transform="translate(-.01 -.007)" style="stroke-linecap:round;stroke-linejoin:round;stroke:#1b1b1c;stroke-width:2px;fill:none"/>
            <path data-name="패스 16016" d="M63.958 83.508H80.67V57.213l-16.712-4.2z" transform="translate(-.018 -.015)" style="fill:#ccd1e5"/>
            <path data-name="패스 16017" d="M63.958 83.508H80.67V57.213l-16.712-4.2z" transform="translate(-.018 -.015)" style="stroke-linecap:round;stroke-linejoin:round;stroke:#1b1b1c;stroke-width:2px;fill:none"/>
            <path data-name="선 198" transform="translate(28.693 72.999)" style="stroke-linecap:round;stroke-linejoin:round;stroke:#1b1b1c;stroke-width:2px;fill:none" d="M0 10.494V0"/>
            <path data-name="사각형 13297" transform="translate(42.973 41.067)" style="fill:#dcf6ff" d="M0 0h15.739v6.08H0z"/>
            <path data-name="사각형 13298" transform="translate(42.973 41.067)" style="stroke-linecap:round;stroke-linejoin:round;stroke:#1b1b1c;stroke-width:2px;fill:none" d="M0 0h15.739v6.08H0z"/>
            <path data-name="사각형 13299" transform="translate(42.973 52.156)" style="fill:#dcf6ff" d="M0 0h15.739v6.08H0z"/>
            <path data-name="사각형 13300" transform="translate(42.973 52.156)" style="stroke-linecap:round;stroke-linejoin:round;stroke:#1b1b1c;stroke-width:2px;fill:none" d="M0 0h15.739v6.08H0z"/>
            <path data-name="사각형 13301" transform="translate(43.983 64.674)" style="fill:#dcf6ff" d="M0 0h6.862v15.482H0z"/>
            <path data-name="사각형 13302" transform="translate(43.983 64.674)" style="stroke-linecap:round;stroke-linejoin:round;stroke:#1b1b1c;stroke-width:2px;fill:none" d="M0 0h6.862v15.482H0z"/>
            <path data-name="사각형 13303" transform="translate(50.839 64.674)" style="fill:#dcf6ff" d="M0 0h6.862v15.482H0z"/>
            <path data-name="사각형 13304" transform="translate(50.839 64.674)" style="stroke-linecap:round;stroke-linejoin:round;stroke:#1b1b1c;stroke-width:2px;fill:none" d="M0 0h6.862v15.482H0z"/>
            <path data-name="사각형 13305" transform="translate(69.778 65.161)" style="fill:#ffd892" d="M0 0h10.875v4.77H0z"/>
            <path data-name="사각형 13306" transform="translate(69.778 65.161)" style="stroke-miterlimit:10;stroke:#1b1b1c;stroke-width:2px;fill:none" d="M0 0h10.875v4.77H0z"/>
            <path data-name="사각형 13307" transform="translate(42.481 80.155)" style="fill:#dcf6ff" d="M0 0h16.722v3.338H0z"/>
            <path data-name="사각형 13308" transform="translate(42.481 80.155)" style="stroke-linecap:round;stroke-linejoin:round;stroke:#1b1b1c;stroke-width:2px;fill:none" d="M0 0h16.722v3.338H0z"/>
        </g>
    </g>
</svg>
