<svg data-name="그룹 16647" xmlns="http://www.w3.org/2000/svg" width="112" height="119.601" viewBox="0 0 112 119.601">
    <defs>
        <clipPath id="c0lsaq4uja">
            <path data-name="사각형 13294" style="fill:none" d="M0 0h112v119.601H0z"/>
        </clipPath>
    </defs>
    <g data-name="그룹 16647" style="clip-path:url(#c0lsaq4uja)">
        <path data-name="패스 16006" d="M112 59.8c0 17.278-3.55 34.124-13.8 45.066S72.179 119.6 56 119.6s-31.955-3.791-42.2-14.735S0 77.077 0 59.8s3.55-34.124 13.8-45.066S39.821 0 56 0s31.955 3.79 42.2 14.734S112 42.522 112 59.8z" style="fill:#fff"/>
        <path data-name="사각형 13282" transform="translate(38.634 21.056)" style="fill:#7186ff" d="M0 0h34.732v77.489H0z"/>
        <path data-name="선 182" transform="translate(73.366 21.055)" style="fill:#ccd1e5" d="M0 0v77.489"/>
        <path data-name="선 183" transform="translate(73.366 21.055)" style="stroke:#1b1b1c;stroke-linecap:round;stroke-linejoin:round;stroke-width:2px;fill:none" d="M0 0v77.489"/>
        <path data-name="선 184" transform="translate(69.406 21.055)" style="fill:#ccd1e5" d="M0 0v77.489"/>
        <path data-name="선 185" transform="translate(69.406 21.055)" style="stroke:#1b1b1c;stroke-linecap:round;stroke-linejoin:round;stroke-width:2px;fill:none" d="M0 0v77.489"/>
        <path data-name="사각형 13283" transform="translate(55.15 21.056)" style="fill:#203363" d="M0 0h1.701v5.389H0z"/>
        <path data-name="사각형 13284" transform="translate(55.15 35.975)" style="fill:#203363" d="M0 0h1.701v9.53H0z"/>
        <path data-name="사각형 13285" transform="translate(55.15 55.035)" style="fill:#203363" d="M0 0h1.701v9.53H0z"/>
        <path data-name="사각형 13286" transform="translate(55.15 74.097)" style="fill:#203363" d="M0 0h1.701v9.53H0z"/>
        <path data-name="사각형 13287" transform="translate(55.15 93.156)" style="fill:#203363" d="M0 0h1.701v5.389H0z"/>
        <path data-name="선 186" transform="translate(38.634 21.056)" style="fill:#ccd1e5" d="M0 77.489V0"/>
        <path data-name="선 187" transform="translate(38.634 21.056)" style="stroke:#1b1b1c;stroke-linecap:round;stroke-linejoin:round;stroke-width:2px;fill:none" d="M0 77.489V0"/>
        <path data-name="선 188" transform="translate(42.594 21.056)" style="fill:#ccd1e5" d="M0 77.489V0"/>
        <path data-name="선 189" transform="translate(42.594 21.056)" style="stroke:#1b1b1c;stroke-linecap:round;stroke-linejoin:round;stroke-width:2px;fill:none" d="M0 77.489V0"/>
        <path data-name="사각형 13288" transform="translate(19.539 41.255)" style="fill:#ccd1e5" d="M0 0h72.923v37.089H0z"/>
        <path data-name="선 190" transform="translate(19.539 41.255)" style="fill:#ccd1e5" d="M0 0h72.923"/>
        <path data-name="선 191" transform="translate(19.539 41.255)" style="stroke:#1b1b1c;stroke-linecap:round;stroke-linejoin:round;stroke-width:2px;fill:none" d="M0 0h72.923"/>
        <path data-name="선 192" transform="translate(19.539 45.485)" style="fill:#ccd1e5" d="M0 0h72.923"/>
        <path data-name="선 193" transform="translate(19.539 45.485)" style="stroke:#1b1b1c;stroke-linecap:round;stroke-linejoin:round;stroke-width:2px;fill:none" d="M0 0h72.923"/>
        <path data-name="사각형 13289" transform="translate(19.539 58.891)" style="fill:#747a8c" d="M0 0h5.071v1.816H0z"/>
        <path data-name="사각형 13290" transform="translate(33.579 58.891)" style="fill:#747a8c" d="M0 0h8.969v1.816H0z"/>
        <path data-name="사각형 13291" transform="translate(51.516 58.891)" style="fill:#747a8c" d="M0 0h8.969v1.816H0z"/>
        <path data-name="사각형 13292" transform="translate(69.454 58.891)" style="fill:#747a8c" d="M0 0h8.969v1.816H0z"/>
        <path data-name="사각형 13293" transform="translate(87.391 58.891)" style="fill:#747a8c" d="M0 0h5.071v1.816H0z"/>
        <path data-name="선 194" transform="translate(19.539 78.345)" style="fill:#ccd1e5" d="M72.923 0H0"/>
        <path data-name="선 195" transform="translate(19.539 78.345)" style="stroke:#1b1b1c;stroke-linecap:round;stroke-linejoin:round;stroke-width:2px;fill:none" d="M72.923 0H0"/>
        <path data-name="선 196" transform="translate(19.539 74.116)" style="fill:#ccd1e5" d="M72.923 0H0"/>
        <path data-name="선 197" transform="translate(19.539 74.116)" style="stroke:#1b1b1c;stroke-linecap:round;stroke-linejoin:round;stroke-width:2px;fill:none" d="M72.923 0H0"/>
    </g>
</svg>
