<svg xmlns="http://www.w3.org/2000/svg" width="112" height="112" viewBox="0 0 112 112">
    <defs>
        <clipPath id="qk9553i6xa">
            <path data-name="사각형 13220" transform="translate(0 .297)" style="fill:none" d="M0 0h112v112H0z"/>
        </clipPath>
    </defs>
    <g data-name="그룹 16638" style="clip-path:url(#qk9553i6xa)" transform="translate(0 -.297)">
        <path data-name="패스 15867" d="M112 56c0 16.18-3.55 31.955-13.8 42.2S72.179 112 56 112s-31.955-3.55-42.2-13.8S0 72.179 0 56s3.55-31.956 13.8-42.2S39.821 0 56 0s31.955 3.55 42.2 13.8S112 39.82 112 56z" style="fill:#fff"/>
        <path data-name="패스 15868" d="M30.97 41.022a25.039 25.039 0 0 1 50.077 0v29.964a25.039 25.039 0 0 1-50.077 0z" transform="translate(-.009 -.004)" style="fill:#5fddd7"/>
        <path data-name="패스 15869" d="M30.97 41.022a25.039 25.039 0 0 1 50.077 0v29.964a25.039 25.039 0 0 1-50.077 0z" transform="translate(-.009 -.004)" style="stroke-miterlimit:10;stroke:#1b1b1c;stroke-width:2px;fill:none"/>
        <path data-name="패스 15870" d="M55.907 58.1a12.188 12.188 0 0 0 12.187-12.185v-4.338c-6.741 0-14.231-1.368-17.3-8.484-2.219 3.593-7.079 7.332-7.079 7.332v5.49A12.188 12.188 0 0 0 55.907 58.1" transform="translate(-.012 -.009)" style="fill:#f7cdce"/>
        <path data-name="패스 15871" d="M55.2 30.765a3.4 3.4 0 0 0 5.038 2.642c2.5-1.261 2.248-4.066 1.4-5.756a5.5 5.5 0 0 0-6.158-2.875 5.87 5.87 0 0 0-4.9 5.566 9.412 9.412 0 0 0 5.218 8.4c4.638 2.582 8.064 2.857 12.5 2.827v4.339a12.188 12.188 0 1 1-24.375 0v-5.49a10.781 10.781 0 0 0 2.842-2.575" transform="translate(-.012 -.007)" style="stroke-linejoin:round;stroke-linecap:round;stroke:#1b1b1c;stroke-width:2px;fill:none"/>
        <path data-name="패스 15872" d="M31.2 56.151s10.61 27.04 45.176 28.533" transform="translate(-.009 -.016)" style="stroke-linecap:round;stroke-miterlimit:10;stroke:#1b1b1c;stroke-width:2px;fill:none"/>
        <path data-name="패스 15873" d="M46.386 74.588s17.873-.5 34.367-18.917" transform="translate(-.013 -.015)" style="stroke-linecap:round;stroke-miterlimit:10;stroke:#1b1b1c;stroke-width:2px;fill:none"/>
        <path data-name="패스 15874" d="M49.025 56.068s6.756 11 15.9 12.188" transform="translate(-.014 -.016)" style="stroke-miterlimit:10;stroke:#1b1b1c;stroke-width:2px;fill:none"/>
    </g>
</svg>
